{
.appVersion = "1230";
DisplayStrings = (
"ร",
"รป"
);
copyright = "Copyright 2011 The Balsamiq Sans Project Authors (https://github.com/balsamiq/balsamiqsans)";
customParameters = (
{
name = license;
value = "This Font Software is licensed under the SIL Open Font License, Version 1.1. This license is available with a FAQ at: http://scripts.sil.org/OFL";
},
{
name = licenseURL;
value = "http://scripts.sil.org/OFL";
},
{
name = trademark;
value = "Balsamiq Sans is a trademark of Balsamiq SRL.";
},
{
name = panose;
value = (
2,
0,
6,
3,
0,
0,
0,
0,
0,
0
);
},
{
name = openTypeOS2VendorID;
value = "2ttf";
},
{
name = glyphOrder;
value = (
NULL,
CR,
space,
exclam,
quotedbl,
numbersign,
dollar,
percent,
ampersand,
quotesingle,
parenleft,
parenright,
asterisk,
plus,
comma,
hyphen,
period,
slash,
zero,
one,
two,
three,
four,
five,
six,
seven,
eight,
nine,
colon,
semicolon,
less,
equal,
greater,
question,
at,
A,
B,
C,
D,
E,
F,
G,
H,
I,
J,
K,
L,
M,
N,
O,
P,
Q,
R,
S,
T,
U,
V,
W,
X,
Y,
Z,
bracketleft,
backslash,
bracketright,
asciicircum,
underscore,
grave,
a,
b,
c,
d,
e,
f,
g,
h,
i,
j,
k,
l,
m,
n,
o,
p,
q,
r,
s,
t,
u,
v,
w,
x,
y,
z,
braceleft,
bar,
braceright,
asciitilde,
exclamdown,
cent,
sterling,
currency,
yen,
brokenbar,
section,
dieresis,
copyright,
ordfeminine,
guillemotleft,
logicalnot,
registered,
overscore,
degree,
plusminus,
uni00B2,
uni00B3,
acute,
uni00B5,
paragraph,
middot,
cedilla,
uni00B9,
ordmasculine,
guillemotright,
onequarter,
onehalf,
threequarters,
questiondown,
Agrave,
Aacute,
Acircumflex,
Atilde,
Adieresis,
Aring,
AE,
Ccedilla,
Egrave,
Eacute,
Ecircumflex,
Edieresis,
Igrave,
Iacute,
Icircumflex,
Idieresis,
Eth,
Ntilde,
Ograve,
Oacute,
Ocircumflex,
Otilde,
Odieresis,
multiply,
Oslash,
Ugrave,
Uacute,
Ucircumflex,
Udieresis,
Yacute,
Thorn,
germandbls,
agrave,
aacute,
acircumflex,
atilde,
adieresis,
aring,
ae,
ccedilla,
egrave,
eacute,
ecircumflex,
edieresis,
igrave,
iacute,
icircumflex,
idieresis,
eth,
ntilde,
ograve,
oacute,
ocircumflex,
otilde,

glyphs = (
{
glyphname = exclam;
lastChange = "2019-10-09 23:07:58 +0000";
layers = (
{
layerId = UUID0;
paths = (
{
closed = 1;
nodes = (
"287 618 OFFCURVE",
"245 433 OFFCURVE",
"215 287 OFFCURVE",
"203 220 QCURVE",
"200 200 OFFCURVE",
"165 169 OFFCURVE",
"124 167 OFFCURVE",
"99 195 OFFCURVE",
"102 216 QCURVE",
"113 282 OFFCURVE",
"144 430 OFFCURVE",
"187 619 OFFCURVE",
"197 665 QCURVE",
"201 686 OFFCURVE",
"236 715 OFFCURVE",
"278 715 OFFCURVE",
"301 686 OFFCURVE",
"297 665 QCURVE"
);
},
{
closed = 1;
nodes = (
"162 68 OFFCURVE",
"153 26 OFFCURVE",
"118 -3 OFFCURVE",
"76 -3 OFFCURVE",
"53 26 OFFCURVE",
"62 68 OFFCURVE",
"97 97 OFFCURVE",
"139 97 OFFCURVE",
"150 82 QCURVE"
);
}
);
width = 211;
},
{
layerId = "3644BD71-2ABE-4F7E-A414-48DBC1C300FF";
paths = (
{
closed = 1;
nodes = (
"254 226 LINE",
"247 197 OFFCURVE",
"199 156 OFFCURVE",
"140 155 OFFCURVE",
"108 195 OFFCURVE",
"113 224 QCURVE",
"200 634 LINE",
"206 663 OFFCURVE",
"256 704 OFFCURVE",
"314 704 OFFCURVE",
"346 663 OFFCURVE",
"340 634 QCURVE"
);
},
{
closed = 1;
nodes = (
"222 76 OFFCURVE",
"209 18 OFFCURVE",
"160 -23 OFFCURVE",
"102 -23 OFFCURVE",
"69 18 OFFCURVE",
"82 76 OFFCURVE",
"131 117 OFFCURVE",
"189 117 OFFCURVE",
"205 96 QCURVE"
);
}
);
width = 273;
}
);
unicode = 0021;
},
{
glyphname = quotedbl;
lastChange = "2019-10-09 23:07:58 +0000";
layers = (
{
layerId = UUID0;
paths = (
{
closed = 1;
nodes = (
"260 505 OFFCURVE",
"253 478 QCURVE",
"248 457 OFFCURVE",
"212 429 OFFCURVE",
"170 431 OFFCURVE",
"148 461 OFFCURVE",
"154 482 QCURVE",
"160 507 OFFCURVE",
"196 674 QCURVE",
"200 695 OFFCURVE",
"235 724 OFFCURVE",
"277 724 OFFCURVE",
"300 695 OFFCURVE",
"296 674 QCURVE"
);
},
{
closed = 1;
nodes = (
"453 652 OFFCURVE",
"412 479 QCURVE",
"408 458 OFFCURVE",
"372 430 OFFCURVE",
"330 430 OFFCURVE",
"308 460 OFFCURVE",
"313 481 QCURVE",
"354 657 OFFCURVE",
"365 695 QCURVE",
"372 716 OFFCURVE",
"409 743 OFFCURVE",
"450 739 OFFCURVE",
"470 707 OFFCURVE",
"464 687 QCURVE"
);
}
);
width = 373;
},
{
layerId = "3644BD71-2ABE-4F7E-A414-48DBC1C300FF";
paths = (
{
closed = 1;
nodes = (
"477 566 OFFCURVE",
"455 472 QCURVE",
"448 444 OFFCURVE",
"397 404 OFFCURVE",
"341 405 OFFCURVE",
"310 447 OFFCURVE",
"316 476 QCURVE",
"337 566 OFFCURVE",
"352 642 QCURVE",
"358 671 OFFCURVE",
"407 712 OFFCURVE",
"465 713 OFFCURVE",
"498 673 OFFCURVE",
"492 644 QCURVE"
);
},
{
closed = 1;
nodes = (
"312 563 OFFCURVE",
"290 469 QCURVE",
"283 441 OFFCURVE",
"233 401 OFFCURVE",
"176 402 OFFCURVE",
"145 444 OFFCURVE",
"151 473 QCURVE",
"172 563 OFFCURVE",
"187 639 QCURVE",
"193 668 OFFCURVE",
"242 709 OFFCURVE",
"300 710 OFFCURVE",
"333 670 OFFCURVE",
"328 641 QCURVE"
);
}
);
width = 373;
}
);
unicode = 0022;
},
{
glyphname = numbersign;
lastChange = "2019-10-09 23:07:58 +0000";
layers = (
{
layerId = UUID0;
paths = (
{
closed = 1;
nodes = (
"504 584 OFFCURVE",
"516 634 QCURVE",
"522 655 OFFCURVE",
"559 683 OFFCURVE",
"599 681 OFFCURVE",
"621 650 OFFCURVE",
"615 630 QCURVE",
"603 581 OFFCURVE",
"589 520 QCURVE",
"655 518 LINE",
"675 517 OFFCURVE",
"697 487 OFFCURVE",
"686 445 OFFCURVE",
"650 417 OFFCURVE",
"629 418 QCURVE",
"566 420 LINE",
"556 374 OFFCURVE",
"550 349 QCURVE",
"542 314 OFFCURVE",
"535 285 QCURVE",
"605 283 LINE",
"624 282 OFFCURVE",
"647 252 OFFCURVE",
"636 211 OFFCURVE",
"600 182 OFFCURVE",
"579 183 QCURVE",
"510 185 LINE",
"493 119 OFFCURVE",
"475 64 QCURVE",
"469 43 OFFCURVE",
"430 17 OFFCURVE",
"390 21 OFFCURVE",
"371 54 OFFCURVE",
"377 74 QCURVE",
"394 127 OFFCURVE",
"410 186 QCURVE",
"356 186 OFFCURVE",
"304 185 QCURVE",
"287 125 OFFCURVE",
"271 72 QCURVE",
"264 51 OFFCURVE",
"227 25 OFFCURVE",
"186 29 OFFCURVE",
"166 61 OFFCURVE",
"173 82 QCURVE",
"188 128 OFFCURVE",
"203 182 QCURVE",
"174 181 OFFCURVE",
"145 179 QCURVE",
"123 178 OFFCURVE",
"98 205 OFFCURVE",
"105 247 OFFCURVE",
"139 278 OFFCURVE",
"160 279 QCURVE",
"194 281 OFFCURVE",
"230 282 QCURVE",
"249 356 LINE",
"258 389 OFFCURVE",
"265 414 QCURVE",
"229 413 LINE",
"208 412 OFFCURVE",
"184 441 OFFCURVE",
"191 482 OFFCURVE",
"226 512 OFFCURVE",
"247 513 QCURVE",
"294 515 LINE",
"313 581 OFFCURVE",
"332 636 QCURVE",
"339 656 OFFCURVE",
"377 681 OFFCURVE",
"417 676 OFFCURVE",
"435 643 OFFCURVE",
"429 622 QCURVE",
"411 573 OFFCURVE",
"395 518 QCURVE",
"447 519 OFFCURVE",
"489 520 QCURVE"
);
},
{
closed = 1;
nodes = (
"423 419 OFFCURVE",
"366 418 QCURVE",
"359 391 OFFCURVE",
"348 351 QCURVE",
"331 285 LINE",
"382 286 OFFCURVE",
"435 286 QCURVE",
"442 314 OFFCURVE",
"450 351 QCURVE",
"456 375 OFFCURVE",
"466 420 QCURVE"
);
}
);
width = 643;
},
{
layerId = "3644BD71-2ABE-4F7E-A414-48DBC1C300FF";
paths = (
{
closed = 1;
nodes = (
"505 592 OFFCURVE",
"516 635 QCURVE",
"525 664 OFFCURVE",
"575 703 OFFCURVE",
"632 700 OFFCURVE",
"662 658 OFFCURVE",
"655 629 QCURVE",
"644 588 OFFCURVE",
"633 539 QCURVE",
"657 538 OFFCURVE",
"679 538 QCURVE",
"708 537 OFFCURVE",
"739 495 OFFCURVE",
"724 437 OFFCURVE",
"674 397 OFFCURVE",
"645 398 QCURVE",
"623 399 OFFCURVE",
"601 399 QCURVE",
"594 370 OFFCURVE",
"590 349 QCURVE",
"585 325 OFFCURVE",
"579 304 QCURVE",
"604 303 OFFCURVE",
"628 303 QCURVE",
"657 302 OFFCURVE",
"688 261 OFFCURVE",
"675 203 OFFCURVE",
"624 163 OFFCURVE",
"596 163 QCURVE",
"570 164 OFFCURVE",
"544 164 QCURVE",
"529 111 OFFCURVE",
"514 62 QCURVE",
"505 33 OFFCURVE",
"453 -3 OFFCURVE",
"396 3 OFFCURVE",
"369 47 OFFCURVE",
"379 76 QCURVE",
"392 119 OFFCURVE",
"404 164 QCURVE",
"338 164 LINE",
"323 112 OFFCURVE",
"309 69 QCURVE",
"300 40 OFFCURVE",
"247 4 OFFCURVE",
"191 11 OFFCURVE",
"164 56 OFFCURVE",
"175 85 QCURVE",
"186 121 OFFCURVE",
"198 160 QCURVE",
"179 160 OFFCURVE",
"159 159 QCURVE",
"130 158 OFFCURVE",
"97 198 OFFCURVE",
"107 256 OFFCURVE",
"156 298 OFFCURVE",
"185 299 QCURVE",
"212 300 OFFCURVE",
"236 300 QCURVE",
"250 357 LINE",
"260 394 LINE",
"252 393 OFFCURVE",
"244 393 QCURVE",
"215 393 OFFCURVE",
"183 433 OFFCURVE",
"194 491 OFFCURVE",
"243 532 OFFCURVE",
"272 533 QCURVE",
"300 533 LINE",
"315 587 OFFCURVE",
"333 638 QCURVE",
"343 667 OFFCURVE",
"397 702 OFFCURVE",
"452 694 OFFCURVE",
"477 648 OFFCURVE",
"467 620 QCURVE",
"454 580 OFFCURVE",
"441 537 QCURVE",
"470 538 OFFCURVE",
"493 538 QCURVE"
);
},
{
closed = 1;
nodes = (
"435 398 OFFCURVE",
"401 397 QCURVE",
"389 350 LINE",
"376 303 LINE",
"408 304 OFFCURVE",
"440 304 QCURVE",
"450 351 LINE",
"455 371 OFFCURVE",
"461 399 QCURVE"
);
}
);
width = 643;
}
);
unicode = 0023;
},
{
glyphname = dollar;
lastChange = "2019-10-09 23:07:58 +0000";
layers = (
{
layerId = UUID0;
paths = (
{
closed = 1;
nodes = (
"447 100 OFFCURVE",
"531 148 OFFCURVE",
"545 174 QCURVE",
"558 200 OFFCURVE",
"555 230 OFFCURVE",
"541 245 QCURVE",
"514 270 OFFCURVE",
"437 301 QCURVE",
"411 173 OFFCURVE",
"391 89 QCURVE"
);
},
{
closed = 1;
nodes = (
"352 633 OFFCURVE",
"315 608 QCURVE",
"276 583 OFFCURVE",
"271 536 QCURVE",
"267 499 OFFCURVE",
"319 467 QCURVE",
"338 455 OFFCURVE",
"367 443 QCURVE",
"390 557 OFFCURVE",
"409 636 QCURVE"
);
},
{
closed = 1;
nodes = (
"597 517 OFFCURVE",
"600 528 QCURVE",
"601 532 LINE",
"602 540 LINE",
"603 544 LINE",
"596 571 OFFCURVE",
"544 613 OFFCURVE",
"506 625 QCURVE",
"487 542 OFFCURVE",
"459 407 QCURVE",
"468 403 LINE",
"580 361 OFFCURVE",
"620 322 QCURVE",
"693 250 OFFCURVE",
"633 142 QCURVE",
"598 79 OFFCURVE",
"447 -1 OFFCURVE",
"366 -14 QCURVE",
"356 -55 OFFCURVE",
"345 -93 QCURVE",
"338 -113 OFFCURVE",
"302 -140 OFFCURVE",
"261 -137 OFFCURVE",
"241 -106 OFFCURVE",
"246 -85 QCURVE",
"265 -17 LINE",
"143 -4 OFFCURVE",
"117 82 QCURVE",
"112 99 OFFCURVE",
"107 143 OFFCURVE",
"107 191 OFFCURVE",
"106 196 QCURVE",
"104 216 OFFCURVE",
"132 252 OFFCURVE",
"175 264 OFFCURVE",
"206 244 OFFCURVE",
"208 224 QCURVE",
"209 206 OFFCURVE",
"210 166 OFFCURVE",
"211 140 OFFCURVE",
"215 128 QCURVE",
"226 92 OFFCURVE",
"290 83 QCURVE",
"300 127 OFFCURVE",
"343 327 QCURVE",
"345 336 LINE",
"286 359 OFFCURVE",
"252 379 QCURVE",
"158 437 OFFCURVE",
"169 526 QCURVE",
"182 629 OFFCURVE",
"271 687 QCURVE",
"339 733 OFFCURVE",
"434 737 QCURVE",
"436 745 LINE",
"441 766 OFFCURVE",
"478 794 OFFCURVE",
"519 792 OFFCURVE",
"540 761 OFFCURVE",
"535 741 QCURVE",
"531 727 LINE",
"595 712 OFFCURVE",
"688 641 OFFCURVE",
"702 588 QCURVE",
"707 569 OFFCURVE",
"703 544 QCURVE",
"700 530 LINE",
"699 525 OFFCURVE",
"699 522 QCURVE",
"697 501 OFFCURVE",
"665 469 OFFCURVE",
"622 464 OFFCURVE",
"595 489 OFFCURVE",
"597 510 QCURVE"
);
}
);
width = 662;
},
{
layerId = "3644BD71-2ABE-4F7E-A414-48DBC1C300FF";
paths = (
{
closed = 1;
nodes = (
"449 183 OFFCURVE",
"436 129 QCURVE",
"478 142 OFFCURVE",
"514 179 OFFCURVE",
"514 194 QCURVE",
"514 216 OFFCURVE",
"490 233 QCURVE",
"480 240 OFFCURVE",
"463 248 QCURVE"
);
},
{
closed = 1;
nodes = (
"380 565 LINE",
"335 555 OFFCURVE",
"309 524 QCURVE",
"289 502 OFFCURVE",
"300 478 QCURVE",
"307 460 OFFCURVE",
"349 443 QCURVE",
"356 440 OFFCURVE",
"364 437 QCURVE",
"392 567 LINE"
);
},
{
closed = 1;
nodes = (
"555 457 OFFCURVE",
"552 495 QCURVE",
"551 505 OFFCURVE",
"549 508 QCURVE",
"542 524 OFFCURVE",
"526 537 QCURVE",
"514 488 OFFCURVE",
"495 396 QCURVE",
"553 376 OFFCURVE",
"588 352 QCURVE",
"659 302 OFFCURVE",
"657 220 QCURVE",
"655 178 OFFCURVE",
"620 104 OFFCURVE",
"566 53 OFFCURVE",
"496 12 OFFCURVE",
"431 -11 OFFCURVE",
"399 -17 QCURVE",
"398 -17 LINE",
"389 -49 LINE",
"380 -78 OFFCURVE",
"328 -115 OFFCURVE",
"271 -110 OFFCURVE",
"243 -66 OFFCURVE",
"252 -37 QCURVE",
"257 -22 LINE",
"144 -5 OFFCURVE",
"111 71 QCURVE",
"98 97 OFFCURVE",
"97 139 QCURVE",
"96 164 LINE",
"97 176 OFFCURVE",
"95 183 QCURVE",
"93 211 OFFCURVE",
"130 262 OFFCURVE",
"190 279 OFFCURVE",
"235 253 OFFCURVE",
"238 225 QCURVE",
"239 213 OFFCURVE",
"239 195 QCURVE",
"240 194 OFFCURVE",
"240 176 OFFCURVE",
"240 171 QCURVE",
"240 154 OFFCURVE",
"243 147 QCURVE",
"252 128 OFFCURVE",
"294 118 QCURVE",
"312 189 OFFCURVE",
"333 291 QCURVE",
"295 303 OFFCURVE",
"270 313 QCURVE",
"190 346 OFFCURVE",
"166 402 QCURVE",
"145 456 OFFCURVE",
"170 556 OFFCURVE",
"208 601 QCURVE",
"241 639 OFFCURVE",
"331 691 OFFCURVE",
"379 701 QCURVE",
"404 706 OFFCURVE",
"429 708 QCURVE",
"441 729 OFFCURVE",
"485 755 OFFCURVE",
"508 754 QCURVE",
"534 753 OFFCURVE",
"564 716 OFFCURVE",
"561 690 QCURVE",
"646 659 OFFCURVE",
"680 588 QCURVE",
"691 567 OFFCURVE",
"694 534 QCURVE",
"694 532 OFFCURVE",
"695 510 OFFCURVE",
"696 503 QCURVE",
"700 476 OFFCURVE",
"664 423 OFFCURVE",
"606 404 OFFCURVE",
"558 428 OFFCURVE",
"554 455 QCURVE"
);
}
);
width = 662;
}
);
unicode = 0024;
},
{
glyphname = percent;
lastChange = "2019-10-09 23:07:58 +0000";
layers = (
{
layerId = UUID0;
paths = (
{
closed = 1;
nodes = (
"335 611 OFFCURVE",
"330 608 QCURVE",
"312 601 LINE",
"299 596 OFFCURVE",
"294 592 QCURVE",
"263 567 OFFCURVE",
"272 528 QCURVE",
"277 509 OFFCURVE",
"302 486 OFFCURVE",
"319 485 QCURVE",
"342 484 OFFCURVE",
"395 520 OFFCURVE",
"415 551 QCURVE",
"433 580 OFFCURVE",
"433 600 QCURVE",
"433 610 OFFCURVE",
"429 612 QCURVE",
"416 618 OFFCURVE",
"387 617 QCURVE",
"382 617 OFFCURVE",
"371 616 OFFCURVE",
"358 615 OFFCURVE",
"354 615 QCURVE",
"349 614 OFFCURVE",
"343 614 QCURVE"
);
},
{
closed = 1;
nodes = (
"317 715 OFFCURVE",
"342 714 QCURVE",
"352 714 OFFCURVE",
"369 715 QCURVE",
"404 717 LINE",
"453 719 OFFCURVE",
"485 706 QCURVE",
"538 683 OFFCURVE",
"536 617 QCURVE",
"533 569 OFFCURVE",
"499 513 QCURVE",
"465 459 OFFCURVE",
"355 382 OFFCURVE",
"293 385 QCURVE",
"245 387 OFFCURVE",
"181 445 OFFCURVE",
"172 488 QCURVE",
"165 516 OFFCURVE",
"174 576 OFFCURVE",
"209 639 OFFCURVE",
"240 664 QCURVE",
"259 680 OFFCURVE",
"290 693 QCURVE",
"297 696 LINE"
);
},
{
closed = 1;
nodes = (
"692 270 OFFCURVE",
"652 219 OFFCURVE",
"645 190 QCURVE",
"638 159 OFFCURVE",
"664 114 OFFCURVE",
"696 107 QCURVE",
"733 99 OFFCURVE",
"800 134 OFFCURVE",
"821 168 QCURVE",
"841 199 OFFCURVE",
"835 251 OFFCURVE",
"808 263 QCURVE",
"802 265 OFFCURVE",
"788 266 QCURVE",
"748 269 OFFCURVE",
"747 269 QCURVE",
"731 272 OFFCURVE",
"722 284 QCURVE"
);
},
{
closed = 1;
nodes = (
"850 362 OFFCURVE",
"866 355 QCURVE",
"901 340 OFFCURVE",
"937 286 OFFCURVE",
"941 224 OFFCURVE",
"923 159 OFFCURVE",
"905 129 QCURVE",
"866 66 OFFCURVE",
"729 -7 OFFCURVE",
"655 9 QCURVE",
"587 24 OFFCURVE",
"531 127 OFFCURVE",
"545 191 QCURVE",
"559 252 OFFCURVE",
"653 360 OFFCURVE",
"721 383 QCURVE",
"741 390 OFFCURVE",
"768 389 QCURVE",
"769 389 OFFCURVE",
"783 387 QCURVE",
"791 387 LINE",
"818 388 OFFCURVE",
"828 365 QCURVE"
);
},
{
closed = 1;
nodes = (
"709 541 LINE",
"547 336 LINE",
"417 166 LINE",
"399 142 OFFCURVE",
"350 84 QCURVE",
"312 39 OFFCURVE",
"293 11 QCURVE",
"281 -8 OFFCURVE",
"239 -22 OFFCURVE",
"204 -5 OFFCURVE",
"199 34 OFFCURVE",
"212 53 QCURVE",
"234 87 OFFCURVE",
"278 138 QCURVE",
"323 192 OFFCURVE",
"339 212 QCURVE",
"632 590 LINE",
"767 760 LINE",
"781 778 OFFCURVE",
"823 789 OFFCURVE",
"855 768 OFFCURVE",
"857 728 OFFCURVE",
"842 710 QCURVE"
);
}
);
width = 944;
},
{
layerId = "3644BD71-2ABE-4F7E-A414-48DBC1C300FF";
paths = (
{
closed = 1;
nodes = (
"358 570 OFFCURVE",
"345 563 QCURVE",
"325 551 LINE",
"313 544 LINE",
"297 523 OFFCURVE",
"309 498 QCURVE",
"320 477 OFFCURVE",
"339 483 QCURVE",
"352 487 OFFCURVE",
"385 522 OFFCURVE",
"394 545 QCURVE",
"400 563 OFFCURVE",
"398 572 QCURVE",
"396 577 OFFCURVE",
"385 580 QCURVE",
"376 578 LINE",
"372 577 OFFCURVE",
"366 575 QCURVE"
);
},
{
closed = 1;
nodes = (
"303 700 OFFCURVE",
"336 705 QCURVE",
"341 706 OFFCURVE",
"350 708 QCURVE",
"371 713 OFFCURVE",
"372 713 QCURVE",
"412 723 OFFCURVE",
"442 716 QCURVE",
"513 700 OFFCURVE",
"534 639 QCURVE",
"551 588 OFFCURVE",
"527 523 QCURVE",
"506 468 OFFCURVE",
"414 369 OFFCURVE",
"355 351 QCURVE",
"294 332 OFFCURVE",
"247 352 QCURVE",
"201 373 OFFCURVE",
"178 417 QCURVE",
"165 444 OFFCURVE",
"159 508 OFFCURVE",
"171 545 QCURVE",
"182 582 OFFCURVE",
"208 614 QCURVE",
"231 643 OFFCURVE",
"271 667 QCURVE",
"280 672 LINE"
);
},
{
closed = 1;
nodes = (
"708 206 OFFCURVE",
"698 165 OFFCURVE",
"719 136 OFFCURVE",
"737 136 QCURVE",
"745 136 OFFCURVE",
"775 152 OFFCURVE",
"788 166 QCURVE",
"804 184 OFFCURVE",
"796 195 QCURVE",
"794 198 OFFCURVE",
"782 202 QCURVE",
"731 220 LINE"
);
},
{
closed = 1;
nodes = (
"853 334 LINE",
"899 319 OFFCURVE",
"920 289 QCURVE",
"941 257 OFFCURVE",
"941 181 OFFCURVE",
"927 149 QCURVE",
"912 117 OFFCURVE",
"887 89 QCURVE",
"853 50 OFFCURVE",
"805 24 QCURVE",
"757 -3 OFFCURVE",
"710 -4 QCURVE",
"661 -4 OFFCURVE",
"591 34 OFFCURVE",
"560 94 OFFCURVE",
"559 172 OFFCURVE",
"587 248 OFFCURVE",
"646 318 OFFCURVE",
"686 340 QCURVE",
"712 354 OFFCURVE",
"746 361 QCURVE",
"766 365 LINE",
"773 366 OFFCURVE",
"778 367 QCURVE",
"802 374 OFFCURVE",
"842 356 OFFCURVE",
"850 336 QCURVE"
);
},
{
closed = 1;
nodes = (
"361 20 LINE",
"341 -6 OFFCURVE",
"283 -23 OFFCURVE",
"237 4 OFFCURVE",
"232 59 OFFCURVE",
"250 84 QCURVE",
"718 703 LINE",
"736 729 OFFCURVE",
"795 746 OFFCURVE",
"842 720 OFFCURVE",
"847 665 OFFCURVE",
"828 639 QCURVE"
);
}
);
width = 944;
}
);
unicode = 0025;
},
{
glyphname = ampersand;
lastChange = "2019-10-09 23:07:58 +0000";
layers = (
{
layerId = UUID0;
paths = (
{
closed = 1;
nodes = (
"270 316 OFFCURVE",
"258 302 QCURVE",
"191 228 OFFCURVE",
"187 168 QCURVE",
"185 110 OFFCURVE",
"259 102 QCURVE",
"296 98 OFFCURVE",
"376 120 OFFCURVE",
"401 139 QCURVE",
"407 143 OFFCURVE",
"412 148 QCURVE",
"355 220 LINE",
"311 279 OFFCURVE",
"283 329 QCURVE"
);
},
{
closed = 1;
nodes = (
"614 82 LINE",
"626 67 OFFCURVE",
"617 26 OFFCURVE",
"582 -4 OFFCURVE",
"541 -4 OFFCURVE",
"529 10 QCURVE",
"470 79 LINE",
"453 65 LINE",
"407 30 OFFCURVE",
"283 -3 OFFCURVE",
"228 3 QCURVE",
"164 9 OFFCURVE",
"82 83 OFFCURVE",
"86 152 QCURVE",
"91 252 OFFCURVE",
"187 359 QCURVE",
"213 388 OFFCURVE",
"245 417 QCURVE",
"235 449 OFFCURVE",
"232 478 QCURVE",
"227 535 OFFCURVE",
"256 586 QCURVE",
"286 636 OFFCURVE",
"335 669 QCURVE",
"382 701 OFFCURVE",
"483 717 OFFCURVE",
"529 693 QCURVE",
"575 665 OFFCURVE",
"576 616 QCURVE",
"578 570 OFFCURVE",
"537 521 QCURVE",
"516 496 OFFCURVE",
"461 461 QCURVE",
"450 453 OFFCURVE",
"428 440 QCURVE",
"399 422 LINE",
"384 412 OFFCURVE",
"370 401 QCURVE",
"396 351 OFFCURVE",
"442 289 QCURVE",
"483 237 LINE",
"524 302 LINE",
"536 321 OFFCURVE",
"578 336 OFFCURVE",
"613 320 OFFCURVE",
"619 281 OFFCURVE",
"607 262 QCURVE",
"601 254 OFFCURVE",
"590 236 QCURVE",
"568 198 LINE",
"556 180 OFFCURVE",
"544 164 QCURVE"
);
},
{
closed = 1;
nodes = (
"354 500 LINE",
"361 505 OFFCURVE",
"407 533 OFFCURVE",
"418 541 QCURVE",
"456 565 OFFCURVE",
"462 573 QCURVE",
"474 587 OFFCURVE",
"474 593 QCURVE",
"474 598 OFFCURVE",
"462 605 QCURVE",
"450 614 OFFCURVE",
"404 607 OFFCURVE",
"380 591 QCURVE",
"330 556 OFFCURVE",
"334 508 QCURVE",
"336 499 OFFCURVE",
"337 489 QCURVE"
);
}
);
width = 663;
},
{
layerId = "3644BD71-2ABE-4F7E-A414-48DBC1C300FF";
paths = (
{
closed = 1;
nodes = (
"244 250 OFFCURVE",
"234 225 QCURVE",
"217 179 OFFCURVE",
"218 177 QCURVE",
"221 163 OFFCURVE",
"277 139 OFFCURVE",
"325 136 OFFCURVE",
"356 150 OFFCURVE",
"373 164 QCURVE",
"376 165 LINE",
"336 217 LINE",
"305 260 OFFCURVE",
"282 297 QCURVE"
);
},
{
closed = 1;
nodes = (
"622 116 LINE",
"639 94 OFFCURVE",
"627 35 OFFCURVE",
"576 -8 OFFCURVE",
"518 -8 OFFCURVE",
"501 13 QCURVE",
"458 66 LINE",
"449 59 LINE",
"316 -47 OFFCURVE",
"167 17 QCURVE",
"94 50 OFFCURVE",
"77 113 QCURVE",
"73 126 OFFCURVE",
"73 156 OFFCURVE",
"76 180 OFFCURVE",
"84 210 OFFCURVE",
"90 225 OFFCURVE",
"95 237 QCURVE",
"99 248 LINE",
"129 327 OFFCURVE",
"224 424 QCURVE",
"216 454 OFFCURVE",
"217 481 QCURVE",
"216 573 OFFCURVE",
"276 640 QCURVE",
"326 698 OFFCURVE",
"401 717 QCURVE",
"469 735 OFFCURVE",
"521 715 QCURVE",
"551 704 OFFCURVE",
"593 655 OFFCURVE",
"591 615 QCURVE",
"589 561 OFFCURVE",
"536 504 QCURVE",
"505 473 OFFCURVE",
"453 435 QCURVE",
"434 420 OFFCURVE",
"405 401 QCURVE",
"424 367 OFFCURVE",
"460 317 QCURVE",
"478 292 LINE",
"498 321 LINE",
"516 349 OFFCURVE",
"575 370 OFFCURVE",
"624 346 OFFCURVE",
"632 290 OFFCURVE",
"615 263 QCURVE",
"582 213 OFFCURVE",
"563 186 QCURVE"
);
},
{
closed = 1;
nodes = (
"421 581 OFFCURVE",
"409 578 QCURVE",
"387 573 OFFCURVE",
"376 560 QCURVE",
"366 548 OFFCURVE",
"363 529 QCURVE",
"384 544 LINE",
"413 566 OFFCURVE",
"431 581 QCURVE"
);
}
);
width = 663;
}
);
unicode = 0026;
},
{
glyphname = quotesingle;
lastChange = "2019-10-09 23:07:58 +0000";
layers = (
{
layerId = UUID0;
paths = (
{
closed = 1;
nodes = (
"292 615 OFFCURVE",
"266 461 QCURVE",
"263 440 OFFCURVE",
"229 410 OFFCURVE",
"186 408 OFFCURVE",
"162 436 OFFCURVE",
"166 457 QCURVE",
"191 609 OFFCURVE",
"195 659 QCURVE",
"197 680 OFFCURVE",
"229 713 OFFCURVE",
"271 718 OFFCURVE",
"299 693 OFFCURVE",
"298 673 QCURVE"
);
}
);
width = 224;
},
{
layerId = "3644BD71-2ABE-4F7E-A414-48DBC1C300FF";
paths = (
{
closed = 1;
nodes = (
"162 514 OFFCURVE",
"192 657 QCURVE",
"198 684 OFFCURVE",
"245 723 OFFCURVE",
"299 723 OFFCURVE",
"330 684 OFFCURVE",
"324 657 QCURVE",
"295 518 OFFCURVE",
"283 440 QCURVE",
"279 413 OFFCURVE",
"256 392 QCURVE",
"234 372 OFFCURVE",
"179 368 OFFCURVE",
"146 405 OFFCURVE",
"149 432 QCURVE"
);
}
);
width = 224;
}
);
unicode = 0027;
},
{
glyphname = parenleft;
lastChange = "2019-10-09 23:07:58 +0000";
layers = (
{
layerId = UUID0;
paths = (
{
closed = 1;
nodes = (
"341 540 OFFCURVE",
"216 307 OFFCURVE",
"171 54 OFFCURVE",
"206 -47 QCURVE",
"209 -59 OFFCURVE",
"219 -81 OFFCURVE",
"236 -111 OFFCURVE",
"241 -124 QCURVE",
"249 -139 OFFCURVE",
"233 -178 OFFCURVE",
"193 -198 OFFCURVE",
"154 -191 OFFCURVE",
"147 -174 QCURVE",
"134 -152 LINE",
"119 -120 LINE",
"112 -103 OFFCURVE",
"106 -91 QCURVE",
"76 1 OFFCURVE",
"91 214 OFFCURVE",
"169 419 OFFCURVE",
"284 610 OFFCURVE",
"359 694 QCURVE",
"373 712 OFFCURVE",
"416 720 OFFCURVE",
"446 700 OFFCURVE",
"447 662 OFFCURVE",
"433 646 QCURVE"
);
}
);
width = 359;
},
{
layerId = "3644BD71-2ABE-4F7E-A414-48DBC1C300FF";
paths = (
{
closed = 1;
nodes = (
"383 533 OFFCURVE",
"340 461 QCURVE",
"296 385 OFFCURVE",
"235 227 OFFCURVE",
"215 68 OFFCURVE",
"229 -1 QCURVE",
"233 -20 OFFCURVE",
"244 -49 QCURVE",
"265 -105 LINE",
"274 -131 OFFCURVE",
"246 -186 OFFCURVE",
"189 -214 OFFCURVE",
"137 -198 OFFCURVE",
"129 -173 QCURVE",
"122 -156 LINE",
"115 -136 LINE",
"111 -126 OFFCURVE",
"109 -119 QCURVE",
"95 -83 OFFCURVE",
"90 -55 QCURVE",
"71 34 OFFCURVE",
"95 233 OFFCURVE",
"171 424 OFFCURVE",
"221 510 QCURVE",
"271 596 OFFCURVE",
"333 677 QCURVE",
"353 702 OFFCURVE",
"412 718 OFFCURVE",
"456 690 OFFCURVE",
"460 634 OFFCURVE",
"441 609 QCURVE"
);
}
);
width = 359;
}
);
unicode = 0028;
},
{
glyphname = parenright;
lastChange = "2019-10-09 23:07:58 +0000";
layers = (
{
layerId = UUID0;
paths = (
{
closed = 1;
nodes = (
"425 470 OFFCURVE",
"373 259 QCURVE",
"321 58 OFFCURVE",
"108 -173 QCURVE",
"92 -189 OFFCURVE",
"51 -197 OFFCURVE",
"20 -176 OFFCURVE",
"20 -139 OFFCURVE",
"34 -123 QCURVE",
"228 88 OFFCURVE",
"273 263 QCURVE",
"319 445 OFFCURVE",
"221 649 QCURVE",
"214 665 OFFCURVE",
"231 702 OFFCURVE",
"270 722 OFFCURVE",
"308 714 OFFCURVE",
"316 698 QCURVE"
);
}
);
width = 368;
},
{
layerId = "3644BD71-2ABE-4F7E-A414-48DBC1C300FF";
paths = (
{
closed = 1;
nodes = (
"378 547 OFFCURVE",
"387 346 OFFCURVE",
"363 248 QCURVE",
"339 153 OFFCURVE",
"236 -44 OFFCURVE",
"153 -164 QCURVE",
"134 -190 OFFCURVE",
"76 -209 OFFCURVE",
"29 -184 OFFCURVE",
"22 -130 OFFCURVE",
"39 -104 QCURVE",
"117 7 OFFCURVE",
"206 177 OFFCURVE",
"224 253 QCURVE",
"262 403 OFFCURVE",
"207 605 QCURVE",
"201 631 OFFCURVE",
"231 685 OFFCURVE",
"288 710 OFFCURVE",
"338 691 OFFCURVE",
"346 665 QCURVE"
);
}
);
width = 368;
}
);
unicode = 0029;
},
{
glyphname = asterisk;
lastChange = "2019-10-09 23:07:58 +0000";
layers = (
{
layerId = UUID0;
paths = (
{
closed = 1;
nodes = (
"301 600 OFFCURVE",
"306 597 QCURVE",
"314 593 LINE",
"314 597 OFFCURVE",
"331 671 QCURVE",
"335 691 OFFCURVE",
"372 720 OFFCURVE",
"413 720 OFFCURVE",
"435 690 OFFCURVE",
"431 669 QCURVE",
"427 652 OFFCURVE",
"420 622 OFFCURVE",
"418 615 QCURVE",
"416 603 LINE",
"468 620 LINE",
"490 626 OFFCURVE",
"523 607 OFFCURVE",
"527 568 OFFCURVE",
"500 531 OFFCURVE",
"480 524 QCURVE",
"417 505 OFFCURVE",
"416 505 QCURVE",
"490 421 LINE",
"502 407 OFFCURVE",
"493 365 OFFCURVE",
"459 335 OFFCURVE",
"417 335 OFFCURVE",
"405 349 QCURVE",
"328 437 LINE",
"251 368 LINE",
"234 353 OFFCURVE",
"192 351 OFFCURVE",
"167 379 OFFCURVE",
"174 420 OFFCURVE",
"191 436 QCURVE",
"260 498 LINE",
"252 503 OFFCURVE",
"248 505 QCURVE",
"247 505 OFFCURVE",
"195 522 QCURVE",
"177 528 OFFCURVE",
"166 565 OFFCURVE",
"186 605 OFFCURVE",
"227 624 OFFCURVE",
"246 618 QCURVE"
);
}
);
width = 467;
},
{
layerId = "3644BD71-2ABE-4F7E-A414-48DBC1C300FF";
paths = (
{
closed = 1;
nodes = (
"301 373 LINE",
"278 350 OFFCURVE",
"219 345 OFFCURVE",
"181 381 OFFCURVE",
"185 410 QCURVE",
"189 439 OFFCURVE",
"211 461 QCURVE",
"238 487 LINE",
"203 501 LINE",
"178 510 OFFCURVE",
"165 563 OFFCURVE",
"196 617 OFFCURVE",
"254 641 OFFCURVE",
"279 631 QCURVE",
"304 622 LINE",
"309 653 LINE",
"315 682 OFFCURVE",
"364 723 OFFCURVE",
"422 724 OFFCURVE",
"455 684 OFFCURVE",
"450 655 QCURVE",
"446 639 LINE",
"461 644 LINE",
"491 652 OFFCURVE",
"537 626 OFFCURVE",
"542 570 OFFCURVE",
"505 519 OFFCURVE",
"475 510 QCURVE",
"504 480 LINE",
"520 460 OFFCURVE",
"511 403 OFFCURVE",
"463 360 OFFCURVE",
"405 357 OFFCURVE",
"387 376 QCURVE",
"349 419 LINE"
);
}
);
width = 467;
}
);
unicode = 002A;
},
{
glyphname = plus;
lastChange = "2019-10-09 23:07:58 +0000";
layers = (
{
layerId = UUID0;
paths = (
{
closed = 1;
nodes = (
"454 415 OFFCURVE",
"434 324 QCURVE",
"534 324 OFFCURVE",
"609 322 QCURVE",
"630 321 OFFCURVE",
"652 292 OFFCURVE",
"642 250 OFFCURVE",
"606 222 OFFCURVE",
"586 222 QCURVE",
"512 224 OFFCURVE",
"414 224 QCURVE",
"390 102 OFFCURVE",
"380 52 QCURVE",
"375 31 OFFCURVE",
"340 2 OFFCURVE",
"298 2 OFFCURVE",
"275 31 OFFCURVE",
"280 52 QCURVE",
"290 102 OFFCURVE",
"314 223 QCURVE",
"195 222 OFFCURVE",
"148 222 QCURVE",
"127 222 OFFCURVE",
"104 251 OFFCURVE",
"113 293 OFFCURVE",
"148 322 OFFCURVE",
"169 322 QCURVE",
"216 322 OFFCURVE",
"334 323 QCURVE",
"354 417 OFFCURVE",
"371 488 QCURVE",
"376 508 OFFCURVE",
"413 537 OFFCURVE",
"453 535 OFFCURVE",
"476 505 OFFCURVE",
"470 484 QCURVE"
);
}
);
width = 641;
},
{
layerId = "3644BD71-2ABE-4F7E-A414-48DBC1C300FF";
paths = (
{
closed = 1;
nodes = (
"454 389 OFFCURVE",
"442 334 QCURVE",
"572 332 LINE",
"601 331 OFFCURVE",
"631 289 OFFCURVE",
"618 231 OFFCURVE",
"567 192 OFFCURVE",
"538 192 QCURVE",
"472 194 OFFCURVE",
"414 195 QCURVE",
"399 121 OFFCURVE",
"390 77 QCURVE",
"384 48 OFFCURVE",
"334 7 OFFCURVE",
"276 7 OFFCURVE",
"244 48 OFFCURVE",
"250 77 QCURVE",
"275 195 LINE",
"227 194 OFFCURVE",
"164 192 QCURVE",
"135 191 OFFCURVE",
"102 231 OFFCURVE",
"112 289 OFFCURVE",
"161 331 OFFCURVE",
"190 332 QCURVE",
"303 334 LINE",
"325 436 LINE",
"332 465 OFFCURVE",
"382 505 OFFCURVE",
"440 504 OFFCURVE",
"471 463 OFFCURVE",
"465 434 QCURVE"
);
}
);
width = 641;
}
);
unicode = 002B;
},
{
glyphname = comma;
lastChange = "2019-10-09 23:07:58 +0000";
layers = (
{
layerId = UUID0;
paths = (
{
closed = 1;
nodes = (
"205 -41 OFFCURVE",
"194 -77 QCURVE",
"180 -121 OFFCURVE",
"137 -176 QCURVE",
"123 -195 OFFCURVE",
"81 -206 OFFCURVE",
"48 -186 OFFCURVE",
"45 -146 OFFCURVE",
"59 -128 QCURVE",
"89 -90 OFFCURVE",
"96 -66 QCURVE",
"103 -45 OFFCURVE",
"105 6 QCURVE",
"105 26 OFFCURVE",
"135 60 OFFCURVE",
"178 68 OFFCURVE",
"207 45 OFFCURVE",
"207 24 QCURVE"
);
}
);
width = 278;
},
{
layerId = "3644BD71-2ABE-4F7E-A414-48DBC1C300FF";
paths = (
{
closed = 1;
nodes = (
"257 -24 OFFCURVE",
"248 -42 QCURVE",
"237 -64 LINE",
"234 -69 OFFCURVE",
"226 -83 OFFCURVE",
"217 -95 OFFCURVE",
"208 -109 OFFCURVE",
"197 -125 QCURVE",
"174 -158 LINE",
"157 -183 OFFCURVE",
"101 -201 OFFCURVE",
"57 -178 OFFCURVE",
"50 -126 OFFCURVE",
"66 -102 QCURVE",
"92 -64 LINE",
"104 -47 OFFCURVE",
"109 -41 OFFCURVE",
"114 -32 QCURVE",
"121 -20 LINE",
"123 -18 OFFCURVE",
"132 -1 QCURVE",
"150 33 LINE",
"164 59 OFFCURVE",
"218 83 OFFCURVE",
"267 66 OFFCURVE",
"280 17 OFFCURVE",
"267 -9 QCURVE"
);
}
);
width = 278;
}
);
unicode = 002C;
},
{
glyphname = hyphen;
lastChange = "2019-10-09 23:07:58 +0000";
layers = (
{
layerId = UUID0;
paths = (
{
closed = 1;
nodes = (
"196 328 OFFCURVE",
"312 332 OFFCURVE",
"354 334 OFFCURVE",
"380 306 OFFCURVE",
"373 265 OFFCURVE",
"338 234 OFFCURVE",
"318 233 QCURVE",
"296 232 OFFCURVE",
"183 228 OFFCURVE",
"152 226 QCURVE",
"130 225 OFFCURVE",
"105 252 OFFCURVE",
"111 293 OFFCURVE",
"144 324 OFFCURVE",
"165 326 QCURVE"
);
}
);
width = 366;
},
{
layerId = "3644BD71-2ABE-4F7E-A414-48DBC1C300FF";
paths = (
{
closed = 1;
nodes = (
"359 340 LINE",
"388 340 OFFCURVE",
"420 299 OFFCURVE",
"408 241 OFFCURVE",
"358 200 OFFCURVE",
"329 200 QCURVE",
"162 200 LINE",
"133 200 OFFCURVE",
"101 241 OFFCURVE",
"113 299 OFFCURVE",
"163 340 OFFCURVE",
"192 340 QCURVE"
);
}
);
width = 407;
}
);
unicode = 002D;
},
{
glyphname = period;
lastChange = "2019-10-09 23:07:58 +0000";
layers = (
{
layerId = UUID0;
paths = (
{
closed = 1;
nodes = (
"165 72 OFFCURVE",
"156 30 OFFCURVE",
"121 1 OFFCURVE",
"79 1 OFFCURVE",
"56 30 OFFCURVE",
"65 72 OFFCURVE",
"100 101 OFFCURVE",
"142 101 OFFCURVE",
"153 86 QCURVE"
);
}
);
width = 200;
},
{
layerId = "3644BD71-2ABE-4F7E-A414-48DBC1C300FF";
paths = (
{
closed = 1;
nodes = (
"211 100 OFFCURVE",
"198 42 OFFCURVE",
"149 1 OFFCURVE",
"91 1 OFFCURVE",
"58 42 OFFCURVE",
"71 100 OFFCURVE",
"120 141 OFFCURVE",
"178 141 OFFCURVE",
"194 120 QCURVE"
);
}
);
width = 240;
}
);
unicode = 002E;
},
{
glyphname = slash;
lastChange = "2019-10-09 23:07:58 +0000";
layers = (
{
layerId = UUID0;
paths = (
{
closed = 1;
nodes = (
"275 250 OFFCURVE",
"157 36 QCURVE",
"147 17 OFFCURVE",
"106 -2 OFFCURVE",
"70 11 OFFCURVE",
"59 48 OFFCURVE",
"70 68 QCURVE",
"155 224 OFFCURVE",
"426 694 QCURVE",
"436 714 OFFCURVE",
"477 734 OFFCURVE",
"514 722 OFFCURVE",
"526 686 OFFCURVE",
"516 666 QCURVE"
);
}
);
width = 429;
},
{
layerId = "3644BD71-2ABE-4F7E-A414-48DBC1C300FF";
paths = (
{
closed = 1;
nodes = (
"201 48 LINE",
"187 20 OFFCURVE",
"131 -8 OFFCURVE",
"78 8 OFFCURVE",
"61 58 OFFCURVE",
"75 86 QCURVE",
"411 672 LINE",
"424 700 OFFCURVE",
"480 731 OFFCURVE",
"533 717 OFFCURVE",
"553 668 OFFCURVE",
"541 640 QCURVE"
);
}
);
width = 429;
}
);
unicode = 002F;
},
{
glyphname = zero;
lastChange = "2019-10-09 23:07:58 +0000";
layers = (
{
layerId = UUID0;
paths = (
{
closed = 1;
nodes = (
"384 604 OFFCURVE",
"383 604 QCURVE",
"315 566 OFFCURVE",
"223 383 OFFCURVE",
"220 283 QCURVE",
"217 185 OFFCURVE",
"256 135 QCURVE",
"294 86 OFFCURVE",
"365 103 QCURVE",
"419 116 OFFCURVE",
"465 186 QCURVE",
"512 258 OFFCURVE",
"533 358 QCURVE",
"552 456 OFFCURVE",
"537 528 QCURVE",
"522 594 OFFCURVE",
"486 602 QCURVE",
"471 605 OFFCURVE",
"460 604 OFFCURVE",
"422 601 OFFCURVE",
"404 601 QCURVE",
"394 601 OFFCURVE",
"385 605 QCURVE"
);
},
{
closed = 1;
nodes = (
"477 704 OFFCURVE",
"521 700 OFFCURVE",
"529 700 QCURVE",
"611 680 OFFCURVE",
"636 568 QCURVE",
"657 476 OFFCURVE",
"633 358 QCURVE",
"608 236 OFFCURVE",
"547 145 QCURVE",
"472 31 OFFCURVE",
"369 7 QCURVE",
"239 -25 OFFCURVE",
"170 64 QCURVE",
"114 137 OFFCURVE",
"118 266 QCURVE",
"118 320 OFFCURVE",
"152 445 OFFCURVE",
"204 557 OFFCURVE",
"293 658 OFFCURVE",
"347 688 QCURVE",
"356 693 OFFCURVE",
"380 702 OFFCURVE",
"389 705 QCURVE",
"408 711 LINE",
"416 713 OFFCURVE",
"417 713 QCURVE",
"447 723 OFFCURVE",
"465 703 QCURVE"
);
}
);
width = 609;
},
{
layerId = "3644BD71-2ABE-4F7E-A414-48DBC1C300FF";
paths = (
{
closed = 1;
nodes = (
"398 568 OFFCURVE",
"395 565 QCURVE",
"352 533 OFFCURVE",
"278 393 OFFCURVE",
"268 316 QCURVE",
"260 240 OFFCURVE",
"302 150 OFFCURVE",
"350 144 QCURVE",
"403 138 OFFCURVE",
"447 187 QCURVE",
"494 243 OFFCURVE",
"513 325 QCURVE",
"529 399 OFFCURVE",
"530 464 QCURVE",
"531 490 OFFCURVE",
"524 529 OFFCURVE",
"517 546 OFFCURVE",
"513 548 QCURVE",
"501 555 OFFCURVE",
"474 560 QCURVE",
"469 560 OFFCURVE",
"457 562 OFFCURVE",
"443 564 OFFCURVE",
"439 564 QCURVE",
"421 568 OFFCURVE",
"406 572 QCURVE"
);
},
{
closed = 1;
nodes = (
"519 708 OFFCURVE",
"526 707 QCURVE",
"579 697 OFFCURVE",
"611 678 QCURVE",
"678 633 OFFCURVE",
"677 495 QCURVE",
"676 414 OFFCURVE",
"656 323 QCURVE",
"627 196 OFFCURVE",
"546 103 QCURVE",
"499 48 OFFCURVE",
"436 19 QCURVE",
"373 -12 OFFCURVE",
"303 -3 QCURVE",
"246 5 OFFCURVE",
"166 64 OFFCURVE",
"129 152 OFFCURVE",
"117 250 OFFCURVE",
"123 302 QCURVE",
"136 408 OFFCURVE",
"191 513 QCURVE",
"245 617 OFFCURVE",
"327 679 QCURVE",
"350 696 OFFCURVE",
"388 711 QCURVE",
"390 711 OFFCURVE",
"416 721 OFFCURVE",
"424 725 QCURVE",
"448 736 OFFCURVE",
"490 727 OFFCURVE",
"503 710 QCURVE"
);
}
);
width = 639;
}
);
unicode = 0030;
},
{
glyphname = one;
lastChange = "2019-10-09 23:07:58 +0000";
layers = (
{
layerId = UUID0;
paths = (
{
closed = 1;
nodes = (
"264 578 OFFCURVE",
"286 590 QCURVE",
"309 602 OFFCURVE",
"339 635 QCURVE",
"340 636 LINE",
"340 637 OFFCURVE",
"342 640 OFFCURVE",
"344 645 OFFCURVE",
"348 653 OFFCURVE",
"350 658 QCURVE",
"383 717 OFFCURVE",
"433 714 QCURVE",
"461 712 OFFCURVE",
"472 688 QCURVE",
"477 678 OFFCURVE",
"477 663 QCURVE",
"478 647 OFFCURVE",
"473 621 QCURVE",
"472 610 OFFCURVE",
"457 537 QCURVE",
"449 499 OFFCURVE",
"414 333 OFFCURVE",
"395 240 OFFCURVE",
"364 108 OFFCURVE",
"351 52 QCURVE",
"345 32 OFFCURVE",
"309 3 OFFCURVE",
"269 5 OFFCURVE",
"246 35 OFFCURVE",
"251 56 QCURVE",
"274 147 OFFCURVE",
"354 526 QCURVE",
"338 513 OFFCURVE",
"319 504 QCURVE",
"280 483 OFFCURVE",
"216 472 QCURVE",
"194 468 OFFCURVE",
"165 492 OFFCURVE",
"167 533 OFFCURVE",
"198 567 OFFCURVE",
"219 570 QCURVE"
);
}
);
width = 394;
},
{
layerId = "3644BD71-2ABE-4F7E-A414-48DBC1C300FF";
paths = (
{
closed = 1;
nodes = (
"253 427 LINE",
"226 411 OFFCURVE",
"171 422 OFFCURVE",
"149 470 OFFCURVE",
"173 527 OFFCURVE",
"200 543 QCURVE",
"235 563 LINE",
"255 574 OFFCURVE",
"266 581 OFFCURVE",
"287 596 OFFCURVE",
"295 604 QCURVE",
"314 625 LINE",
"322 631 OFFCURVE",
"325 649 QCURVE",
"338 675 OFFCURVE",
"353 691 QCURVE",
"390 729 OFFCURVE",
"437 726 QCURVE",
"473 723 OFFCURVE",
"485 691 QCURVE",
"488 683 OFFCURVE",
"489 674 QCURVE",
"489 669 OFFCURVE",
"488 655 OFFCURVE",
"487 646 QCURVE",
"485 631 OFFCURVE",
"479 604 QCURVE",
"472 565 OFFCURVE",
"457 491 QCURVE",
"382 131 OFFCURVE",
"366 64 QCURVE",
"359 35 OFFCURVE",
"308 -5 OFFCURVE",
"251 -3 OFFCURVE",
"220 39 OFFCURVE",
"227 68 QCURVE",
"250 164 OFFCURVE",
"310 460 QCURVE"
);
}
);
width = 405;
}
);
unicode = 0031;
},
{
glyphname = two;
lastChange = "2019-10-09 23:07:58 +0000";
layers = (
{
layerId = UUID0;
paths = (
{
closed = 1;
nodes = (
"187 498 OFFCURVE",
"190 506 OFFCURVE",
"192 517 OFFCURVE",
"194 520 QCURVE",
"201 545 OFFCURVE",
"212 562 QCURVE",
"255 635 OFFCURVE",
"404 715 OFFCURVE",
"475 713 QCURVE",
"552 710 OFFCURVE",
"636 605 OFFCURVE",
"615 513 QCURVE",
"599 449 OFFCURVE",
"514 371 QCURVE",
"467 328 OFFCURVE",
"361 250 QCURVE",
"251 170 OFFCURVE",
"222 146 QCURVE",
"196 124 OFFCURVE",
"184 109 QCURVE",
"182 108 OFFCURVE",
"182 106 QCURVE",
"184 104 OFFCURVE",
"187 103 QCURVE",
"194 103 LINE",
"208 103 OFFCURVE",
"235 104 QCURVE",
"247 104 OFFCURVE",
"279 105 OFFCURVE",
"298 106 OFFCURVE",
"301 106 QCURVE",
"412 108 OFFCURVE",
"561 98 QCURVE",
"582 97 OFFCURVE",
"602 65 OFFCURVE",
"592 24 OFFCURVE",
"554 -3 OFFCURVE",
"534 -2 QCURVE",
"388 8 OFFCURVE",
"282 6 QCURVE",
"279 6 OFFCURVE",
"260 5 OFFCURVE",
"228 4 OFFCURVE",
"216 4 QCURVE",
"190 3 OFFCURVE",
"175 3 QCURVE",
"165 2 OFFCURVE",
"160 3 QCURVE",
"153 3 LINE",
"145 3 OFFCURVE",
"137 6 QCURVE",
"114 16 OFFCURVE",
"76 57 OFFCURVE",
"77 89 QCURVE",
"79 123 OFFCURVE",
"110 161 QCURVE",
"129 185 OFFCURVE",
"165 216 QCURVE",
"195 240 OFFCURVE",
"311 325 QCURVE",
"409 397 OFFCURVE",
"453 437 QCURVE",
"508 488 OFFCURVE",
"515 515 QCURVE",
"526 564 OFFCURVE",
"489 611 OFFCURVE",
"451 613 QCURVE",
"409 614 OFFCURVE",
"322 567 OFFCURVE",
"296 526 QCURVE",
"294 522 OFFCURVE",
"291 512 QCURVE",
"283 481 OFFCURVE",
"283 480 QCURVE",
"275 460 OFFCURVE",
"237 435 OFFCURVE",
"197 440 OFFCURVE",
"179 473 OFFCURVE",
"186 494 QCURVE"
);
}
);
width = 636;
},
{
layerId = "3644BD71-2ABE-4F7E-A414-48DBC1C300FF";
paths = (
{
closed = 1;
nodes = (
"186 517 OFFCURVE",
"189 526 QCURVE",
"198 547 OFFCURVE",
"198 548 QCURVE",
"212 585 OFFCURVE",
"233 610 QCURVE",
"277 666 OFFCURVE",
"404 729 OFFCURVE",
"465 729 QCURVE",
"533 728 OFFCURVE",
"624 647 OFFCURVE",
"625 572 QCURVE",
"626 504 OFFCURVE",
"585 443 QCURVE",
"553 399 OFFCURVE",
"311 183 QCURVE",
"274 154 LINE",
"265 146 OFFCURVE",
"257 137 QCURVE",
"280 135 OFFCURVE",
"314 137 QCURVE",
"373 139 OFFCURVE",
"403 139 QCURVE",
"404 139 OFFCURVE",
"551 136 QCURVE",
"580 135 OFFCURVE",
"611 93 OFFCURVE",
"598 34 OFFCURVE",
"547 -6 OFFCURVE",
"519 -6 QCURVE",
"502 -5 OFFCURVE",
"443 -4 OFFCURVE",
"394 -3 OFFCURVE",
"373 -3 QCURVE",
"345 -3 OFFCURVE",
"289 -5 QCURVE",
"207 -8 OFFCURVE",
"162 4 QCURVE",
"96 22 OFFCURVE",
"88 77 QCURVE",
"79 126 OFFCURVE",
"123 182 QCURVE",
"149 213 OFFCURVE",
"458 486 OFFCURVE",
"471 505 QCURVE",
"481 520 OFFCURVE",
"481 539 QCURVE",
"481 586 OFFCURVE",
"434 586 QCURVE",
"409 586 OFFCURVE",
"357 560 OFFCURVE",
"339 538 QCURVE",
"336 534 OFFCURVE",
"330 522 QCURVE",
"329 519 OFFCURVE",
"327 513 OFFCURVE",
"324 506 OFFCURVE",
"323 503 QCURVE",
"313 477 LINE",
"299 449 OFFCURVE",
"243 418 OFFCURVE",
"191 433 OFFCURVE",
"170 483 OFFCURVE",
"183 512 QCURVE"
);
}
);
width = 636;
}
);
unicode = 0032;
},
{
glyphname = three;
lastChange = "2019-10-09 23:07:58 +0000";
layers = (
{
layerId = UUID0;
paths = (
{
closed = 1;
nodes = (
"180 541 OFFCURVE",
"203 576 OFFCURVE",
"213 590 OFFCURVE",
"234 616 OFFCURVE",
"259 639 OFFCURVE",
"277 651 QCURVE",
"327 688 OFFCURVE",
"444 720 OFFCURVE",
"496 712 QCURVE",
"552 704 OFFCURVE",
"630 631 OFFCURVE",
"636 569 QCURVE",
"647 466 OFFCURVE",
"537 384 QCURVE",
"536 383 LINE",
"541 379 LINE",
"581 350 OFFCURVE",
"616 256 OFFCURVE",
"591 189 QCURVE",
"566 121 OFFCURVE",
"452 31 OFFCURVE",
"385 13 QCURVE",
"325 -6 OFFCURVE",
"261 1 QCURVE",
"197 6 OFFCURVE",
"157 38 QCURVE",
"117 68 OFFCURVE",
"104 108 QCURVE",
"102 116 OFFCURVE",
"93 180 QCURVE",
"90 199 OFFCURVE",
"115 238 OFFCURVE",
"157 252 OFFCURVE",
"191 235 OFFCURVE",
"194 214 QCURVE",
"202 158 OFFCURVE",
"203 157 QCURVE",
"208 140 OFFCURVE",
"229 124 QCURVE",
"252 107 OFFCURVE",
"332 98 OFFCURVE",
"377 111 QCURVE",
"422 124 OFFCURVE",
"484 173 OFFCURVE",
"496 205 QCURVE",
"516 259 OFFCURVE",
"471 292 QCURVE",
"453 304 OFFCURVE",
"429 312 QCURVE",
"421 315 OFFCURVE",
"414 317 QCURVE",
"409 318 LINE",
"407 318 OFFCURVE",
"406 319 QCURVE",
"404 319 OFFCURVE",
"403 320 QCURVE",
"400 321 OFFCURVE",
"397 323 QCURVE",
"393 325 OFFCURVE",
"389 330 QCURVE",
"376 343 OFFCURVE",
"379 364 QCURVE",
"382 387 OFFCURVE",
"402 406 QCURVE",
"408 412 OFFCURVE",
"416 417 QCURVE",
"439 430 LINE",
"471 449 OFFCURVE",
"488 462 QCURVE",
"538 499 OFFCURVE",
"533 536 QCURVE",
"527 601 OFFCURVE",
"460 610 QCURVE",
"428 615 OFFCURVE",
"355 595 OFFCURVE",
"324 573 QCURVE",
"315 565 OFFCURVE",
"302 556 OFFCURVE",
"289 540 OFFCURVE",
"284 532 OFFCURVE",
"265 502 OFFCURVE",
"258 493 QCURVE",
"246 474 OFFCURVE",
"204 459 OFFCURVE",
"170 477 OFFCURVE",
"164 517 OFFCURVE",
"177 536 QCURVE"
);
}
);
width = 610;
},
{
layerId = "3644BD71-2ABE-4F7E-A414-48DBC1C300FF";
paths = (
{
closed = 1;
nodes = (
"199 620 OFFCURVE",
"205 626 QCURVE",
"218 642 LINE",
"243 670 OFFCURVE",
"268 685 QCURVE",
"333 723 OFFCURVE",
"462 731 OFFCURVE",
"555 687 OFFCURVE",
"583 647 QCURVE",
"631 580 OFFCURVE",
"608 500 QCURVE",
"593 443 OFFCURVE",
"544 400 QCURVE",
"616 339 OFFCURVE",
"600 234 QCURVE",
"590 160 OFFCURVE",
"553 114 QCURVE",
"513 63 OFFCURVE",
"393 6 OFFCURVE",
"270 -8 OFFCURVE",
"160 24 OFFCURVE",
"129 66 QCURVE",
"114 86 OFFCURVE",
"106 120 QCURVE",
"101 141 LINE",
"100 151 OFFCURVE",
"98 156 QCURVE",
"91 180 OFFCURVE",
"118 232 OFFCURVE",
"172 257 OFFCURVE",
"221 241 OFFCURVE",
"228 216 QCURVE",
"231 206 OFFCURVE",
"234 192 QCURVE",
"238 173 LINE",
"241 160 OFFCURVE",
"244 156 QCURVE",
"255 142 OFFCURVE",
"308 126 OFFCURVE",
"381 134 OFFCURVE",
"439 162 OFFCURVE",
"453 180 QCURVE",
"461 191 OFFCURVE",
"467 226 QCURVE",
"478 302 OFFCURVE",
"368 326 QCURVE",
"334 318 OFFCURVE",
"314 340 QCURVE",
"300 350 OFFCURVE",
"290 385 OFFCURVE",
"296 404 QCURVE",
"306 431 OFFCURVE",
"356 465 OFFCURVE",
"383 462 QCURVE",
"386 461 OFFCURVE",
"391 460 QCURVE",
"399 462 OFFCURVE",
"415 465 OFFCURVE",
"423 466 OFFCURVE",
"433 469 OFFCURVE",
"439 472 QCURVE",
"472 489 OFFCURVE",
"479 509 QCURVE",
"485 532 OFFCURVE",
"467 557 QCURVE",
"444 588 OFFCURVE",
"367 601 OFFCURVE",
"319 575 QCURVE",
"311 568 LINE",
"299 554 LINE",
"289 542 OFFCURVE",
"282 535 QCURVE",
"261 514 OFFCURVE",
"204 507 OFFCURVE",
"169 541 OFFCURVE",
"174 596 OFFCURVE",
"196 617 QCURVE"
);
}
);
width = 610;
}
);
unicode = 0033;
},
{
glyphname = four;
lastChange = "2019-10-09 23:07:58 +0000";
layers = (
{
layerId = UUID0;
paths = (
{
closed = 1;
nodes = (
"458 442 OFFCURVE",
"472 538 QCURVE",
"393 441 OFFCURVE",
"286 329 QCURVE",
"250 289 LINE",
"293 290 OFFCURVE",
"306 290 QCURVE",
"340 290 OFFCURVE",
"422 291 QCURVE"
);
},
{
closed = 1;
nodes = (
"580 533 OFFCURVE",
"522 291 QCURVE",
"578 291 OFFCURVE",
"622 290 QCURVE",
"643 290 OFFCURVE",
"665 260 OFFCURVE",
"656 218 OFFCURVE",
"620 190 OFFCURVE",
"599 190 QCURVE",
"554 191 OFFCURVE",
"499 191 QCURVE",
"481 120 OFFCURVE",
"465 43 QCURVE",
"460 23 OFFCURVE",
"424 -6 OFFCURVE",
"383 -6 OFFCURVE",
"361 24 OFFCURVE",
"365 45 QCURVE",
"382 124 OFFCURVE",
"398 191 QCURVE",
"319 190 OFFCURVE",
"285 190 QCURVE",
"270 190 OFFCURVE",
"201 188 OFFCURVE",
"187 188 QCURVE",
"158 189 OFFCURVE",
"141 195 QCURVE",
"99 210 OFFCURVE",
"105 253 QCURVE",
"111 290 OFFCURVE",
"151 323 QCURVE",
"157 328 OFFCURVE",
"168 336 OFFCURVE",
"173 339 OFFCURVE",
"176 343 OFFCURVE",
"179 345 QCURVE",
"219 387 LINE",
"374 552 OFFCURVE",
"478 692 QCURVE",
"488 706 OFFCURVE",
"519 720 OFFCURVE",
"533 719 QCURVE",
"535 719 LINE",
"557 723 OFFCURVE",
"586 699 OFFCURVE",
"585 679 QCURVE"
);
}
);
width = 661;
},
{
layerId = "3644BD71-2ABE-4F7E-A414-48DBC1C300FF";
paths = (
{
closed = 1;
nodes = (
"395 373 OFFCURVE",
"404 423 QCURVE",
"309 321 LINE",
"339 318 OFFCURVE",
"380 317 QCURVE",
"383 317 LINE"
);
},
{
closed = 1;
nodes = (
"454 694 OFFCURVE",
"495 725 OFFCURVE",
"519 727 QCURVE",
"548 730 OFFCURVE",
"585 693 OFFCURVE",
"581 664 QCURVE",
"563 509 OFFCURVE",
"523 319 QCURVE",
"593 322 OFFCURVE",
"595 322 QCURVE",
"624 322 OFFCURVE",
"656 281 OFFCURVE",
"644 223 OFFCURVE",
"594 182 OFFCURVE",
"565 182 QCURVE",
"563 182 OFFCURVE",
"493 180 QCURVE",
"486 146 OFFCURVE",
"468 68 QCURVE",
"461 39 OFFCURVE",
"411 -1 OFFCURVE",
"354 0 OFFCURVE",
"322 41 OFFCURVE",
"328 70 QCURVE",
"346 147 OFFCURVE",
"352 178 QCURVE",
"348 178 LINE",
"263 179 OFFCURVE",
"214 189 QCURVE",
"179 195 OFFCURVE",
"157 207 QCURVE",
"114 231 OFFCURVE",
"116 277 QCURVE",
"120 331 OFFCURVE",
"177 376 QCURVE",
"194 388 LINE",
"200 392 OFFCURVE",
"203 394 OFFCURVE",
"207 397 OFFCURVE",
"209 398 QCURVE",
"346 539 OFFCURVE",
"437 663 QCURVE",
"441 667 OFFCURVE",
"444 671 QCURVE"
);
}
);
width = 661;
}
);
unicode = 0034;
},
{
glyphname = five;
lastChange = "2019-10-09 23:07:58 +0000";
layers = (
{
layerId = UUID0;
paths = (
{
closed = 1;
nodes = (
"367 713 OFFCURVE",
"599 713 QCURVE",
"620 713 OFFCURVE",
"643 684 OFFCURVE",
"634 642 OFFCURVE",
"599 613 OFFCURVE",
"578 613 QCURVE",
"372 613 OFFCURVE",
"311 612 QCURVE",
"289 518 OFFCURVE",
"263 441 QCURVE",
"273 446 LINE",
"299 457 OFFCURVE",
"307 459 QCURVE",
"378 479 OFFCURVE",
"488 443 OFFCURVE",
"554 365 OFFCURVE",
"570 248 OFFCURVE",
"549 186 QCURVE",
"528 127 OFFCURVE",
"424 36 OFFCURVE",
"362 15 QCURVE",
"322 1 OFFCURVE",
"242 -5 OFFCURVE",
"165 20 OFFCURVE",
"140 49 QCURVE",
"122 70 OFFCURVE",
"112 106 QCURVE",
"106 131 LINE",
"103 143 OFFCURVE",
"100 150 QCURVE",
"93 168 OFFCURVE",
"113 208 OFFCURVE",
"153 229 OFFCURVE",
"191 218 OFFCURVE",
"197 200 QCURVE",
"202 189 OFFCURVE",
"205 173 QCURVE",
"211 150 LINE",
"217 130 OFFCURVE",
"224 123 QCURVE",
"241 103 OFFCURVE",
"307 95 OFFCURVE",
"346 108 QCURVE",
"385 122 OFFCURVE",
"443 172 OFFCURVE",
"452 200 QCURVE",
"470 252 OFFCURVE",
"442 338 OFFCURVE",
"364 376 OFFCURVE",
"315 363 QCURVE",
"298 356 LINE",
"257 338 LINE",
"230 326 OFFCURVE",
"213 321 QCURVE",
"198 317 OFFCURVE",
"188 316 QCURVE",
"163 314 OFFCURVE",
"148 326 QCURVE",
"111 355 OFFCURVE",
"145 411 QCURVE",
"148 416 OFFCURVE",
"154 424 OFFCURVE",
"155 428 OFFCURVE",
"158 430 OFFCURVE",
"158 431 QCURVE",
"158 432 LINE",
"196 540 OFFCURVE",
"220 650 QCURVE",
"224 670 OFFCURVE",
"241 685 QCURVE",
"260 710 OFFCURVE",
"290 711 QCURVE"
);
}
);
width = 564;
},
{
layerId = "3644BD71-2ABE-4F7E-A414-48DBC1C300FF";
paths = (
{
closed = 1;
nodes = (
"201 505 OFFCURVE",
"245 642 QCURVE",
"250 656 OFFCURVE",
"260 668 QCURVE",
"271 690 OFFCURVE",
"313 717 OFFCURVE",
"336 717 QCURVE",
"434 718 OFFCURVE",
"619 718 QCURVE",
"648 718 OFFCURVE",
"680 677 OFFCURVE",
"668 619 OFFCURVE",
"618 578 OFFCURVE",
"589 578 QCURVE",
"359 578 LINE",
"334 498 OFFCURVE",
"331 489 QCURVE",
"421 502 OFFCURVE",
"560 417 OFFCURVE",
"587 346 QCURVE",
"618 262 OFFCURVE",
"579 177 QCURVE",
"535 83 OFFCURVE",
"419 28 QCURVE",
"363 1 OFFCURVE",
"311 -1 QCURVE",
"234 -4 OFFCURVE",
"188 13 QCURVE",
"176 18 OFFCURVE",
"163 26 QCURVE",
"131 44 LINE",
"104 59 LINE",
"82 72 OFFCURVE",
"76 126 OFFCURVE",
"112 176 OFFCURVE",
"170 193 OFFCURVE",
"192 181 QCURVE",
"222 162 LINE",
"238 153 OFFCURVE",
"253 145 OFFCURVE",
"262 142 QCURVE",
"284 133 OFFCURVE",
"334 135 QCURVE",
"355 136 OFFCURVE",
"381 148 QCURVE",
"438 175 OFFCURVE",
"454 211 QCURVE",
"469 242 OFFCURVE",
"455 277 QCURVE",
"440 318 OFFCURVE",
"360 362 OFFCURVE",
"316 353 QCURVE",
"312 353 OFFCURVE",
"300 347 QCURVE",
"262 327 OFFCURVE",
"260 326 QCURVE",
"247 320 OFFCURVE",
"232 319 QCURVE",
"220 316 OFFCURVE",
"207 317 QCURVE",
"180 321 OFFCURVE",
"154 365 OFFCURVE",
"163 393 QCURVE"
);
}
);
width = 613;
}
);
unicode = 0035;
},
{
glyphname = six;
lastChange = "2019-10-09 23:07:58 +0000";
layers = (
{
layerId = UUID0;
paths = (
{
closed = 1;
nodes = (
"220 157 OFFCURVE",
"278 122 QCURVE",
"315 100 OFFCURVE",
"352 101 QCURVE",
"390 102 OFFCURVE",
"456 135 OFFCURVE",
"482 163 QCURVE",
"506 191 OFFCURVE",
"526 248 OFFCURVE",
"508 307 OFFCURVE",
"476 328 QCURVE",
"459 339 OFFCURVE",
"396 355 OFFCURVE",
"379 351 QCURVE",
"361 347 OFFCURVE",
"332 335 OFFCURVE",
"294 310 OFFCURVE",
"285 303 QCURVE",
"251 275 LINE",
"215 245 LINE"
);
},
{
closed = 1;
nodes = (
"491 637 OFFCURVE",
"411 606 QCURVE",
"336 575 OFFCURVE",
"276 475 QCURVE",
"248 428 OFFCURVE",
"233 377 QCURVE",
"308 434 OFFCURVE",
"376 450 QCURVE",
"417 459 OFFCURVE",
"516 436 OFFCURVE",
"545 415 QCURVE",
"601 378 OFFCURVE",
"632 266 OFFCURVE",
"595 154 OFFCURVE",
"552 106 QCURVE",
"509 58 OFFCURVE",
"397 1 OFFCURVE",
"270 -4 OFFCURVE",
"212 33 QCURVE",
"159 66 OFFCURVE",
"108 183 OFFCURVE",
"114 315 OFFCURVE",
"155 451 OFFCURVE",
"191 511 QCURVE",
"229 575 OFFCURVE",
"332 674 OFFCURVE",
"391 699 QCURVE",
"531 753 OFFCURVE",
"646 647 QCURVE",
"660 634 OFFCURVE",
"656 592 OFFCURVE",
"624 559 OFFCURVE",
"582 554 OFFCURVE",
"569 566 QCURVE"
);
}
);
width = 622;
},
{
layerId = "3644BD71-2ABE-4F7E-A414-48DBC1C300FF";
paths = (
{
closed = 1;
nodes = (
"273 158 OFFCURVE",
"348 138 QCURVE",
"389 127 OFFCURVE",
"422 150 QCURVE",
"455 171 OFFCURVE",
"483 256 OFFCURVE",
"448 321 OFFCURVE",
"391 325 QCURVE",
"370 327 OFFCURVE",
"357 320 QCURVE",
"335 310 OFFCURVE",
"300 281 QCURVE",
"260 247 LINE"
);
},
{
closed = 1;
nodes = (
"519 552 LINE",
"509 560 OFFCURVE",
"504 564 QCURVE",
"492 573 LINE",
"484 578 OFFCURVE",
"480 579 OFFCURVE",
"465 585 OFFCURVE",
"457 582 OFFCURVE",
"447 583 QCURVE",
"405 578 OFFCURVE",
"319 498 OFFCURVE",
"292 433 QCURVE",
"304 441 OFFCURVE",
"318 448 QCURVE",
"372 474 OFFCURVE",
"493 464 OFFCURVE",
"578 412 OFFCURVE",
"615 334 OFFCURVE",
"619 243 OFFCURVE",
"603 196 QCURVE",
"588 150 OFFCURVE",
"529 68 OFFCURVE",
"445 7 OFFCURVE",
"343 -15 OFFCURVE",
"286 -2 QCURVE",
"224 15 OFFCURVE",
"143 96 OFFCURVE",
"114 204 OFFCURVE",
"116 322 OFFCURVE",
"132 381 QCURVE",
"148 439 OFFCURVE",
"207 551 OFFCURVE",
"288 651 OFFCURVE",
"345 685 QCURVE",
"401 719 OFFCURVE",
"464 726 QCURVE",
"493 729 OFFCURVE",
"516 726 QCURVE",
"540 724 OFFCURVE",
"582 702 OFFCURVE",
"601 689 OFFCURVE",
"639 656 OFFCURVE",
"641 655 QCURVE",
"661 639 OFFCURVE",
"660 580 OFFCURVE",
"617 531 OFFCURVE",
"558 519 OFFCURVE",
"537 536 QCURVE"
);
}
);
width = 622;
}
);
unicode = 0036;
},
{
glyphname = seven;
lastChange = "2019-10-09 23:07:58 +0000";
layers = (
{
layerId = UUID0;
paths = (
{
closed = 1;
nodes = (
"561 607 LINE"
);
},
{
closed = 1;
nodes = (
"299 716 OFFCURVE",
"434 716 QCURVE",
"500 716 OFFCURVE",
"546 714 QCURVE",
"573 713 OFFCURVE",
"587 711 QCURVE",
"596 710 OFFCURVE",
"603 709 QCURVE",
"619 705 OFFCURVE",
"630 692 QCURVE",
"651 662 OFFCURVE",
"633 617 QCURVE",
"623 592 OFFCURVE",
"598 554 QCURVE",
"591 545 OFFCURVE",
"581 535 QCURVE",
"573 523 OFFCURVE",
"566 516 QCURVE",
"551 502 LINE",
"545 494 LINE",
"523 471 OFFCURVE",
"482 424 OFFCURVE",
"459 396 QCURVE",
"420 348 LINE",
"406 328 OFFCURVE",
"382 294 QCURVE",
"345 244 LINE",
"307 188 LINE",
"272 136 LINE",
"234 77 LINE",
"204 32 OFFCURVE",
"198 23 QCURVE",
"185 3 OFFCURVE",
"144 -11 OFFCURVE",
"110 8 OFFCURVE",
"104 47 OFFCURVE",
"118 67 QCURVE",
"125 77 OFFCURVE",
"153 121 QCURVE",
"191 179 LINE",
"227 232 LINE",
"253 272 OFFCURVE",
"266 289 QCURVE",
"305 344 LINE",
"329 378 OFFCURVE",
"347 400 QCURVE",
"388 452 LINE",
"411 481 OFFCURVE",
"433 506 QCURVE",
"478 557 LINE",
"479 559 OFFCURVE",
"497 585 QCURVE",
"521 610 LINE",
"520 610 LINE",
"480 612 OFFCURVE",
"412 612 QCURVE",
"280 612 OFFCURVE",
"237 610 QCURVE",
"217 609 OFFCURVE",
"192 638 OFFCURVE",
"199 681 OFFCURVE",
"234 713 OFFCURVE",
"253 714 QCURVE"
);
}
);
width = 557;
},
{
layerId = "3644BD71-2ABE-4F7E-A414-48DBC1C300FF";
paths = (
{
closed = 1;
nodes = (
"349 725 OFFCURVE",
"454 725 QCURVE",
"522 725 OFFCURVE",
"567 723 QCURVE",
"599 722 OFFCURVE",
"619 720 OFFCURVE",
"626 718 QCURVE",
"633 717 OFFCURVE",
"638 714 QCURVE",
"658 707 OFFCURVE",
"666 691 QCURVE",
"689 651 OFFCURVE",
"655 590 QCURVE",
"638 552 OFFCURVE",
"509 378 OFFCURVE",
"459 312 OFFCURVE",
"428 268 QCURVE",
"384 201 LINE",
"370 179 OFFCURVE",
"294 58 OFFCURVE",
"285 45 QCURVE",
"268 18 OFFCURVE",
"210 -4 OFFCURVE",
"162 19 OFFCURVE",
"151 73 OFFCURVE",
"169 99 QCURVE",
"214 172 LINE",
"252 232 OFFCURVE",
"268 256 QCURVE",
"316 328 LINE",
"348 375 OFFCURVE",
"462 541 OFFCURVE",
"468 546 QCURVE",
"485 573 OFFCURVE",
"495 585 QCURVE",
"423 585 LINE",
"283 585 OFFCURVE",
"245 584 QCURVE",
"216 584 OFFCURVE",
"183 624 OFFCURVE",
"194 682 OFFCURVE",
"243 723 OFFCURVE",
"272 724 QCURVE"
);
}
);
width = 601;
}
);
unicode = 0037;
},
{
glyphname = eight;
lastChange = "2019-10-09 23:07:58 +0000";
layers = (
{
layerId = UUID0;
paths = (
{
closed = 1;
nodes = (
"469 716 OFFCURVE",
"474 716 QCURVE",
"478 716 OFFCURVE",
"486 717 QCURVE",
"504 718 LINE",
"535 721 OFFCURVE",
"556 714 QCURVE",
"599 698 OFFCURVE",
"643 624 OFFCURVE",
"645 577 QCURVE",
"647 536 OFFCURVE",
"611 438 OFFCURVE",
"574 403 QCURVE",
"551 380 OFFCURVE",
"521 363 QCURVE",
"550 334 OFFCURVE",
"566 298 QCURVE",
"595 226 OFFCURVE",
"557 101 OFFCURVE",
"498 56 QCURVE",
"449 19 OFFCURVE",
"317 -10 OFFCURVE",
"257 0 QCURVE",
"191 10 OFFCURVE",
"107 87 OFFCURVE",
"101 143 QCURVE",
"94 202 OFFCURVE",
"163 320 OFFCURVE",
"231 364 QCURVE",
"240 370 OFFCURVE",
"251 376 QCURVE",
"240 380 OFFCURVE",
"232 384 QCURVE",
"176 414 OFFCURVE",
"162 459 QCURVE",
"140 527 OFFCURVE",
"218 617 QCURVE",
"310 724 OFFCURVE",
"462 715 QCURVE"
);
},
{
closed = 1;
nodes = (
"355 313 OFFCURVE",
"327 306 OFFCURVE",
"287 292 OFFCURVE",
"274 284 QCURVE",
"233 258 OFFCURVE",
"200 200 OFFCURVE",
"202 174 QCURVE",
"206 147 OFFCURVE",
"251 105 OFFCURVE",
"291 98 QCURVE",
"336 92 OFFCURVE",
"420 111 OFFCURVE",
"447 131 QCURVE",
"501 171 OFFCURVE",
"470 244 QCURVE",
"452 289 OFFCURVE",
"389 320 QCURVE"
);
},
{
closed = 1;
nodes = (
"462 614 OFFCURVE",
"388 617 OFFCURVE",
"316 593 OFFCURVE",
"290 563 QCURVE",
"254 522 OFFCURVE",
"260 505 QCURVE",
"265 490 OFFCURVE",
"294 475 QCURVE",
"311 466 OFFCURVE",
"381 440 QCURVE",
"404 432 OFFCURVE",
"420 425 QCURVE",
"484 440 OFFCURVE",
"509 465 QCURVE",
"544 499 OFFCURVE",
"542 553 QCURVE",
"542 584 OFFCURVE",
"526 602 QCURVE",
"520 602 OFFCURVE",
"515 603 QCURVE"
);
}
);
width = 594;
},
{
layerId = "3644BD71-2ABE-4F7E-A414-48DBC1C300FF";
paths = (
{
closed = 1;
nodes = (
"433 428 OFFCURVE",
"446 433 QCURVE",
"479 448 OFFCURVE",
"509 494 OFFCURVE",
"506 520 QCURVE",
"504 548 OFFCURVE",
"465 584 OFFCURVE",
"432 584 QCURVE",
"386 584 OFFCURVE",
"318 535 OFFCURVE",
"305 501 QCURVE",
"293 472 OFFCURVE",
"310 426 OFFCURVE",
"343 416 QCURVE",
"366 421 LINE",
"396 427 OFFCURVE",
"418 426 QCURVE"
);
},
{
closed = 1;
nodes = (
"165 385 OFFCURVE",
"161 477 OFFCURVE",
"180 525 QCURVE",
"212 604 OFFCURVE",
"365 716 OFFCURVE",
"460 716 QCURVE",
"539 716 OFFCURVE",
"635 625 OFFCURVE",
"641 557 QCURVE",
"646 507 OFFCURVE",
"596 395 OFFCURVE",
"546 355 QCURVE",
"591 304 OFFCURVE",
"592 178 OFFCURVE",
"549 120 QCURVE",
"507 63 OFFCURVE",
"439 30 QCURVE",
"371 -4 OFFCURVE",
"298 -4 QCURVE",
"191 -4 OFFCURVE",
"82 99 OFFCURVE",
"92 182 QCURVE",
"98 228 OFFCURVE",
"150 316 OFFCURVE",
"190 350 QCURVE"
);
},
{
closed = 1;
nodes = (
"369 277 OFFCURVE",
"327 280 QCURVE",
"313 281 OFFCURVE",
"308 279 QCURVE",
"275 271 OFFCURVE",
"229 220 OFFCURVE",
"226 193 QCURVE",
"224 183 OFFCURVE",
"230 163 OFFCURVE",
"247 141 OFFCURVE",
"293 128 OFFCURVE",
"326 128 QCURVE",
"365 128 OFFCURVE",
"430 160 OFFCURVE",
"445 181 QCURVE",
"476 223 OFFCURVE",
"426 267 QCURVE",
"415 278 OFFCURVE",
"404 285 QCURVE",
"388 277 OFFCURVE",
"371 277 QCURVE"
);
}
);
width = 605;
}
);
unicode = 0038;
},
{
glyphname = nine;
lastChange = "2019-10-09 23:07:58 +0000";
layers = (
{
layerId = UUID0;
paths = (
{
closed = 1;
nodes = (
"503 592 LINE",
"489 602 LINE",
"480 607 OFFCURVE",
"456 609 QCURVE",
"411 613 OFFCURVE",
"374 604 QCURVE",
"337 594 OFFCURVE",
"289 555 OFFCURVE",
"260 509 OFFCURVE",
"253 483 QCURVE",
"240 428 OFFCURVE",
"296 356 OFFCURVE",
"359 365 QCURVE",
"397 370 OFFCURVE",
"465 420 OFFCURVE",
"488 460 QCURVE",
"504 485 OFFCURVE",
"531 571 QCURVE",
"530 572 OFFCURVE",
"528 573 QCURVE"
);
},
{
closed = 1;
nodes = (
"616 387 OFFCURVE",
"519 44 QCURVE",
"512 23 OFFCURVE",
"476 -3 OFFCURVE",
"435 0 OFFCURVE",
"415 31 OFFCURVE",
"421 52 QCURVE",
"466 217 OFFCURVE",
"493 329 QCURVE",
"428 276 OFFCURVE",
"352 265 QCURVE",
"292 258 OFFCURVE",
"203 291 OFFCURVE",
"157 357 OFFCURVE",
"143 441 OFFCURVE",
"154 486 QCURVE",
"165 533 OFFCURVE",
"221 617 OFFCURVE",
"303 682 OFFCURVE",
"420 715 OFFCURVE",
"485 709 QCURVE",
"528 705 OFFCURVE",
"553 691 QCURVE",
"562 686 OFFCURVE",
"576 676 QCURVE",
"590 665 LINE",
"599 669 OFFCURVE",
"609 670 QCURVE",
"630 671 OFFCURVE",
"655 644 OFFCURVE",
"652 623 QCURVE"
);
}
);
width = 580;
},
{
layerId = "3644BD71-2ABE-4F7E-A414-48DBC1C300FF";
paths = (
{
closed = 1;
nodes = (
"493 480 OFFCURVE",
"510 564 QCURVE",
"445 602 OFFCURVE",
"388 588 QCURVE",
"335 575 OFFCURVE",
"273 473 OFFCURVE",
"289 432 QCURVE",
"309 386 OFFCURVE",
"387 385 QCURVE",
"395 385 OFFCURVE",
"412 390 QCURVE",
"460 403 OFFCURVE",
"462 403 QCURVE",
"469 405 OFFCURVE",
"475 405 QCURVE"
);
},
{
closed = 1;
nodes = (
"428 264 OFFCURVE",
"422 263 QCURVE",
"385 253 OFFCURVE",
"357 253 QCURVE",
"283 254 OFFCURVE",
"184 312 OFFCURVE",
"163 363 QCURVE",
"144 410 OFFCURVE",
"161 524 OFFCURVE",
"191 571 QCURVE",
"222 624 OFFCURVE",
"271 663 QCURVE",
"322 702 OFFCURVE",
"383 716 QCURVE",
"516 747 OFFCURVE",
"642 650 QCURVE",
"657 638 OFFCURVE",
"663 598 OFFCURVE",
"653 578 QCURVE",
"596 313 OFFCURVE",
"523 66 QCURVE",
"515 38 OFFCURVE",
"462 1 OFFCURVE",
"406 6 OFFCURVE",
"378 51 OFFCURVE",
"388 80 QCURVE",
"411 157 OFFCURVE",
"439 268 QCURVE"
);
}
);
width = 586;
}
);
unicode = 0039;
},
{
glyphname = colon;
lastChange = "2019-10-09 23:07:58 +0000";
layers = (
{
layerId = UUID0;
paths = (
{
closed = 1;
nodes = (
"258 496 OFFCURVE",
"249 454 OFFCURVE",
"214 425 OFFCURVE",
"172 425 OFFCURVE",
"149 454 OFFCURVE",
"158 496 OFFCURVE",
"193 525 OFFCURVE",
"235 525 OFFCURVE",
"246 510 QCURVE"
);
},
{
closed = 1;
nodes = (
"171 74 OFFCURVE",
"162 32 OFFCURVE",
"127 3 OFFCURVE",
"85 3 OFFCURVE",
"62 32 OFFCURVE",
"71 74 OFFCURVE",
"106 103 OFFCURVE",
"148 103 OFFCURVE",
"159 88 QCURVE"
);
}
);
width = 206;
},
{
layerId = "3644BD71-2ABE-4F7E-A414-48DBC1C300FF";
paths = (
{
closed = 1;
nodes = (
"290 474 OFFCURVE",
"278 416 OFFCURVE",
"228 375 OFFCURVE",
"170 375 OFFCURVE",
"138 416 OFFCURVE",
"150 474 OFFCURVE",
"200 515 OFFCURVE",
"258 515 OFFCURVE",
"274 494 QCURVE"
);
},
{
closed = 1;
nodes = (
"214 102 OFFCURVE",
"202 44 OFFCURVE",
"152 3 OFFCURVE",
"94 3 OFFCURVE",
"62 44 OFFCURVE",
"74 102 OFFCURVE",
"124 143 OFFCURVE",
"182 143 OFFCURVE",
"197 122 QCURVE"
);
}
);
width = 243;
}
);
unicode = 003A;
},
{
glyphname = semicolon;
lastChange = "2019-10-09 23:07:58 +0000";
layers = (
{
layerId = UUID0;
paths = (
{
closed = 1;
nodes = (
"191 47 OFFCURVE",
"188 -2 QCURVE",
"185 -26 OFFCURVE",
"180 -41 QCURVE",
"174 -52 OFFCURVE",
"159 -76 QCURVE",
"140 -106 OFFCURVE",
"122 -134 QCURVE",
"111 -151 OFFCURVE",
"71 -167 OFFCURVE",
"35 -154 OFFCURVE",
"24 -121 OFFCURVE",
"35 -103 QCURVE",
"52 -75 OFFCURVE",
"74 -42 QCURVE",
"84 -27 OFFCURVE",
"84 -25 QCURVE",
"86 -23 OFFCURVE",
"86 -13 QCURVE",
"91 38 OFFCURVE",
"91 44 QCURVE",
"93 63 OFFCURVE",
"126 91 OFFCURVE",
"158 95 OFFCURVE",
"195 71 OFFCURVE",
"193 53 QCURVE"
);
},
{
closed = 1;
nodes = (
"237 259 OFFCURVE",
"228 217 OFFCURVE",
"192 188 OFFCURVE",
"150 188 OFFCURVE",
"128 217 OFFCURVE",
"137 259 OFFCURVE",
"172 288 OFFCURVE",
"214 288 OFFCURVE",
"225 273 QCURVE"
);
}
);
width = 245;
},
{
layerId = "3644BD71-2ABE-4F7E-A414-48DBC1C300FF";
paths = (
{
closed = 1;
nodes = (
"171 -99 LINE",
"159 -127 OFFCURVE",
"103 -158 OFFCURVE",
"50 -144 OFFCURVE",
"29 -95 OFFCURVE",
"42 -67 QCURVE",
"94 48 LINE",
"107 76 OFFCURVE",
"162 107 OFFCURVE",
"215 93 OFFCURVE",
"236 44 OFFCURVE",
"223 16 QCURVE"
);
},
{
closed = 1;
nodes = (
"290 292 OFFCURVE",
"277 234 OFFCURVE",
"228 193 OFFCURVE",
"170 193 OFFCURVE",
"137 234 OFFCURVE",
"150 292 OFFCURVE",
"199 333 OFFCURVE",
"257 333 OFFCURVE",
"273 312 QCURVE"
);
}
);
width = 278;
}
);
unicode = 003B;
},
{
glyphname = less;
lastChange = "2019-10-09 23:07:58 +0000";
layers = (
{
layerId = UUID0;
paths = (
{
closed = 1;
nodes = (
"466 345 OFFCURVE",
"307 291 QCURVE",
"248 272 LINE",
"250 271 LINE",
"263 266 LINE",
"270 263 OFFCURVE",
"274 262 QCURVE",
"463 170 OFFCURVE",
"568 98 QCURVE",
"583 87 OFFCURVE",
"585 47 OFFCURVE",
"556 12 OFFCURVE",
"535 6 QCURVE",
"514 1 OFFCURVE",
"498 12 QCURVE",
"398 81 OFFCURVE",
"215 170 QCURVE",
"210 172 LINE",
"195 177 LINE",
"173 187 OFFCURVE",
"157 197 QCURVE",
"130 213 OFFCURVE",
"119 234 QCURVE",
"99 272 OFFCURVE",
"124 314 QCURVE",
"148 353 OFFCURVE",
"199 360 QCURVE",
"206 361 OFFCURVE",
"211 362 QCURVE",
"216 362 OFFCURVE",
"218 362 QCURVE",
"220 362 LINE",
"223 362 LINE",
"293 385 LINE",
"456 440 OFFCURVE",
"637 520 QCURVE",
"658 529 OFFCURVE",
"694 516 OFFCURVE",
"704 478 OFFCURVE",
"683 439 OFFCURVE",
"662 430 QCURVE"
);
}
);
width = 649;
},
{
layerId = "3644BD71-2ABE-4F7E-A414-48DBC1C300FF";
paths = (
{
closed = 1;
nodes = (
"258 340 LINE",
"364 380 LINE",
"451 414 LINE",
"556 456 LINE",
"651 494 LINE",
"678 504 OFFCURVE",
"724 484 OFFCURVE",
"735 434 OFFCURVE",
"704 383 OFFCURVE",
"677 372 QCURVE",
"358 246 LINE",
"423 223 LINE",
"561 173 OFFCURVE",
"648 128 QCURVE",
"669 116 OFFCURVE",
"676 64 OFFCURVE",
"643 15 OFFCURVE",
"587 -3 OFFCURVE",
"564 8 QCURVE",
"485 51 OFFCURVE",
"354 98 QCURVE",
"283 124 LINE",
"198 154 LINE",
"161 167 OFFCURVE",
"129 180 QCURVE",
"105 189 OFFCURVE",
"92 239 OFFCURVE",
"107 264 QCURVE",
"126 299 OFFCURVE",
"164 307 QCURVE",
"165 307 LINE"
);
}
);
width = 649;
}
);
unicode = 003C;
},
{
glyphname = equal;
lastChange = "2019-10-09 23:07:58 +0000";
layers = (
{
layerId = UUID0;
paths = (
{
closed = 1;
nodes = (
"480 408 OFFCURVE",
"652 408 QCURVE",
"673 408 OFFCURVE",
"696 379 OFFCURVE",
"687 337 OFFCURVE",
"652 308 OFFCURVE",
"631 308 QCURVE",
"461 308 OFFCURVE",
"166 302 QCURVE",
"145 302 OFFCURVE",
"121 330 OFFCURVE",
"130 372 OFFCURVE",
"164 402 OFFCURVE",
"185 402 QCURVE"
);
},
{
closed = 1;
nodes = (
"232 193 OFFCURVE",
"373 193 QCURVE",
"552 193 OFFCURVE",
"605 191 QCURVE",
"625 190 OFFCURVE",
"648 160 OFFCURVE",
"637 119 OFFCURVE",
"601 90 OFFCURVE",
"580 91 QCURVE",
"529 93 OFFCURVE",
"351 93 QCURVE",
"207 93 OFFCURVE",
"119 99 QCURVE",
"99 101 OFFCURVE",
"79 132 OFFCURVE",
"90 173 OFFCURVE",
"127 200 OFFCURVE",
"148 199 QCURVE"
);
}
);
width = 666;
},
{
layerId = "3644BD71-2ABE-4F7E-A414-48DBC1C300FF";
paths = (
{
closed = 1;
nodes = (
"396 426 OFFCURVE",
"600 428 QCURVE",
"628 428 OFFCURVE",
"662 387 OFFCURVE",
"650 330 OFFCURVE",
"600 288 OFFCURVE",
"571 288 QCURVE",
"370 287 OFFCURVE",
"182 282 QCURVE",
"153 282 OFFCURVE",
"120 321 OFFCURVE",
"131 379 OFFCURVE",
"179 421 OFFCURVE",
"208 422 QCURVE"
);
},
{
closed = 1;
nodes = (
"244 214 OFFCURVE",
"377 214 QCURVE",
"509 213 OFFCURVE",
"563 211 QCURVE",
"591 210 OFFCURVE",
"622 167 OFFCURVE",
"608 110 OFFCURVE",
"556 70 OFFCURVE",
"528 71 QCURVE",
"469 73 OFFCURVE",
"340 74 QCURVE",
"206 75 OFFCURVE",
"134 79 QCURVE",
"106 81 OFFCURVE",
"77 124 OFFCURVE",
"92 182 OFFCURVE",
"143 220 OFFCURVE",
"172 219 QCURVE"
);
}
);
width = 666;
}
);
unicode = 003D;
},
{
glyphname = greater;
lastChange = "2019-10-09 23:07:58 +0000";
layers = (
{
layerId = UUID0;
paths = (
{
closed = 1;
nodes = (
"355 468 OFFCURVE",
"588 364 QCURVE",
"600 359 OFFCURVE",
"636 339 OFFCURVE",
"643 336 QCURVE",
"644 335 OFFCURVE",
"645 335 QCURVE",
"648 335 LINE",
"650 335 OFFCURVE",
"660 334 OFFCURVE",
"668 332 QCURVE",
"688 328 OFFCURVE",
"700 320 QCURVE",
"725 301 OFFCURVE",
"718 266 QCURVE",
"710 230 OFFCURVE",
"667 206 QCURVE",
"649 196 OFFCURVE",
"621 186 QCURVE",
"613 184 OFFCURVE",
"553 167 QCURVE",
"476 145 OFFCURVE",
"346 97 QCURVE",
"197 42 OFFCURVE",
"132 21 QCURVE",
"110 14 OFFCURVE",
"77 32 OFFCURVE",
"73 72 OFFCURVE",
"99 109 OFFCURVE",
"120 115 QCURVE",
"158 127 OFFCURVE",
"329 190 QCURVE",
"465 240 OFFCURVE",
"545 263 QCURVE",
"547 263 LINE",
"538 268 OFFCURVE",
"530 272 QCURVE",
"303 373 OFFCURVE",
"174 409 QCURVE",
"155 414 OFFCURVE",
"142 450 OFFCURVE",
"162 490 OFFCURVE",
"202 511 OFFCURVE",
"221 505 QCURVE"
);
}
);
width = 711;
},
{
layerId = "3644BD71-2ABE-4F7E-A414-48DBC1C300FF";
paths = (
{
closed = 1;
nodes = (
"223 157 OFFCURVE",
"367 210 QCURVE",
"459 244 LINE",
"177 362 LINE",
"153 371 OFFCURVE",
"143 422 OFFCURVE",
"173 473 OFFCURVE",
"229 494 OFFCURVE",
"251 484 QCURVE",
"673 309 LINE",
"697 299 OFFCURVE",
"708 249 OFFCURVE",
"694 224 QCURVE",
"682 204 OFFCURVE",
"661 192 QCURVE",
"649 181 OFFCURVE",
"634 176 QCURVE",
"594 163 OFFCURVE",
"556 149 QCURVE",
"467 116 LINE",
"390 87 LINE",
"233 31 OFFCURVE",
"136 6 QCURVE",
"107 -1 OFFCURVE",
"66 27 OFFCURVE",
"64 80 OFFCURVE",
"101 127 OFFCURVE",
"129 134 QCURVE"
);
}
);
width = 711;
}
);
unicode = 003E;
},
{
glyphname = question;
lastChange = "2019-10-09 23:07:58 +0000";
layers = (
{
layerId = UUID0;
paths = (
{
closed = 1;
nodes = (
"167 511 OFFCURVE",
"167 517 QCURVE",
"167 531 OFFCURVE",
"168 532 QCURVE",
"169 559 OFFCURVE",
"180 580 QCURVE",
"203 629 OFFCURVE",
"290 696 OFFCURVE",
"382 723 OFFCURVE",
"428 722 QCURVE",
"474 722 OFFCURVE",
"554 694 OFFCURVE",
"613 628 OFFCURVE",
"618 582 QCURVE",
"626 493 OFFCURVE",
"522 403 QCURVE",
"513 394 OFFCURVE",
"501 384 QCURVE",
"475 364 LINE",
"461 353 OFFCURVE",
"453 347 QCURVE",
"421 320 OFFCURVE",
"407 303 QCURVE",
"389 279 OFFCURVE",
"383 265 QCURVE",
"381 259 OFFCURVE",
"377 246 QCURVE",
"368 218 OFFCURVE",
"367 212 QCURVE",
"360 191 OFFCURVE",
"322 165 OFFCURVE",
"281 169 OFFCURVE",
"262 202 OFFCURVE",
"269 222 QCURVE",
"271 228 OFFCURVE",
"278 254 QCURVE",
"285 273 OFFCURVE",
"289 284 QCURVE",
"301 314 OFFCURVE",
"332 353 QCURVE",
"353 381 OFFCURVE",
"398 418 QCURVE",
"402 420 OFFCURVE",
"427 440 QCURVE",
"465 471 LINE",
"519 519 OFFCURVE",
"516 552 QCURVE",
"513 582 OFFCURVE",
"454 622 OFFCURVE",
"359 623 OFFCURVE",
"286 585 OFFCURVE",
"270 554 QCURVE",
"270 547 LINE",
"269 545 OFFCURVE",
"269 542 QCURVE",
"270 538 LINE",
"269 535 OFFCURVE",
"269 534 QCURVE",
"269 523 OFFCURVE",
"268 515 QCURVE",
"265 494 OFFCURVE",
"231 463 OFFCURVE",
"189 460 OFFCURVE",
"164 487 OFFCURVE",
"166 507 QCURVE"
);
},
{
closed = 1;
nodes = (
"343 76 OFFCURVE",
"334 34 OFFCURVE",
"299 5 OFFCURVE",
"257 5 OFFCURVE",
"234 34 OFFCURVE",
"243 76 OFFCURVE",
"278 105 OFFCURVE",
"320 105 OFFCURVE",
"331 90 QCURVE"
);
}
);
width = 551;
},
{
layerId = "3644BD71-2ABE-4F7E-A414-48DBC1C300FF";
paths = (
{
closed = 1;
nodes = (
"167 529 OFFCURVE",
"169 536 QCURVE",
"174 556 LINE",
"184 593 OFFCURVE",
"204 620 QCURVE",
"243 671 OFFCURVE",
"304 696 QCURVE",
"365 722 OFFCURVE",
"424 724 QCURVE",
"485 726 OFFCURVE",
"589 680 OFFCURVE",
"609 628 QCURVE",
"633 563 OFFCURVE",
"600 498 QCURVE",
"578 453 OFFCURVE",
"524 407 QCURVE",
"484 376 LINE",
"459 356 OFFCURVE",
"451 349 QCURVE",
"422 326 OFFCURVE",
"413 313 QCURVE",
"411 309 OFFCURVE",
"407 297 QCURVE",
"394 258 OFFCURVE",
"394 256 QCURVE",
"383 227 OFFCURVE",
"329 193 OFFCURVE",
"274 203 OFFCURVE",
"250 250 OFFCURVE",
"261 278 QCURVE",
"263 284 OFFCURVE",
"266 294 OFFCURVE",
"270 307 OFFCURVE",
"272 311 QCURVE",
"282 344 OFFCURVE",
"297 367 QCURVE",
"321 406 OFFCURVE",
"374 449 QCURVE",
"382 456 OFFCURVE",
"431 493 OFFCURVE",
"444 504 QCURVE",
"469 525 OFFCURVE",
"475 537 QCURVE",
"478 544 OFFCURVE",
"469 568 OFFCURVE",
"431 585 OFFCURVE",
"399 584 QCURVE",
"369 584 OFFCURVE",
"324 565 OFFCURVE",
"313 554 QCURVE",
"312 548 LINE",
"311 546 OFFCURVE",
"310 543 QCURVE",
"309 537 LINE",
"308 532 LINE",
"304 517 OFFCURVE",
"300 506 QCURVE",
"290 478 OFFCURVE",
"237 443 OFFCURVE",
"181 451 OFFCURVE",
"156 497 OFFCURVE",
"166 526 QCURVE"
);
},
{
closed = 1;
nodes = (
"361 102 OFFCURVE",
"349 44 OFFCURVE",
"299 3 OFFCURVE",
"241 3 OFFCURVE",
"209 44 OFFCURVE",
"221 102 OFFCURVE",
"271 143 OFFCURVE",
"329 143 OFFCURVE",
"344 122 QCURVE"
);
}
);
width = 551;
}
);
unicode = 003F;
},
{
glyphname = at;
lastChange = "2019-10-09 23:07:58 +0000";
layers = (
{
layerId = UUID0;
paths = (
{
closed = 1;
nodes = (
"618 530 OFFCURVE",
"549 506 OFFCURVE",
"511 475 QCURVE",
"467 440 OFFCURVE",
"421 362 OFFCURVE",
"426 337 QCURVE",
"430 319 OFFCURVE",
"443 299 OFFCURVE",
"452 296 OFFCURVE",
"458 296 QCURVE",
"488 296 OFFCURVE",
"533 336 QCURVE",
"570 368 OFFCURVE",
"582 388 QCURVE",
"586 394 OFFCURVE",
"617 458 QCURVE",
"617 461 LINE",
"619 470 LINE",
"621 477 OFFCURVE",
"624 487 QCURVE",
"629 508 OFFCURVE",
"639 522 QCURVE",
"641 523 OFFCURVE",
"642 525 QCURVE"
);
},
{
closed = 1;
nodes = (
"592 268 LINE",
"512 197 OFFCURVE",
"439 196 QCURVE",
"394 195 OFFCURVE",
"335 249 OFFCURVE",
"326 299 QCURVE",
"314 361 OFFCURVE",
"394 497 OFFCURVE",
"457 547 QCURVE",
"487 571 OFFCURVE",
"553 607 OFFCURVE",
"623 629 OFFCURVE",
"695 624 OFFCURVE",
"724 605 QCURVE",
"740 595 OFFCURVE",
"753 574 QCURVE",
"759 562 LINE",
"762 557 OFFCURVE",
"764 554 QCURVE",
"775 539 OFFCURVE",
"764 497 OFFCURVE",
"746 483 QCURVE",
"739 478 OFFCURVE",
"730 474 QCURVE",
"728 466 LINE",
"713 425 OFFCURVE",
"707 407 QCURVE",
"695 370 OFFCURVE",
"690 347 QCURVE",
"689 347 OFFCURVE",
"687 328 QCURVE",
"705 292 OFFCURVE",
"761 315 QCURVE",
"791 327 OFFCURVE",
"840 375 OFFCURVE",
"851 401 QCURVE",
"890 508 OFFCURVE",
"804 657 OFFCURVE",
"602 711 OFFCURVE",
"383 644 OFFCURVE",
"313 558 QCURVE",
"270 505 OFFCURVE",
"231 396 OFFCURVE",
"235 301 OFFCURVE",
"255 258 QCURVE",
"287 192 OFFCURVE",
"355 151 QCURVE",
"421 110 OFFCURVE",
"508 106 QCURVE",
"546 104 OFFCURVE",
"592 114 QCURVE",
"637 123 OFFCURVE",
"664 132 QCURVE",
"756 166 LINE",
"776 174 OFFCURVE",
"812 158 OFFCURVE",
"819 120 OFFCURVE",
"795 81 OFFCURVE",
"774 74 QCURVE",
"768 71 OFFCURVE",
"756 67 QCURVE",
"699 46 OFFCURVE",
"635 24 OFFCURVE",
"528 4 OFFCURVE",
"483 6 QCURVE",
"373 11 OFFCURVE",
"202 116 OFFCURVE",
"161 201 QCURVE",
"134 259 OFFCURVE",
"127 390 OFFCURVE",
"181 539 OFFCURVE",
"238 610 QCURVE",
"277 658 OFFCURVE",
"378 733 OFFCURVE",
"483 776 OFFCURVE",
"595 797 OFFCURVE",
"700 793 OFFCURVE",
"748 781 QCURVE",
"809 765 OFFCURVE",
"906 698 OFFCURVE",
"968 600 OFFCURVE",
"975 463 OFFCURVE",
"945 385 QCURVE",
"926 332 OFFCURVE",
"836 245 OFFCURVE",
"782 224 QCURVE",
"746 209 OFFCURVE",
"676 204 OFFCURVE",
"611 235 OFFCURVE",
"594 269 QCURVE"
);
}
);
width = 922;
},
{
layerId = "3644BD71-2ABE-4F7E-A414-48DBC1C300FF";
paths = (
{
closed = 1;
nodes = (
"593 454 OFFCURVE",
"592 455 QCURVE",
"575 461 OFFCURVE",
"504 432 OFFCURVE",
"468 396 QCURVE",
"441 371 OFFCURVE",
"416 326 OFFCURVE",
"414 298 OFFCURVE",
"420 290 QCURVE",
"433 274 OFFCURVE",
"457 283 QCURVE",
"492 297 OFFCURVE",
"525 334 QCURVE",
"553 364 OFFCURVE",
"567 399 QCURVE",
"570 406 OFFCURVE",
"575 423 OFFCURVE",
"577 424 QCURVE",
"582 439 OFFCURVE",
"590 450 QCURVE",
"593 452 OFFCURVE",
"594 454 QCURVE"
);
},
{
closed = 1;
nodes = (
"518 196 OFFCURVE",
"479 180 QCURVE",
"450 169 OFFCURVE",
"397 165 OFFCURVE",
"342 187 OFFCURVE",
"324 212 QCURVE",
"302 241 OFFCURVE",
"298 313 OFFCURVE",
"328 382 OFFCURVE",
"369 441 OFFCURVE",
"396 467 QCURVE",
"452 521 OFFCURVE",
"596 583 OFFCURVE",
"654 559 QCURVE",
"675 551 OFFCURVE",
"695 531 QCURVE",
"697 529 OFFCURVE",
"713 513 OFFCURVE",
"718 509 QCURVE",
"734 495 OFFCURVE",
"732 450 OFFCURVE",
"715 431 QCURVE",
"705 420 OFFCURVE",
"693 414 QCURVE",
"693 413 LINE",
"691 401 OFFCURVE",
"684 383 QCURVE",
"682 380 OFFCURVE",
"675 364 QCURVE",
"664 337 LINE",
"653 304 OFFCURVE",
"663 298 QCURVE",
"686 283 OFFCURVE",
"760 309 OFFCURVE",
"778 338 QCURVE",
"784 347 OFFCURVE",
"795 394 QCURVE",
"814 473 OFFCURVE",
"732 580 OFFCURVE",
"646 598 QCURVE",
"560 616 OFFCURVE",
"469 592 QCURVE",
"379 567 OFFCURVE",
"322 509 QCURVE",
"272 458 OFFCURVE",
"233 338 OFFCURVE",
"256 233 OFFCURVE",
"334 146 OFFCURVE",
"393 127 QCURVE",
"437 110 OFFCURVE",
"548 114 OFFCURVE",
"647 138 OFFCURVE",
"710 163 QCURVE",
"734 172 OFFCURVE",
"773 154 OFFCURVE",
"782 111 OFFCURVE",
"755 68 OFFCURVE",
"732 59 QCURVE",
"680 39 OFFCURVE",
"588 13 OFFCURVE",
"486 -3 OFFCURVE",
"385 4 OFFCURVE",
"339 19 QCURVE",
"276 40 OFFCURVE",
"179 125 OFFCURVE",
"129 240 OFFCURVE",
"123 370 OFFCURVE",
"153 442 QCURVE",
"185 513 OFFCURVE",
"248 577 QCURVE",
"335 665 OFFCURVE",
"581 731 OFFCURVE",
"691 707 QCURVE",
"745 696 OFFCURVE",
"835 646 OFFCURVE",
"900 569 OFFCURVE",
"923 457 OFFCURVE",
"906 390 QCURVE",
"904 378 LINE",
"901 365 OFFCURVE",
"897 352 OFFCURVE",
"889 328 OFFCURVE",
"880 306 OFFCURVE",
"873 296 QCURVE",
"843 248 OFFCURVE",
"740 184 OFFCURVE",
"634 175 OFFCURVE",
"588 200 QCURVE",
"570 212 OFFCURVE",
"559 228 QCURVE"
);
}
);
width = 922;
}
);
unicode = 0040;
},
{
glyphname = A;
lastChange = "2019-10-09 23:07:58 +0000";
layers = (
{
layerId = UUID0;
paths = (
{
closed = 1;
nodes = (
"453 533 LINE",
"317 314 LINE",
"401 315 OFFCURVE",
"498 318 QCURVE"
);
},
{
closed = 1;
nodes = (
"655 70 LINE",
"659 50 OFFCURVE",
"635 11 OFFCURVE",
"592 -5 OFFCURVE",
"557 11 OFFCURVE",
"553 30 QCURVE",
"518 219 LINE",
"514 217 OFFCURVE",
"509 217 QCURVE",
"373 212 OFFCURVE",
"259 212 QCURVE",
"186 80 OFFCURVE",
"155 30 QCURVE",
"143 10 OFFCURVE",
"100 -6 OFFCURVE",
"65 10 OFFCURVE",
"57 49 OFFCURVE",
"69 68 QCURVE",
"99 117 OFFCURVE",
"205 307 OFFCURVE",
"226 342 QCURVE",
"237 362 OFFCURVE",
"313 484 QCURVE",
"386 604 OFFCURVE",
"428 679 QCURVE",
"439 699 OFFCURVE",
"480 718 OFFCURVE",
"499 711 QCURVE",
"507 708 OFFCURVE",
"513 702 QCURVE",
"531 695 OFFCURVE",
"535 675 QCURVE"
);
}
);
width = 675;
},
{
layerId = "3644BD71-2ABE-4F7E-A414-48DBC1C300FF";
paths = (
{
closed = 1;
nodes = (
"451 460 LINE",
"372 331 LINE",
"410 331 OFFCURVE",
"477 333 QCURVE"
);
},
{
closed = 1;
nodes = (
"599 491 LINE",
"640 276 LINE",
"671 96 LINE",
"676 69 OFFCURVE",
"642 16 OFFCURVE",
"582 -6 OFFCURVE",
"533 17 OFFCURVE",
"528 43 QCURVE",
"504 195 LINE",
"334 191 OFFCURVE",
"285 190 QCURVE",
"198 41 LINE",
"181 15 OFFCURVE",
"122 -8 OFFCURVE",
"73 15 OFFCURVE",
"67 41 QCURVE",
"61 68 OFFCURVE",
"77 94 QCURVE",
"424 671 LINE",
"436 690 OFFCURVE",
"475 714 OFFCURVE",
"496 715 QCURVE",
"519 719 OFFCURVE",
"557 696 OFFCURVE",
"564 675 QCURVE"
);
}
);
width = 695;
}
);
unicode = 0041;
},
{
glyphname = B;
lastChange = "2019-10-09 23:07:58 +0000";
layers = (
{
layerId = UUID0;
paths = (
{
closed = 1;
nodes = (
"215 310 LINE",
"211 291 OFFCURVE",
"181 141 OFFCURVE",
"173 100 QCURVE",
"229 98 OFFCURVE",
"328 95 OFFCURVE",
"433 113 OFFCURVE",
"473 134 QCURVE",
"523 159 OFFCURVE",
"559 251 OFFCURVE",
"531 279 QCURVE",
"511 299 OFFCURVE",
"426 304 QCURVE",
"393 299 OFFCURVE",
"354 299 QCURVE",
"324 300 OFFCURVE",
"266 304 QCURVE",
"252 305 OFFCURVE",
"242 305 QCURVE",
"235 306 OFFCURVE",
"227 309 QCURVE"
);
},
{
closed = 1;
nodes = (
"472 409 OFFCURVE",
"492 420 QCURVE",
"536 443 OFFCURVE",
"567 543 OFFCURVE",
"540 571 QCURVE",
"509 602 OFFCURVE",
"420 610 QCURVE",
"367 614 OFFCURVE",
"276 609 QCURVE",
"269 559 OFFCURVE",
"237 411 QCURVE",
"240 411 LINE",
"278 406 OFFCURVE",
"294 404 QCURVE",
"304 404 OFFCURVE",
"342 405 QCURVE",
"404 406 OFFCURVE",
"436 404 QCURVE",
"442 404 LINE"
);
},
{
closed = 1;
nodes = (
"387 715 OFFCURVE",
"450 709 QCURVE",
"570 699 OFFCURVE",
"620 647 QCURVE",
"653 613 OFFCURVE",
"663 515 OFFCURVE",
"622 415 OFFCURVE",
"582 376 QCURVE",
"600 367 OFFCURVE",
"611 355 QCURVE",
"645 321 OFFCURVE",
"655 228 OFFCURVE",
"616 143 OFFCURVE",
"546 68 OFFCURVE",
"504 46 QCURVE",
"471 30 OFFCURVE",
"392 8 OFFCURVE",
"327 -2 OFFCURVE",
"240 -4 OFFCURVE",
"190 -2 OFFCURVE",
"103 2 OFFCURVE",
"89 3 QCURVE",
"68 4 OFFCURVE",
"47 34 OFFCURVE",
"52 55 QCURVE",
"57 71 OFFCURVE",
"69 84 QCURVE",
"80 133 OFFCURVE",
"121 338 OFFCURVE",
"133 391 QCURVE",
"136 409 OFFCURVE",
"158 506 OFFCURVE",
"167 551 OFFCURVE",
"178 624 OFFCURVE",
"180 653 QCURVE",
"181 674 OFFCURVE",
"213 707 OFFCURVE",
"233 710 QCURVE",
"250 713 OFFCURVE",
"263 706 QCURVE",
"268 708 OFFCURVE",
"274 708 QCURVE"
);
}
);
width = 603;
},
{
layerId = "3644BD71-2ABE-4F7E-A414-48DBC1C300FF";
paths = (
{
closed = 1;
nodes = (
"306 512 OFFCURVE",
"293 440 QCURVE",
"381 430 OFFCURVE",
"434 434 QCURVE",
"513 441 OFFCURVE",
"534 474 QCURVE",
"552 501 OFFCURVE",
"552 517 QCURVE",
"553 528 OFFCURVE",
"541 540 QCURVE",
"507 569 OFFCURVE",
"429 574 QCURVE",
"396 576 OFFCURVE",
"349 574 QCURVE",
"337 574 OFFCURVE",
"316 573 QCURVE"
);
},
{
closed = 1;
nodes = (
"230 146 OFFCURVE",
"228 137 QCURVE",
"246 136 OFFCURVE",
"257 135 QCURVE",
"315 133 OFFCURVE",
"354 134 QCURVE",
"455 138 OFFCURVE",
"514 175 QCURVE",
"540 191 OFFCURVE",
"551 211 OFFCURVE",
"550 237 QCURVE",
"549 275 OFFCURVE",
"470 284 QCURVE",
"434 289 OFFCURVE",
"373 287 QCURVE",
"287 286 OFFCURVE",
"274 286 QCURVE",
"261 288 LINE"
);
},
{
closed = 1;
nodes = (
"307 715 OFFCURVE",
"363 717 OFFCURVE",
"374 718 QCURVE",
"429 720 OFFCURVE",
"467 717 QCURVE",
"586 710 OFFCURVE",
"647 656 QCURVE",
"698 610 OFFCURVE",
"694 541 QCURVE",
"691 484 OFFCURVE",
"649 416 QCURVE",
"637 397 OFFCURVE",
"622 389 QCURVE",
"688 350 OFFCURVE",
"692 271 QCURVE",
"695 202 OFFCURVE",
"665 152 QCURVE",
"635 103 OFFCURVE",
"570 62 QCURVE",
"473 3 OFFCURVE",
"331 -3 QCURVE",
"284 -5 OFFCURVE",
"221 -2 QCURVE",
"211 -2 OFFCURVE",
"154 1 OFFCURVE",
"139 2 QCURVE",
"135 1 OFFCURVE",
"131 1 QCURVE",
"113 1 OFFCURVE",
"100 9 QCURVE",
"84 18 OFFCURVE",
"70 52 OFFCURVE",
"74 73 QCURVE",
"76 80 OFFCURVE",
"79 87 QCURVE",
"89 134 OFFCURVE",
"142 374 OFFCURVE",
"174 543 OFFCURVE",
"185 628 QCURVE",
"189 656 OFFCURVE",
"230 699 OFFCURVE",
"257 704 QCURVE",
"274 714 OFFCURVE",
"293 715 QCURVE"
);
}
);
width = 703;
}
);
unicode = 0042;
},
{
glyphname = C;
lastChange = "2019-10-09 23:07:58 +0000";
layers = (
{
layerId = UUID0;
paths = (
{
closed = 1;
nodes = (
"675 544 OFFCURVE",
"668 555 QCURVE",
"658 569 OFFCURVE",
"627 599 OFFCURVE",
"609 607 QCURVE",
"569 625 OFFCURVE",
"483 618 OFFCURVE",
"397 586 OFFCURVE",
"319 525 OFFCURVE",
"260 452 OFFCURVE",
"222 361 OFFCURVE",
"220 316 QCURVE",
"218 261 OFFCURVE",
"253 155 OFFCURVE",
"286 130 QCURVE",
"312 111 OFFCURVE",
"399 90 OFFCURVE",
"445 94 QCURVE",
"548 101 OFFCURVE",
"594 160 QCURVE",
"602 170 OFFCURVE",
"607 180 QCURVE",
"620 206 LINE",
"637 238 LINE",
"648 257 OFFCURVE",
"689 275 OFFCURVE",
"725 261 OFFCURVE",
"735 224 OFFCURVE",
"724 204 QCURVE",
"722 201 OFFCURVE",
"703 162 OFFCURVE",
"681 125 OFFCURVE",
"671 112 QCURVE",
"627 56 OFFCURVE",
"500 -1 OFFCURVE",
"431 -6 QCURVE",
"369 -10 OFFCURVE",
"311 3 QCURVE",
"252 17 OFFCURVE",
"214 46 QCURVE",
"163 85 OFFCURVE",
"115 228 OFFCURVE",
"118 300 QCURVE",
"121 359 OFFCURVE",
"171 483 OFFCURVE",
"253 586 OFFCURVE",
"361 673 OFFCURVE",
"480 718 OFFCURVE",
"606 727 OFFCURVE",
"665 701 QCURVE",
"688 691 OFFCURVE",
"725 663 OFFCURVE",
"758 619 OFFCURVE",
"765 609 QCURVE",
"787 572 LINE",
"797 556 OFFCURVE",
"783 515 OFFCURVE",
"745 489 OFFCURVE",
"706 494 OFFCURVE",
"696 510 QCURVE"
);
}
);
width = 737;
},
{
layerId = "3644BD71-2ABE-4F7E-A414-48DBC1C300FF";
paths = (
{
closed = 1;
nodes = (
"645 496 OFFCURVE",
"626 528 OFFCURVE",
"618 539 OFFCURVE",
"604 554 OFFCURVE",
"591 562 OFFCURVE",
"580 567 QCURVE",
"537 586 OFFCURVE",
"469 568 QCURVE",
"375 543 OFFCURVE",
"260 386 OFFCURVE",
"263 294 QCURVE",
"266 219 OFFCURVE",
"305 178 QCURVE",
"324 158 OFFCURVE",
"396 134 OFFCURVE",
"437 135 QCURVE",
"522 138 OFFCURVE",
"564 187 QCURVE",
"568 192 OFFCURVE",
"575 206 QCURVE",
"595 248 OFFCURVE",
"597 250 QCURVE",
"611 275 OFFCURVE",
"669 301 OFFCURVE",
"720 283 OFFCURVE",
"735 233 OFFCURVE",
"720 206 QCURVE",
"717 200 OFFCURVE",
"712 189 OFFCURVE",
"708 182 QCURVE",
"704 171 LINE",
"687 137 OFFCURVE",
"668 114 QCURVE",
"619 57 OFFCURVE",
"482 1 OFFCURVE",
"412 -1 QCURVE",
"346 -3 OFFCURVE",
"228 35 OFFCURVE",
"191 74 QCURVE",
"124 144 OFFCURVE",
"119 261 QCURVE",
"115 330 OFFCURVE",
"166 476 OFFCURVE",
"251 592 OFFCURVE",
"381 679 OFFCURVE",
"457 699 QCURVE",
"575 731 OFFCURVE",
"659 694 QCURVE",
"680 685 OFFCURVE",
"713 663 OFFCURVE",
"727 648 QCURVE",
"746 625 LINE",
"754 617 OFFCURVE",
"765 599 QCURVE",
"779 574 LINE",
"793 552 OFFCURVE",
"776 496 OFFCURVE",
"724 459 OFFCURVE",
"667 464 OFFCURVE",
"653 485 QCURVE"
);
}
);
width = 737;
}
);
unicode = 0043;
},
{
glyphname = D;
lastChange = "2019-10-09 23:07:58 +0000";
layers = (
{
layerId = UUID0;
paths = (
{
closed = 1;
nodes = (
"227 99 LINE",
"286 99 OFFCURVE",
"319 102 QCURVE",
"418 109 OFFCURVE",
"478 150 QCURVE",
"530 185 OFFCURVE",
"608 302 OFFCURVE",
"624 368 QCURVE",
"641 434 OFFCURVE",
"630 490 QCURVE",
"618 547 OFFCURVE",
"579 580 QCURVE",
"548 607 OFFCURVE",
"499 619 QCURVE",
"450 631 OFFCURVE",
"345 628 OFFCURVE",
"284 623 QCURVE",
"277 594 OFFCURVE",
"264 518 QCURVE",
"244 409 OFFCURVE",
"234 365 QCURVE",
"228 335 OFFCURVE",
"203 228 OFFCURVE",
"182 138 OFFCURVE",
"174 99 QCURVE"
);
},
{
closed = 1;
nodes = (
"328 726 OFFCURVE",
"382 729 OFFCURVE",
"480 729 OFFCURVE",
"548 716 OFFCURVE",
"626 686 OFFCURVE",
"654 662 QCURVE",
"713 611 OFFCURVE",
"745 452 OFFCURVE",
"723 364 QCURVE",
"702 279 OFFCURVE",
"650 200 QCURVE",
"597 122 OFFCURVE",
"524 72 QCURVE",
"436 12 OFFCURVE",
"306 2 QCURVE",
"267 -1 OFFCURVE",
"205 -1 QCURVE",
"138 -1 OFFCURVE",
"114 -2 QCURVE",
"99 -3 OFFCURVE",
"88 5 QCURVE",
"73 10 OFFCURVE",
"59 37 OFFCURVE",
"63 54 QCURVE",
"70 86 OFFCURVE",
"135 367 QCURVE",
"145 413 OFFCURVE",
"163 514 QCURVE",
"180 613 OFFCURVE",
"194 668 QCURVE",
"200 689 OFFCURVE",
"237 717 OFFCURVE",
"257 716 QCURVE",
"261 716 LINE",
"271 721 OFFCURVE",
"281 722 QCURVE"
);
}
);
width = 693;
},
{
layerId = "3644BD71-2ABE-4F7E-A414-48DBC1C300FF";
paths = (
{
closed = 1;
nodes = (
"271 138 OFFCURVE",
"300 139 QCURVE",
"375 142 OFFCURVE",
"414 159 QCURVE",
"480 188 OFFCURVE",
"573 324 OFFCURVE",
"591 491 OFFCURVE",
"552 535 QCURVE",
"521 570 OFFCURVE",
"405 588 OFFCURVE",
"315 581 QCURVE",
"294 486 OFFCURVE",
"272 384 OFFCURVE",
"232 184 OFFCURVE",
"222 138 QCURVE"
);
},
{
closed = 1;
nodes = (
"337 720 OFFCURVE",
"374 722 OFFCURVE",
"460 725 OFFCURVE",
"516 715 OFFCURVE",
"588 698 OFFCURVE",
"646 662 OFFCURVE",
"668 637 QCURVE",
"710 590 OFFCURVE",
"735 458 OFFCURVE",
"700 303 OFFCURVE",
"629 172 OFFCURVE",
"516 65 OFFCURVE",
"450 35 QCURVE",
"381 5 OFFCURVE",
"277 0 QCURVE",
"255 -1 OFFCURVE",
"148 0 OFFCURVE",
"134 0 QCURVE",
"127 0 OFFCURVE",
"121 1 QCURVE",
"93 2 OFFCURVE",
"62 43 OFFCURVE",
"68 71 QCURVE",
"78 116 OFFCURVE",
"177 601 OFFCURVE",
"191 647 QCURVE",
"198 674 OFFCURVE",
"249 714 OFFCURVE",
"278 713 QCURVE",
"288 716 OFFCURVE",
"297 716 QCURVE"
);
}
);
width = 693;
}
);
unicode = 0044;
},
{
glyphname = E;
lastChange = "2019-10-09 23:07:58 +0000";
layers = (
{
layerId = UUID0;
paths = (
{
closed = 1;
nodes = (
"355 714 OFFCURVE",
"631 716 OFFCURVE",
"681 716 QCURVE",
"702 716 OFFCURVE",
"725 687 OFFCURVE",
"716 645 OFFCURVE",
"680 616 OFFCURVE",
"659 616 QCURVE",
"606 616 OFFCURVE",
"355 614 OFFCURVE",
"287 613 QCURVE",
"281 599 OFFCURVE",
"257 474 OFFCURVE",
"252 450 QCURVE",
"243 409 LINE",
"293 412 OFFCURVE",
"404 412 OFFCURVE",
"545 410 OFFCURVE",
"579 410 QCURVE",
"600 410 OFFCURVE",
"622 381 OFFCURVE",
"614 339 OFFCURVE",
"578 310 OFFCURVE",
"557 310 QCURVE",
"522 310 OFFCURVE",
"382 312 OFFCURVE",
"272 312 OFFCURVE",
"221 309 QCURVE",
"191 167 OFFCURVE",
"177 106 QCURVE",
"420 102 OFFCURVE",
"554 104 QCURVE",
"575 104 OFFCURVE",
"599 76 OFFCURVE",
"590 34 OFFCURVE",
"555 4 OFFCURVE",
"534 4 QCURVE",
"399 2 OFFCURVE",
"110 7 QCURVE",
"90 7 OFFCURVE",
"67 37 OFFCURVE",
"72 57 QCURVE",
"68 69 OFFCURVE",
"71 82 QCURVE",
"87 150 OFFCURVE",
"142 406 OFFCURVE",
"153 452 QCURVE",
"156 469 OFFCURVE",
"172 554 OFFCURVE",
"190 627 OFFCURVE",
"202 659 QCURVE",
"207 673 OFFCURVE",
"231 695 OFFCURVE",
"246 699 QCURVE",
"262 711 OFFCURVE",
"281 712 QCURVE"
);
}
);
width = 637;
},
{
layerId = "3644BD71-2ABE-4F7E-A414-48DBC1C300FF";
paths = (
{
closed = 1;
nodes = (
"359 717 OFFCURVE",
"607 716 OFFCURVE",
"680 717 QCURVE",
"709 717 OFFCURVE",
"741 677 OFFCURVE",
"729 620 OFFCURVE",
"682 579 OFFCURVE",
"653 579 QCURVE",
"597 579 OFFCURVE",
"375 580 OFFCURVE",
"319 579 QCURVE",
"303 518 OFFCURVE",
"284 435 QCURVE",
"332 436 OFFCURVE",
"580 436 QCURVE",
"609 436 OFFCURVE",
"642 396 OFFCURVE",
"630 339 OFFCURVE",
"580 298 OFFCURVE",
"551 298 QCURVE",
"302 298 OFFCURVE",
"256 297 QCURVE",
"234 185 OFFCURVE",
"223 139 QCURVE",
"426 137 OFFCURVE",
"562 137 QCURVE",
"591 137 OFFCURVE",
"622 97 OFFCURVE",
"610 39 OFFCURVE",
"561 -1 OFFCURVE",
"532 -1 QCURVE",
"384 -1 OFFCURVE",
"129 2 QCURVE",
"109 2 OFFCURVE",
"81 25 OFFCURVE",
"76 42 QCURVE",
"68 60 OFFCURVE",
"73 81 QCURVE",
"81 116 OFFCURVE",
"132 363 QCURVE",
"169 543 OFFCURVE",
"201 646 QCURVE",
"205 659 OFFCURVE",
"212 670 QCURVE",
"224 690 OFFCURVE",
"263 715 OFFCURVE",
"286 716 QCURVE"
);
}
);
width = 637;
}
);
unicode = 0045;
},
{
glyphname = F;
lastChange = "2019-10-09 23:07:58 +0000";
layers = (
{
layerId = UUID0;
paths = (
{
closed = 1;
nodes = (
"529 719 OFFCURVE",
"657 714 QCURVE",
"678 713 OFFCURVE",
"700 683 OFFCURVE",
"689 641 OFFCURVE",
"653 613 OFFCURVE",
"632 614 QCURVE",
"507 619 OFFCURVE",
"282 615 QCURVE",
"268 521 OFFCURVE",
"245 408 QCURVE",
"311 408 OFFCURVE",
"543 411 QCURVE",
"564 411 OFFCURVE",
"588 382 OFFCURVE",
"579 341 OFFCURVE",
"544 311 OFFCURVE",
"524 311 QCURVE",
"291 308 OFFCURVE",
"224 308 QCURVE",
"217 275 OFFCURVE",
"177 96 OFFCURVE",
"167 48 QCURVE",
"162 27 OFFCURVE",
"127 -2 OFFCURVE",
"85 -2 OFFCURVE",
"62 27 OFFCURVE",
"67 48 QCURVE",
"75 87 OFFCURVE",
"138 369 OFFCURVE",
"173 550 OFFCURVE",
"186 644 QCURVE",
"188 650 OFFCURVE",
"190 656 QCURVE",
"190 660 OFFCURVE",
"190 663 QCURVE",
"195 684 OFFCURVE",
"229 714 OFFCURVE",
"250 714 QCURVE"
);
}
);
width = 542;
},
{
layerId = "3644BD71-2ABE-4F7E-A414-48DBC1C300FF";
paths = (
{
closed = 1;
nodes = (
"414 720 OFFCURVE",
"647 718 QCURVE",
"675 718 OFFCURVE",
"692 697 QCURVE",
"707 676 OFFCURVE",
"695 619 OFFCURVE",
"644 578 OFFCURVE",
"615 578 QCURVE",
"430 580 OFFCURVE",
"316 579 QCURVE",
"304 515 OFFCURVE",
"290 445 QCURVE",
"431 445 OFFCURVE",
"551 448 QCURVE",
"580 448 OFFCURVE",
"613 408 OFFCURVE",
"602 351 OFFCURVE",
"553 309 OFFCURVE",
"525 308 QCURVE",
"405 306 OFFCURVE",
"261 305 QCURVE",
"233 174 LINE",
"211 70 LINE",
"205 41 OFFCURVE",
"156 0 OFFCURVE",
"98 0 OFFCURVE",
"65 41 OFFCURVE",
"71 70 QCURVE",
"76 91 OFFCURVE",
"127 326 OFFCURVE",
"144 412 OFFCURVE",
"177 579 OFFCURVE",
"188 645 QCURVE",
"193 674 OFFCURVE",
"241 716 OFFCURVE",
"270 718 QCURVE",
"274 718 LINE",
"275 718 LINE"
);
}
);
width = 614;
}
);
unicode = 0046;
},
{
glyphname = G;
lastChange = "2019-10-09 23:07:58 +0000";
layers = (
{
layerId = UUID0;
paths = (
{
closed = 1;
nodes = (
"594 395 OFFCURVE",
"707 395 QCURVE",
"728 395 OFFCURVE",
"751 366 OFFCURVE",
"747 345 QCURVE",
"745 338 LINE",
"740 232 OFFCURVE",
"583 44 OFFCURVE",
"471 12 QCURVE",
"362 -19 OFFCURVE",
"153 85 OFFCURVE",
"118 175 QCURVE",
"93 241 OFFCURVE",
"105 386 OFFCURVE",
"162 494 OFFCURVE",
"258 606 OFFCURVE",
"317 646 QCURVE",
"380 687 OFFCURVE",
"512 722 OFFCURVE",
"639 705 OFFCURVE",
"753 615 OFFCURVE",
"790 536 QCURVE",
"799 519 OFFCURVE",
"782 479 OFFCURVE",
"743 455 OFFCURVE",
"705 463 OFFCURVE",
"697 480 QCURVE",
"667 541 OFFCURVE",
"585 609 OFFCURVE",
"494 620 OFFCURVE",
"450 608 QCURVE",
"406 595 OFFCURVE",
"362 566 QCURVE",
"301 525 OFFCURVE",
"259 468 QCURVE",
"219 419 OFFCURVE",
"191 289 OFFCURVE",
"215 227 QCURVE",
"239 163 OFFCURVE",
"392 88 OFFCURVE",
"463 108 QCURVE",
"528 126 OFFCURVE",
"627 232 OFFCURVE",
"639 295 QCURVE",
"552 294 OFFCURVE",
"451 289 QCURVE",
"431 288 OFFCURVE",
"406 316 OFFCURVE",
"412 357 OFFCURVE",
"447 388 OFFCURVE",
"468 389 QCURVE"
);
}
);
width = 734;
},
{
layerId = "3644BD71-2ABE-4F7E-A414-48DBC1C300FF";
paths = (
{
closed = 1;
nodes = (
"609 392 OFFCURVE",
"711 392 QCURVE",
"740 392 OFFCURVE",
"756 371 QCURVE",
"774 350 OFFCURVE",
"766 319 QCURVE",
"761 296 LINE",
"757 272 OFFCURVE",
"744 225 OFFCURVE",
"736 207 QCURVE",
"715 162 OFFCURVE",
"666 115 QCURVE",
"606 57 OFFCURVE",
"467 -2 OFFCURVE",
"339 -1 OFFCURVE",
"225 43 OFFCURVE",
"142 133 OFFCURVE",
"124 192 QCURVE",
"102 265 OFFCURVE",
"134 424 OFFCURVE",
"177 490 QCURVE",
"219 557 OFFCURVE",
"282 609 QCURVE",
"346 663 OFFCURVE",
"417 691 QCURVE",
"490 720 OFFCURVE",
"648 714 OFFCURVE",
"713 670 QCURVE",
"731 660 OFFCURVE",
"756 635 OFFCURVE",
"778 605 OFFCURVE",
"788 588 OFFCURVE",
"808 550 OFFCURVE",
"811 545 QCURVE",
"823 522 OFFCURVE",
"803 465 OFFCURVE",
"750 431 OFFCURVE",
"696 439 OFFCURVE",
"683 462 QCURVE",
"668 488 LINE",
"657 510 LINE",
"654 516 OFFCURVE",
"641 534 OFFCURVE",
"628 545 OFFCURVE",
"619 552 QCURVE",
"556 588 OFFCURVE",
"422 565 OFFCURVE",
"361 513 QCURVE",
"297 461 OFFCURVE",
"242 324 OFFCURVE",
"260 256 QCURVE",
"279 191 OFFCURVE",
"389 129 OFFCURVE",
"524 152 OFFCURVE",
"578 204 QCURVE",
"603 227 OFFCURVE",
"609 241 QCURVE",
"612 248 OFFCURVE",
"614 254 QCURVE",
"586 255 OFFCURVE",
"504 251 QCURVE",
"475 250 OFFCURVE",
"441 288 OFFCURVE",
"451 346 OFFCURVE",
"498 388 OFFCURVE",
"527 389 QCURVE"
);
}
);
width = 762;
}
);
unicode = 0047;
},
{
glyphname = H;
lastChange = "2019-10-09 23:07:58 +0000";
layers = (
{
layerId = UUID0;
paths = (
{
closed = 1;
nodes = (
"716 543 OFFCURVE",
"697 461 QCURVE",
"676 362 OFFCURVE",
"629 115 OFFCURVE",
"615 50 QCURVE",
"611 29 OFFCURVE",
"576 0 OFFCURVE",
"534 0 OFFCURVE",
"511 29 OFFCURVE",
"515 50 QCURVE",
"523 85 OFFCURVE",
"569 318 QCURVE",
"461 319 OFFCURVE",
"223 311 QCURVE",
"191 142 OFFCURVE",
"169 49 QCURVE",
"164 28 OFFCURVE",
"129 0 OFFCURVE",
"87 0 OFFCURVE",
"65 30 OFFCURVE",
"69 51 QCURVE",
"91 143 OFFCURVE",
"167 550 OFFCURVE",
"196 668 QCURVE",
"202 688 OFFCURVE",
"238 717 OFFCURVE",
"278 715 OFFCURVE",
"301 685 OFFCURVE",
"296 664 QCURVE",
"270 557 OFFCURVE",
"242 411 QCURVE",
"480 419 OFFCURVE",
"589 418 QCURVE",
"617 554 OFFCURVE",
"647 666 QCURVE",
"653 687 OFFCURVE",
"689 714 OFFCURVE",
"731 712 OFFCURVE",
"751 681 OFFCURVE",
"746 660 QCURVE"
);
}
);
width = 660;
},
{
layerId = "3644BD71-2ABE-4F7E-A414-48DBC1C300FF";
paths = (
{
closed = 1;
nodes = (
"765 582 OFFCURVE",
"656 69 QCURVE",
"650 40 OFFCURVE",
"600 -1 OFFCURVE",
"542 -1 OFFCURVE",
"510 40 OFFCURVE",
"516 69 QCURVE",
"570 320 LINE",
"466 321 OFFCURVE",
"259 314 QCURVE",
"226 150 OFFCURVE",
"209 69 QCURVE",
"203 41 OFFCURVE",
"153 0 OFFCURVE",
"96 0 OFFCURVE",
"63 42 OFFCURVE",
"70 71 QCURVE",
"87 148 OFFCURVE",
"167 555 OFFCURVE",
"190 650 QCURVE",
"197 679 OFFCURVE",
"247 718 OFFCURVE",
"305 717 OFFCURVE",
"335 675 OFFCURVE",
"329 646 QCURVE",
"311 570 OFFCURVE",
"287 454 QCURVE",
"493 460 OFFCURVE",
"599 460 QCURVE",
"623 570 OFFCURVE",
"640 649 QCURVE",
"648 678 OFFCURVE",
"697 718 OFFCURVE",
"755 717 OFFCURVE",
"786 676 OFFCURVE",
"780 647 QCURVE"
);
}
);
width = 693;
}
);
unicode = 0048;
},
{
glyphname = I;
lastChange = "2019-10-09 23:07:58 +0000";
layers = (
{
layerId = UUID0;
paths = (
{
closed = 1;
nodes = (
"306 715 OFFCURVE",
"379 714 QCURVE",
"399 714 OFFCURVE",
"422 684 OFFCURVE",
"413 643 OFFCURVE",
"377 614 OFFCURVE",
"356 614 QCURVE",
"348 614 LINE",
"306 409 OFFCURVE",
"241 100 QCURVE",
"261 100 LINE",
"282 100 OFFCURVE",
"305 71 OFFCURVE",
"296 29 OFFCURVE",
"261 0 OFFCURVE",
"240 0 QCURVE",
"163 0 OFFCURVE",
"101 -2 QCURVE",
"80 -3 OFFCURVE",
"56 26 OFFCURVE",
"63 67 OFFCURVE",
"98 97 OFFCURVE",
"118 98 QCURVE",
"141 99 LINE",
"207 410 OFFCURVE",
"248 616 QCURVE",
"232 616 LINE",
"211 616 OFFCURVE",
"190 646 OFFCURVE",
"199 688 OFFCURVE",
"235 716 OFFCURVE",
"256 716 QCURVE"
);
}
);
width = 339;
},
{
layerId = "3644BD71-2ABE-4F7E-A414-48DBC1C300FF";
paths = (
{
closed = 1;
nodes = (
"386 714 LINE",
"415 714 OFFCURVE",
"446 672 OFFCURVE",
"440 643 QCURVE",
"435 618 OFFCURVE",
"394 580 OFFCURVE",
"368 575 QCURVE",
"315 312 OFFCURVE",
"277 139 QCURVE",
"301 135 OFFCURVE",
"326 97 OFFCURVE",
"322 72 QCURVE",
"316 43 OFFCURVE",
"268 1 OFFCURVE",
"239 0 QCURVE",
"121 -3 LINE",
"92 -3 OFFCURVE",
"58 36 OFFCURVE",
"63 65 QCURVE",
"69 91 OFFCURVE",
"111 132 OFFCURVE",
"136 136 QCURVE",
"174 310 OFFCURVE",
"229 577 QCURVE",
"206 582 OFFCURVE",
"182 620 OFFCURVE",
"188 646 QCURVE",
"194 675 OFFCURVE",
"244 715 OFFCURVE",
"273 715 QCURVE"
);
}
);
width = 357;
}
);
unicode = 0049;
},
{
glyphname = J;
lastChange = "2019-10-09 23:07:58 +0000";
layers = (
{
layerId = UUID0;
paths = (
{
closed = 1;
nodes = (
"618 717 OFFCURVE",
"681 715 QCURVE",
"701 714 OFFCURVE",
"724 684 OFFCURVE",
"713 643 OFFCURVE",
"677 614 OFFCURVE",
"656 615 QCURVE",
"594 617 LINE",
"544 265 OFFCURVE",
"460 125 QCURVE",
"428 73 OFFCURVE",
"320 9 OFFCURVE",
"264 2 QCURVE",
"204 -5 OFFCURVE",
"108 42 OFFCURVE",
"95 99 QCURVE",
"91 111 OFFCURVE",
"90 146 OFFCURVE",
"92 180 OFFCURVE",
"91 181 QCURVE",
"91 201 OFFCURVE",
"120 236 OFFCURVE",
"163 245 OFFCURVE",
"193 224 OFFCURVE",
"194 203 QCURVE",
"193 188 OFFCURVE",
"192 162 OFFCURVE",
"192 149 OFFCURVE",
"193 141 QCURVE",
"200 119 OFFCURVE",
"241 97 OFFCURVE",
"305 105 OFFCURVE",
"361 139 OFFCURVE",
"374 161 QCURVE",
"405 212 OFFCURVE",
"454 377 OFFCURVE",
"478 514 OFFCURVE",
"493 616 QCURVE",
"448 615 OFFCURVE",
"406 612 QCURVE",
"384 611 OFFCURVE",
"359 638 OFFCURVE",
"365 679 OFFCURVE",
"398 710 OFFCURVE",
"419 712 QCURVE",
"486 716 OFFCURVE",
"558 717 QCURVE",
"564 717 LINE"
);
}
);
width = 630;
},
{
layerId = "3644BD71-2ABE-4F7E-A414-48DBC1C300FF";
paths = (
{
closed = 1;
nodes = (
"588 721 OFFCURVE",
"684 716 QCURVE",
"712 714 OFFCURVE",
"741 671 OFFCURVE",
"726 613 OFFCURVE",
"675 575 OFFCURVE",
"646 576 QCURVE",
"622 578 OFFCURVE",
"598 578 QCURVE",
"586 490 OFFCURVE",
"568 387 OFFCURVE",
"547 316 QCURVE",
"523 234 OFFCURVE",
"492 171 QCURVE",
"466 118 OFFCURVE",
"370 32 OFFCURVE",
"316 13 QCURVE",
"274 -1 OFFCURVE",
"199 -1 OFFCURVE",
"132 42 OFFCURVE",
"113 82 QCURVE",
"101 107 OFFCURVE",
"100 146 QCURVE",
"100 147 OFFCURVE",
"99 170 QCURVE",
"99 181 OFFCURVE",
"98 187 QCURVE",
"95 215 OFFCURVE",
"132 266 OFFCURVE",
"191 284 OFFCURVE",
"236 258 OFFCURVE",
"240 231 QCURVE",
"241 219 OFFCURVE",
"242 203 QCURVE",
"241 202 OFFCURVE",
"242 194 QCURVE",
"242 181 LINE",
"243 165 OFFCURVE",
"246 160 QCURVE",
"259 130 OFFCURVE",
"292 142 QCURVE",
"313 150 OFFCURVE",
"355 187 OFFCURVE",
"366 209 QCURVE",
"387 251 OFFCURVE",
"417 337 OFFCURVE",
"438 444 OFFCURVE",
"447 503 OFFCURVE",
"458 578 QCURVE",
"437 577 OFFCURVE",
"380 575 OFFCURVE",
"345 615 OFFCURVE",
"355 672 OFFCURVE",
"404 715 OFFCURVE",
"433 716 QCURVE"
);
}
);
width = 649;
}
);
unicode = 004A;
},
{
glyphname = K;
lastChange = "2019-10-09 23:07:58 +0000";
layers = (
{
layerId = UUID0;
paths = (
{
closed = 1;
nodes = (
"285 616 OFFCURVE",
"259 456 OFFCURVE",
"254 430 QCURVE",
"249 408 OFFCURVE",
"245 383 QCURVE",
"430 514 OFFCURVE",
"638 698 QCURVE",
"655 713 OFFCURVE",
"697 715 OFFCURVE",
"722 687 OFFCURVE",
"715 645 OFFCURVE",
"697 630 QCURVE",
"559 506 OFFCURVE",
"429 407 QCURVE",
"617 80 LINE",
"626 64 OFFCURVE",
"612 23 OFFCURVE",
"575 -3 OFFCURVE",
"535 2 OFFCURVE",
"525 18 QCURVE",
"340 341 LINE",
"218 255 LINE",
"194 138 OFFCURVE",
"180 52 QCURVE",
"176 31 OFFCURVE",
"143 0 OFFCURVE",
"100 -2 OFFCURVE",
"75 25 OFFCURVE",
"78 46 QCURVE",
"88 106 OFFCURVE",
"99 164 QCURVE",
"114 236 OFFCURVE",
"146 386 OFFCURVE",
"153 428 QCURVE",
"159 454 OFFCURVE",
"186 617 OFFCURVE",
"197 666 QCURVE",
"202 687 OFFCURVE",
"237 715 OFFCURVE",
"279 715 OFFCURVE",
"301 685 OFFCURVE",
"297 664 QCURVE"
);
}
);
width = 663;
},
{
layerId = "3644BD71-2ABE-4F7E-A414-48DBC1C300FF";
paths = (
{
closed = 1;
nodes = (
"304 530 OFFCURVE",
"282 418 QCURVE",
"468 552 OFFCURVE",
"634 703 QCURVE",
"658 724 OFFCURVE",
"716 726 OFFCURVE",
"750 686 OFFCURVE",
"740 629 OFFCURVE",
"716 607 QCURVE",
"594 495 OFFCURVE",
"472 402 QCURVE",
"639 106 LINE",
"652 84 OFFCURVE",
"642 55 QCURVE",
"633 26 OFFCURVE",
"580 -10 OFFCURVE",
"524 -3 OFFCURVE",
"511 20 QCURVE",
"347 309 LINE",
"249 240 LINE",
"234 159 OFFCURVE",
"218 65 QCURVE",
"213 37 OFFCURVE",
"165 -6 OFFCURVE",
"108 -9 OFFCURVE",
"73 30 OFFCURVE",
"77 59 QCURVE",
"128 367 OFFCURVE",
"194 659 QCURVE",
"201 688 OFFCURVE",
"250 728 OFFCURVE",
"308 727 OFFCURVE",
"339 686 OFFCURVE",
"333 657 QCURVE"
);
}
);
width = 685;
}
);
unicode = 004B;
},
{
glyphname = L;
lastChange = "2019-10-09 23:07:58 +0000";
layers = (
{
layerId = UUID0;
paths = (
{
closed = 1;
nodes = (
"74 52 OFFCURVE",
"74 56 QCURVE",
"86 113 OFFCURVE",
"168 537 OFFCURVE",
"196 671 QCURVE",
"201 692 OFFCURVE",
"236 721 OFFCURVE",
"278 721 OFFCURVE",
"301 692 OFFCURVE",
"296 671 QCURVE",
"275 570 OFFCURVE",
"238 384 OFFCURVE",
"196 161 OFFCURVE",
"182 98 QCURVE",
"234 97 OFFCURVE",
"450 101 OFFCURVE",
"506 100 QCURVE",
"527 100 OFFCURVE",
"548 70 OFFCURVE",
"539 28 OFFCURVE",
"504 0 OFFCURVE",
"483 0 QCURVE",
"429 1 OFFCURVE",
"296 -2 QCURVE",
"166 -4 OFFCURVE",
"111 -1 QCURVE",
"93 0 OFFCURVE",
"70 27 OFFCURVE",
"73 47 QCURVE"
);
}
);
width = 586;
},
{
layerId = "3644BD71-2ABE-4F7E-A414-48DBC1C300FF";
paths = (
{
closed = 1;
nodes = (
"67 46 OFFCURVE",
"72 75 QCURVE",
"93 177 OFFCURVE",
"130 364 QCURVE",
"187 645 LINE",
"193 674 OFFCURVE",
"241 715 OFFCURVE",
"300 716 OFFCURVE",
"332 676 OFFCURVE",
"327 647 QCURVE",
"274 385 LINE",
"225 137 LINE",
"274 137 OFFCURVE",
"461 139 OFFCURVE",
"505 139 QCURVE",
"534 139 OFFCURVE",
"566 98 OFFCURVE",
"554 40 OFFCURVE",
"504 -1 OFFCURVE",
"475 -1 QCURVE",
"442 -1 OFFCURVE",
"304 -2 QCURVE",
"165 -3 OFFCURVE",
"132 -2 QCURVE",
"98 -1 OFFCURVE",
"83 26 QCURVE"
);
}
);
width = 596;
}
);
unicode = 004C;
},
{
glyphname = M;
lastChange = "2019-10-09 23:07:58 +0000";
layers = (
{
layerId = UUID0;
paths = (
{
closed = 1;
nodes = (
"412 517 LINE",
"459 442 OFFCURVE",
"491 386 QCURVE",
"668 590 OFFCURVE",
"790 697 QCURVE",
"795 701 OFFCURVE",
"799 704 QCURVE",
"818 719 OFFCURVE",
"860 717 OFFCURVE",
"882 687 OFFCURVE",
"876 666 QCURVE",
"850 561 OFFCURVE",
"765 148 OFFCURVE",
"739 47 QCURVE",
"734 26 OFFCURVE",
"698 -2 OFFCURVE",
"657 0 OFFCURVE",
"635 30 OFFCURVE",
"640 51 QCURVE",
"651 81 OFFCURVE",
"738 499 OFFCURVE",
"744 529 QCURVE",
"646 429 OFFCURVE",
"512 273 QCURVE",
"497 255 OFFCURVE",
"454 247 OFFCURVE",
"439 258 QCURVE",
"439 259 OFFCURVE",
"438 259 QCURVE",
"430 265 OFFCURVE",
"426 273 QCURVE",
"396 332 OFFCURVE",
"322 452 QCURVE",
"273 530 LINE",
"260 455 OFFCURVE",
"240 358 QCURVE",
"229 310 OFFCURVE",
"183 104 OFFCURVE",
"171 51 QCURVE",
"167 30 OFFCURVE",
"132 1 OFFCURVE",
"90 1 OFFCURVE",
"67 30 OFFCURVE",
"71 51 QCURVE",
"83 104 OFFCURVE",
"129 310 OFFCURVE",
"140 359 QCURVE",
"180 546 OFFCURVE",
"192 660 QCURVE",
"194 681 OFFCURVE",
"227 713 OFFCURVE",
"248 715 QCURVE",
"259 716 OFFCURVE",
"267 713 QCURVE",
"290 712 OFFCURVE",
"301 694 QCURVE"
);
}
);
width = 789;
},
{
layerId = "3644BD71-2ABE-4F7E-A414-48DBC1C300FF";
paths = (
{
closed = 1;
nodes = (
"875 548 OFFCURVE",
"798 157 OFFCURVE",
"777 67 QCURVE",
"770 38 OFFCURVE",
"719 -2 OFFCURVE",
"662 0 OFFCURVE",
"630 42 OFFCURVE",
"638 71 QCURVE",
"653 136 OFFCURVE",
"717 455 QCURVE",
"623 362 OFFCURVE",
"529 256 QCURVE",
"507 232 OFFCURVE",
"448 221 OFFCURVE",
"428 237 QCURVE",
"425 239 OFFCURVE",
"424 241 QCURVE",
"414 248 OFFCURVE",
"408 258 QCURVE",
"296 452 LINE",
"296 450 OFFCURVE",
"215 71 OFFCURVE",
"214 70 QCURVE",
"208 41 OFFCURVE",
"159 0 OFFCURVE",
"101 0 OFFCURVE",
"68 41 OFFCURVE",
"74 70 QCURVE",
"83 112 OFFCURVE",
"126 310 OFFCURVE",
"149 418 OFFCURVE",
"164 498 QCURVE",
"177 569 OFFCURVE",
"189 645 QCURVE",
"193 674 OFFCURVE",
"240 718 OFFCURVE",
"270 720 QCURVE",
"285 721 OFFCURVE",
"297 716 QCURVE",
"324 712 OFFCURVE",
"336 689 QCURVE",
"499 410 LINE",
"639 560 OFFCURVE",
"776 680 QCURVE",
"805 716 OFFCURVE",
"845 715 QCURVE",
"874 714 OFFCURVE",
"905 672 OFFCURVE",
"898 643 QCURVE"
);
}
);
width = 815;
}
);
unicode = 004D;
},
{
glyphname = N;
lastChange = "2019-10-09 23:07:58 +0000";
layers = (
{
layerId = UUID0;
paths = (
{
closed = 1;
nodes = (
"407 519 OFFCURVE",
"473 367 QCURVE",
"500 302 LINE",
"531 228 LINE",
"559 167 LINE",
"635 500 OFFCURVE",
"667 664 QCURVE",
"671 685 OFFCURVE",
"705 715 OFFCURVE",
"747 715 OFFCURVE",
"772 687 OFFCURVE",
"767 666 QCURVE",
"742 541 OFFCURVE",
"632 46 QCURVE",
"628 26 OFFCURVE",
"592 -3 OFFCURVE",
"572 -3 QCURVE",
"565 -3 OFFCURVE",
"559 -1 QCURVE",
"529 -6 OFFCURVE",
"515 16 QCURVE",
"495 49 OFFCURVE",
"454 132 OFFCURVE",
"441 162 QCURVE",
"408 241 LINE",
"377 313 LINE",
"331 418 OFFCURVE",
"268 534 QCURVE",
"249 450 OFFCURVE",
"189 126 OFFCURVE",
"173 49 QCURVE",
"168 28 OFFCURVE",
"133 -1 OFFCURVE",
"91 -1 OFFCURVE",
"68 28 OFFCURVE",
"73 49 QCURVE",
"86 109 OFFCURVE",
"166 532 OFFCURVE",
"194 646 QCURVE",
"198 661 OFFCURVE",
"210 674 QCURVE",
"217 692 OFFCURVE",
"234 704 QCURVE",
"253 717 OFFCURVE",
"293 712 OFFCURVE",
"302 696 QCURVE"
);
}
);
width = 681;
},
{
layerId = "3644BD71-2ABE-4F7E-A414-48DBC1C300FF";
paths = (
{
closed = 1;
nodes = (
"345 670 OFFCURVE",
"402 579 OFFCURVE",
"416 556 QCURVE",
"459 498 OFFCURVE",
"536 342 QCURVE",
"570 273 LINE",
"622 505 OFFCURVE",
"651 650 QCURVE",
"657 679 OFFCURVE",
"706 720 OFFCURVE",
"764 721 OFFCURVE",
"796 681 OFFCURVE",
"791 652 QCURVE",
"763 516 OFFCURVE",
"665 73 QCURVE",
"658 45 OFFCURVE",
"612 6 OFFCURVE",
"583 4 QCURVE",
"543 -3 OFFCURVE",
"523 28 QCURVE",
"473 107 OFFCURVE",
"404 262 QCURVE",
"327 419 OFFCURVE",
"292 475 QCURVE",
"285 435 OFFCURVE",
"235 160 OFFCURVE",
"215 69 QCURVE",
"209 40 OFFCURVE",
"159 -1 OFFCURVE",
"101 -1 OFFCURVE",
"69 40 OFFCURVE",
"75 69 QCURVE",
"94 157 OFFCURVE",
"166 550 OFFCURVE",
"192 651 QCURVE",
"199 680 OFFCURVE",
"250 720 OFFCURVE",
"278 719 QCURVE",
"292 718 OFFCURVE",
"304 713 QCURVE",
"322 707 OFFCURVE",
"332 691 QCURVE"
);
}
);
width = 704;
}
);
unicode = 004E;
},
{
glyphname = O;
lastChange = "2019-10-09 23:07:58 +0000";
layers = (
{
layerId = UUID0;
paths = (
{
closed = 1;
nodes = (
"424 626 OFFCURVE",
"273 489 OFFCURVE",
"237 384 QCURVE",
"214 312 OFFCURVE",
"222 189 OFFCURVE",
"257 147 QCURVE",
"292 104 OFFCURVE",
"358 96 QCURVE",
"448 83 OFFCURVE",
"537 145 QCURVE",
"626 207 OFFCURVE",
"679 312 QCURVE",
"711 381 OFFCURVE",
"728 500 OFFCURVE",
"679 594 OFFCURVE",
"627 614 QCURVE",
"619 615 OFFCURVE",
"601 619 OFFCURVE",
"576 621 OFFCURVE",
"568 622 QCURVE",
"543 623 LINE",
"526 624 OFFCURVE",
"520 624 QCURVE",
"515 624 OFFCURVE",
"511 625 QCURVE"
);
},
{
closed = 1;
nodes = (
"642 718 OFFCURVE",
"677 705 QCURVE",
"740 681 OFFCURVE",
"812 587 OFFCURVE",
"823 470 OFFCURVE",
"797 345 OFFCURVE",
"736 224 OFFCURVE",
"645 115 OFFCURVE",
"531 31 OFFCURVE",
"392 -10 OFFCURVE",
"323 -1 QCURVE",
"273 6 OFFCURVE",
"195 47 OFFCURVE",
"148 107 OFFCURVE",
"119 183 OFFCURVE",
"118 266 OFFCURVE",
"128 354 OFFCURVE",
"143 395 QCURVE",
"161 447 OFFCURVE",
"216 545 OFFCURVE",
"295 632 OFFCURVE",
"386 695 OFFCURVE",
"500 727 OFFCURVE",
"559 721 QCURVE",
"561 721 OFFCURVE",
"562 720 QCURVE"
);
}
);
width = 777;
},
{
layerId = "3644BD71-2ABE-4F7E-A414-48DBC1C300FF";
paths = (
{
closed = 1;
nodes = (
"501 587 OFFCURVE",
"485 588 OFFCURVE",
"481 588 QCURVE",
"469 588 OFFCURVE",
"466 587 QCURVE",
"392 566 OFFCURVE",
"280 427 OFFCURVE",
"262 331 QCURVE",
"246 246 OFFCURVE",
"310 137 OFFCURVE",
"385 135 QCURVE",
"450 132 OFFCURVE",
"581 225 OFFCURVE",
"625 301 QCURVE",
"672 386 OFFCURVE",
"671 524 OFFCURVE",
"626 560 QCURVE",
"614 569 OFFCURVE",
"600 578 OFFCURVE",
"577 583 OFFCURVE",
"565 584 OFFCURVE",
"520 586 OFFCURVE",
"505 587 QCURVE"
);
},
{
closed = 1;
nodes = (
"563 722 OFFCURVE",
"571 722 QCURVE",
"603 721 OFFCURVE",
"640 717 OFFCURVE",
"699 695 OFFCURVE",
"726 674 QCURVE",
"785 627 OFFCURVE",
"821 482 OFFCURVE",
"786 326 OFFCURVE",
"745 255 QCURVE",
"715 203 OFFCURVE",
"632 111 OFFCURVE",
"531 37 OFFCURVE",
"411 -5 OFFCURVE",
"352 -3 QCURVE",
"279 0 OFFCURVE",
"176 59 OFFCURVE",
"126 155 OFFCURVE",
"112 267 OFFCURVE",
"124 327 QCURVE",
"136 395 OFFCURVE",
"191 512 OFFCURVE",
"272 618 OFFCURVE",
"388 700 OFFCURVE",
"455 718 QCURVE",
"482 725 OFFCURVE",
"512 724 QCURVE",
"524 724 LINE",
"533 724 LINE",
"541 724 LINE",
"544 724 LINE",
"552 724 OFFCURVE",
"560 723 QCURVE"
);
}
);
width = 777;
}
);
unicode = 004F;
},
{
glyphname = P;
lastChange = "2019-10-09 23:07:58 +0000";
layers = (
{
layerId = UUID0;
paths = (
{
closed = 1;
nodes = (
"243 390 OFFCURVE",
"250 390 QCURVE",
"357 377 OFFCURVE",
"447 395 QCURVE",
"555 416 OFFCURVE",
"574 475 QCURVE",
"579 489 OFFCURVE",
"577 527 QCURVE",
"565 599 OFFCURVE",
"462 614 QCURVE",
"388 624 OFFCURVE",
"286 605 QCURVE",
"262 517 OFFCURVE",
"237 389 QCURVE"
);
},
{
closed = 1;
nodes = (
"405 726 OFFCURVE",
"496 713 QCURVE",
"656 690 OFFCURVE",
"678 563 QCURVE",
"684 502 OFFCURVE",
"659 425 OFFCURVE",
"609 364 OFFCURVE",
"544 326 OFFCURVE",
"481 303 OFFCURVE",
"447 297 QCURVE",
"340 276 OFFCURVE",
"218 290 QCURVE",
"182 98 OFFCURVE",
"171 47 QCURVE",
"167 26 OFFCURVE",
"132 -3 OFFCURVE",
"90 -3 OFFCURVE",
"67 26 OFFCURVE",
"71 47 QCURVE",
"74 57 OFFCURVE",
"127 342 QCURVE",
"165 539 OFFCURVE",
"201 662 QCURVE",
"208 683 OFFCURVE",
"244 709 OFFCURVE",
"265 708 QCURVE",
"275 707 OFFCURVE",
"283 702 QCURVE"
);
}
);
width = 626;
},
{
layerId = "3644BD71-2ABE-4F7E-A414-48DBC1C300FF";
paths = (
{
closed = 1;
nodes = (
"281 421 LINE",
"327 416 LINE",
"352 414 OFFCURVE",
"390 412 OFFCURVE",
"408 413 QCURVE",
"445 414 OFFCURVE",
"517 441 OFFCURVE",
"537 460 QCURVE",
"547 469 OFFCURVE",
"556 484 OFFCURVE",
"556 526 OFFCURVE",
"545 546 QCURVE",
"521 585 OFFCURVE",
"447 589 QCURVE",
"397 592 OFFCURVE",
"315 580 QCURVE",
"300 513 OFFCURVE",
"280 421 QCURVE"
);
},
{
closed = 1;
nodes = (
"417 733 OFFCURVE",
"485 729 QCURVE",
"620 720 OFFCURVE",
"671 634 QCURVE",
"711 568 OFFCURVE",
"681 418 OFFCURVE",
"623 367 QCURVE",
"574 324 OFFCURVE",
"446 276 OFFCURVE",
"385 273 QCURVE",
"364 272 OFFCURVE",
"319 274 OFFCURVE",
"255 280 OFFCURVE",
"251 281 QCURVE",
"221 130 OFFCURVE",
"207 63 QCURVE",
"201 34 OFFCURVE",
"151 -7 OFFCURVE",
"93 -7 OFFCURVE",
"61 34 OFFCURVE",
"73 92 OFFCURVE",
"180 616 OFFCURVE",
"190 645 QCURVE",
"197 674 OFFCURVE",
"247 713 OFFCURVE",
"276 713 QCURVE",
"281 713 OFFCURVE",
"286 712 QCURVE",
"288 712 OFFCURVE",
"291 713 QCURVE"
);
}
);
width = 643;
}
);
unicode = 0050;
},
{
glyphname = Q;
lastChange = "2019-10-09 23:07:58 +0000";
layers = (
{
layerId = UUID0;
paths = (
{
closed = 1;
nodes = (
"383 588 OFFCURVE",
"357 567 QCURVE",
"277 503 OFFCURVE",
"203 323 OFFCURVE",
"240 160 OFFCURVE",
"311 122 QCURVE",
"393 79 OFFCURVE",
"473 100 QCURVE",
"456 120 OFFCURVE",
"439 143 QCURVE",
"427 156 OFFCURVE",
"436 198 OFFCURVE",
"471 226 OFFCURVE",
"512 226 OFFCURVE",
"523 212 QCURVE",
"553 175 OFFCURVE",
"583 147 QCURVE",
"602 157 OFFCURVE",
"616 169 QCURVE",
"652 198 OFFCURVE",
"692 279 OFFCURVE",
"705 338 QCURVE",
"721 407 OFFCURVE",
"704 528 OFFCURVE",
"673 568 QCURVE",
"607 653 OFFCURVE",
"470 607 QCURVE",
"449 600 OFFCURVE",
"433 608 QCURVE"
);
},
{
closed = 1;
nodes = (
"597 730 OFFCURVE",
"720 688 OFFCURVE",
"758 637 QCURVE",
"800 582 OFFCURVE",
"823 423 OFFCURVE",
"804 336 QCURVE",
"788 265 OFFCURVE",
"729 146 OFFCURVE",
"670 98 QCURVE",
"663 94 OFFCURVE",
"656 88 QCURVE",
"698 61 OFFCURVE",
"747 42 QCURVE",
"765 35 OFFCURVE",
"770 17 QCURVE",
"775 -1 OFFCURVE",
"753 -39 OFFCURVE",
"713 -57 OFFCURVE",
"696 -50 QCURVE",
"615 -21 OFFCURVE",
"549 31 QCURVE",
"526 21 OFFCURVE",
"499 12 QCURVE",
"371 -31 OFFCURVE",
"249 34 QCURVE",
"170 75 OFFCURVE",
"104 230 OFFCURVE",
"129 401 OFFCURVE",
"227 576 OFFCURVE",
"303 638 QCURVE",
"315 646 OFFCURVE",
"339 663 OFFCURVE",
"354 670 QCURVE",
"378 683 LINE",
"387 688 OFFCURVE",
"404 695 QCURVE",
"428 703 LINE",
"434 706 OFFCURVE",
"471 720 OFFCURVE",
"472 720 QCURVE",
"499 730 OFFCURVE",
"517 715 QCURVE"
);
}
);
width = 822;
},
{
layerId = "3644BD71-2ABE-4F7E-A414-48DBC1C300FF";
paths = (
{
closed = 1;
nodes = (
"421 581 OFFCURVE",
"413 577 QCURVE",
"364 546 OFFCURVE",
"326 501 QCURVE",
"288 454 OFFCURVE",
"253 357 OFFCURVE",
"251 262 OFFCURVE",
"272 223 QCURVE",
"292 183 OFFCURVE",
"332 161 QCURVE",
"388 131 OFFCURVE",
"432 135 QCURVE",
"413 156 LINE",
"395 174 OFFCURVE",
"400 203 QCURVE",
"403 230 OFFCURVE",
"451 274 OFFCURVE",
"508 278 OFFCURVE",
"525 258 QCURVE",
"557 225 OFFCURVE",
"586 201 QCURVE",
"606 216 OFFCURVE",
"617 229 QCURVE",
"674 299 OFFCURVE",
"686 505 OFFCURVE",
"637 560 QCURVE",
"606 595 OFFCURVE",
"581 596 QCURVE",
"568 596 OFFCURVE",
"535 592 QCURVE",
"483 585 OFFCURVE",
"452 582 QCURVE",
"440 582 OFFCURVE",
"429 585 QCURVE"
);
},
{
closed = 1;
nodes = (
"545 728 LINE",
"591 734 OFFCURVE",
"614 733 QCURVE",
"656 732 OFFCURVE",
"720 698 OFFCURVE",
"751 662 QCURVE",
"802 604 OFFCURVE",
"831 426 OFFCURVE",
"780 232 OFFCURVE",
"720 158 QCURVE",
"709 145 OFFCURVE",
"696 132 QCURVE",
"727 117 LINE",
"750 106 OFFCURVE",
"762 54 OFFCURVE",
"728 2 OFFCURVE",
"671 -21 OFFCURVE",
"647 -9 QCURVE",
"593 15 OFFCURVE",
"555 37 QCURVE",
"523 23 OFFCURVE",
"494 14 QCURVE",
"415 -8 OFFCURVE",
"306 5 OFFCURVE",
"244 37 QCURVE",
"186 70 OFFCURVE",
"118 173 OFFCURVE",
"106 292 OFFCURVE",
"133 423 OFFCURVE",
"198 543 OFFCURVE",
"297 651 OFFCURVE",
"357 689 QCURVE",
"373 699 OFFCURVE",
"418 719 OFFCURVE",
"462 734 OFFCURVE",
"463 735 QCURVE",
"507 754 OFFCURVE",
"534 726 QCURVE"
);
}
);
width = 822;
}
);
unicode = 0051;
},
{
glyphname = R;
lastChange = "2019-10-09 23:07:58 +0000";
layers = (
{
layerId = UUID0;
paths = (
{
closed = 1;
nodes = (
"473 405 OFFCURVE",
"533 426 QCURVE",
"620 455 OFFCURVE",
"633 508 QCURVE",
"653 584 OFFCURVE",
"510 609 QCURVE",
"412 626 OFFCURVE",
"283 613 QCURVE",
"265 529 OFFCURVE",
"238 395 QCURVE",
"251 397 LINE",
"258 398 OFFCURVE",
"268 398 QCURVE",
"284 399 OFFCURVE",
"310 399 QCURVE",
"361 400 OFFCURVE",
"374 399 QCURVE",
"384 399 LINE"
);
},
{
closed = 1;
nodes = (
"313 716 OFFCURVE",
"455 719 OFFCURVE",
"547 707 QCURVE",
"580 702 OFFCURVE",
"635 685 OFFCURVE",
"693 652 OFFCURVE",
"729 609 OFFCURVE",
"743 544 OFFCURVE",
"733 504 QCURVE",
"705 395 OFFCURVE",
"572 341 QCURVE",
"594 321 OFFCURVE",
"607 293 QCURVE",
"616 272 OFFCURVE",
"629 210 OFFCURVE",
"634 161 OFFCURVE",
"641 85 OFFCURVE",
"643 62 QCURVE",
"645 43 OFFCURVE",
"617 6 OFFCURVE",
"575 -6 OFFCURVE",
"542 14 OFFCURVE",
"541 34 QCURVE",
"536 106 LINE",
"529 156 LINE",
"528 176 OFFCURVE",
"519 221 OFFCURVE",
"513 236 QCURVE",
"499 263 OFFCURVE",
"435 294 OFFCURVE",
"363 298 QCURVE",
"353 298 OFFCURVE",
"343 297 QCURVE",
"333 297 OFFCURVE",
"272 291 OFFCURVE",
"259 290 QCURVE",
"231 287 OFFCURVE",
"217 289 QCURVE",
"188 143 OFFCURVE",
"168 51 QCURVE",
"164 30 OFFCURVE",
"129 1 OFFCURVE",
"87 1 OFFCURVE",
"64 30 OFFCURVE",
"68 51 QCURVE",
"89 149 OFFCURVE",
"168 542 OFFCURVE",
"189 640 QCURVE",
"192 657 OFFCURVE",
"206 671 QCURVE",
"212 685 OFFCURVE",
"238 705 OFFCURVE",
"254 707 QCURVE"
);
}
);
width = 685;
},
{
layerId = "3644BD71-2ABE-4F7E-A414-48DBC1C300FF";
paths = (
{
closed = 1;
nodes = (
"389 302 OFFCURVE",
"350 301 OFFCURVE",
"349 301 QCURVE",
"310 300 OFFCURVE",
"289 299 QCURVE",
"264 299 LINE",
"259 299 LINE",
"231 163 OFFCURVE",
"211 69 QCURVE",
"205 40 OFFCURVE",
"155 -1 OFFCURVE",
"97 -1 OFFCURVE",
"65 40 OFFCURVE",
"71 69 QCURVE",
"95 182 OFFCURVE",
"171 556 OFFCURVE",
"190 649 QCURVE",
"197 678 OFFCURVE",
"246 719 OFFCURVE",
"275 719 QCURVE",
"280 719 LINE",
"427 737 OFFCURVE",
"546 718 QCURVE",
"638 704 OFFCURVE",
"685 665 QCURVE",
"756 607 OFFCURVE",
"730 509 QCURVE",
"703 413 OFFCURVE",
"597 357 QCURVE",
"624 315 OFFCURVE",
"644 198 OFFCURVE",
"643 87 QCURVE",
"644 59 OFFCURVE",
"603 9 OFFCURVE",
"544 -5 OFFCURVE",
"501 25 OFFCURVE",
"500 53 QCURVE",
"499 156 OFFCURVE",
"493 208 QCURVE",
"484 253 OFFCURVE",
"466 274 QCURVE",
"446 297 OFFCURVE",
"400 303 QCURVE"
);
},
{
closed = 1;
nodes = (
"441 444 OFFCURVE",
"447 445 QCURVE",
"508 455 OFFCURVE",
"548 475 QCURVE",
"586 494 OFFCURVE",
"591 517 QCURVE",
"598 537 OFFCURVE",
"581 550 QCURVE",
"556 571 OFFCURVE",
"495 580 QCURVE",
"421 592 OFFCURVE",
"317 585 QCURVE",
"304 524 OFFCURVE",
"287 439 QCURVE",
"290 439 LINE",
"375 449 OFFCURVE",
"433 443 QCURVE"
);
}
);
width = 685;
}
);
unicode = 0052;
},
{
glyphname = S;
lastChange = "2019-10-09 23:07:58 +0000";
layers = (
{
layerId = UUID0;
paths = (
{
closed = 1;
nodes = (
"595 510 OFFCURVE",
"597 520 QCURVE",
"598 525 LINE",
"600 532 LINE",
"600 536 LINE",
"589 574 OFFCURVE",
"484 625 OFFCURVE",
"415 624 QCURVE",
"351 624 OFFCURVE",
"309 596 QCURVE",
"271 572 OFFCURVE",
"267 528 QCURVE",
"262 492 OFFCURVE",
"315 462 QCURVE",
"346 444 OFFCURVE",
"467 400 QCURVE",
"580 359 OFFCURVE",
"620 323 QCURVE",
"694 255 OFFCURVE",
"635 151 QCURVE",
"611 109 OFFCURVE",
"516 44 OFFCURVE",
"416 9 OFFCURVE",
"365 2 QCURVE",
"327 -5 OFFCURVE",
"249 0 OFFCURVE",
"180 17 OFFCURVE",
"125 61 OFFCURVE",
"115 93 QCURVE",
"110 110 OFFCURVE",
"105 151 OFFCURVE",
"105 198 OFFCURVE",
"104 203 QCURVE",
"102 222 OFFCURVE",
"129 256 OFFCURVE",
"171 267 OFFCURVE",
"204 249 OFFCURVE",
"206 230 QCURVE",
"208 212 OFFCURVE",
"208 174 OFFCURVE",
"210 149 OFFCURVE",
"214 138 QCURVE",
"223 113 OFFCURVE",
"305 88 OFFCURVE",
"433 105 OFFCURVE",
"530 153 OFFCURVE",
"546 181 QCURVE",
"558 206 OFFCURVE",
"555 235 OFFCURVE",
"541 250 QCURVE",
"511 276 OFFCURVE",
"415 311 QCURVE",
"411 312 OFFCURVE",
"382 321 QCURVE",
"345 335 LINE",
"335 339 OFFCURVE",
"293 356 OFFCURVE",
"262 370 OFFCURVE",
"249 377 QCURVE",
"154 433 OFFCURVE",
"164 518 QCURVE",
"176 617 OFFCURVE",
"263 672 QCURVE",
"336 718 OFFCURVE",
"434 720 QCURVE",
"525 722 OFFCURVE",
"680 648 OFFCURVE",
"700 577 QCURVE",
"706 560 OFFCURVE",
"701 536 QCURVE",
"698 522 LINE",
"697 517 OFFCURVE",
"698 514 QCURVE",
"696 494 OFFCURVE",
"664 463 OFFCURVE",
"620 459 OFFCURVE",
"593 483 OFFCURVE",
"594 503 QCURVE"
);
}
);
width = 666;
},
{
layerId = "3644BD71-2ABE-4F7E-A414-48DBC1C300FF";
paths = (
{
closed = 1;
nodes = (
"546 478 OFFCURVE",
"544 516 QCURVE",
"543 526 OFFCURVE",
"543 529 QCURVE",
"532 552 OFFCURVE",
"462 587 OFFCURVE",
"417 588 QCURVE",
"336 588 OFFCURVE",
"317 532 QCURVE",
"311 517 OFFCURVE",
"315 498 OFFCURVE",
"326 488 QCURVE",
"349 467 OFFCURVE",
"426 439 QCURVE",
"532 401 OFFCURVE",
"565 380 QCURVE",
"652 326 OFFCURVE",
"647 235 QCURVE",
"645 185 OFFCURVE",
"595 100 OFFCURVE",
"519 44 OFFCURVE",
"480 27 QCURVE",
"440 9 OFFCURVE",
"401 0 QCURVE",
"361 -9 OFFCURVE",
"321 -9 QCURVE",
"280 -10 OFFCURVE",
"202 6 OFFCURVE",
"139 52 OFFCURVE",
"123 89 QCURVE",
"113 116 OFFCURVE",
"113 157 QCURVE",
"113 158 OFFCURVE",
"113 183 QCURVE",
"114 195 OFFCURVE",
"113 202 QCURVE",
"111 230 OFFCURVE",
"150 280 OFFCURVE",
"209 296 OFFCURVE",
"253 268 OFFCURVE",
"256 240 QCURVE",
"257 227 OFFCURVE",
"256 210 QCURVE",
"256 209 OFFCURVE",
"256 191 OFFCURVE",
"256 186 QCURVE",
"255 168 OFFCURVE",
"259 161 QCURVE",
"266 143 OFFCURVE",
"336 125 OFFCURVE",
"397 136 QCURVE",
"452 148 OFFCURVE",
"503 192 OFFCURVE",
"505 213 QCURVE",
"506 236 OFFCURVE",
"472 257 QCURVE",
"447 273 OFFCURVE",
"354 307 QCURVE",
"254 343 OFFCURVE",
"218 377 QCURVE",
"144 445 OFFCURVE",
"183 552 QCURVE",
"200 599 OFFCURVE",
"261 670 OFFCURVE",
"336 709 OFFCURVE",
"411 727 OFFCURVE",
"448 727 QCURVE",
"522 727 OFFCURVE",
"650 663 OFFCURVE",
"675 605 QCURVE",
"686 584 OFFCURVE",
"687 551 QCURVE",
"687 549 OFFCURVE",
"688 527 OFFCURVE",
"688 520 QCURVE",
"691 493 OFFCURVE",
"654 441 OFFCURVE",
"596 423 OFFCURVE",
"550 449 OFFCURVE",
"547 476 QCURVE"
);
}
);
width = 656;
}
);
unicode = 0053;
},
{
glyphname = T;
lastChange = "2019-10-09 23:07:58 +0000";
layers = (
{
layerId = UUID0;
paths = (
{
closed = 1;
nodes = (
"338 716 OFFCURVE",
"643 714 OFFCURVE",
"729 715 QCURVE",
"750 715 OFFCURVE",
"775 687 OFFCURVE",
"766 645 OFFCURVE",
"731 615 OFFCURVE",
"710 615 QCURVE",
"639 614 OFFCURVE",
"518 614 QCURVE",
"491 518 OFFCURVE",
"453 336 QCURVE",
"402 87 OFFCURVE",
"393 50 QCURVE",
"389 29 OFFCURVE",
"353 1 OFFCURVE",
"311 1 OFFCURVE",
"289 31 OFFCURVE",
"294 52 QCURVE",
"302 87 OFFCURVE",
"353 335 QCURVE",
"390 516 OFFCURVE",
"418 615 QCURVE",
"309 616 OFFCURVE",
"234 613 QCURVE",
"213 612 OFFCURVE",
"189 641 OFFCURVE",
"195 682 OFFCURVE",
"231 712 OFFCURVE",
"251 713 QCURVE"
);
}
);
width = 672;
},
{
layerId = "3644BD71-2ABE-4F7E-A414-48DBC1C300FF";
paths = (
{
closed = 1;
nodes = (
"335 720 OFFCURVE",
"631 719 OFFCURVE",
"695 721 QCURVE",
"724 721 OFFCURVE",
"757 681 OFFCURVE",
"746 624 OFFCURVE",
"697 582 OFFCURVE",
"669 581 QCURVE",
"606 580 OFFCURVE",
"519 580 QCURVE",
"495 493 OFFCURVE",
"467 355 QCURVE",
"415 100 OFFCURVE",
"407 69 QCURVE",
"400 40 OFFCURVE",
"351 0 OFFCURVE",
"293 1 OFFCURVE",
"261 42 OFFCURVE",
"268 71 QCURVE",
"275 102 OFFCURVE",
"327 354 QCURVE",
"354 489 OFFCURVE",
"379 580 QCURVE",
"299 580 OFFCURVE",
"244 579 QCURVE",
"215 579 OFFCURVE",
"182 619 OFFCURVE",
"193 677 OFFCURVE",
"242 718 OFFCURVE",
"271 719 QCURVE"
);
}
);
width = 664;
}
);
unicode = 0054;
},
{
glyphname = U;
lastChange = "2019-10-09 23:07:58 +0000";
layers = (
{
layerId = UUID0;
paths = (
{
closed = 1;
nodes = (
"775 644 OFFCURVE",
"758 540 QCURVE",
"745 454 OFFCURVE",
"732 399 QCURVE",
"693 232 OFFCURVE",
"601 127 QCURVE",
"551 70 OFFCURVE",
"410 4 OFFCURVE",
"275 -4 OFFCURVE",
"155 55 OFFCURVE",
"126 117 QCURVE",
"107 160 OFFCURVE",
"115 245 QCURVE",
"122 308 OFFCURVE",
"143 394 QCURVE",
"157 450 OFFCURVE",
"211 640 OFFCURVE",
"217 668 QCURVE",
"222 689 OFFCURVE",
"258 717 OFFCURVE",
"300 717 OFFCURVE",
"322 687 OFFCURVE",
"317 666 QCURVE",
"310 639 OFFCURVE",
"257 447 OFFCURVE",
"243 391 QCURVE",
"223 311 OFFCURVE",
"217 256 QCURVE",
"210 195 OFFCURVE",
"220 173 QCURVE",
"245 123 OFFCURVE",
"358 90 OFFCURVE",
"486 132 OFFCURVE",
"529 183 QCURVE",
"600 263 OFFCURVE",
"633 402 QCURVE",
"645 452 OFFCURVE",
"658 534 QCURVE",
"675 640 OFFCURVE",
"679 666 QCURVE",
"684 687 OFFCURVE",
"718 717 OFFCURVE",
"760 717 OFFCURVE",
"784 689 OFFCURVE",
"779 668 QCURVE"
);
}
);
width = 707;
},
{
layerId = "3644BD71-2ABE-4F7E-A414-48DBC1C300FF";
paths = (
{
closed = 1;
nodes = (
"780 629 OFFCURVE",
"765 531 QCURVE",
"753 450 OFFCURVE",
"740 398 QCURVE",
"700 228 OFFCURVE",
"609 127 QCURVE",
"558 70 OFFCURVE",
"414 3 OFFCURVE",
"275 -5 OFFCURVE",
"152 55 OFFCURVE",
"122 117 QCURVE",
"100 162 OFFCURVE",
"109 247 QCURVE",
"115 307 OFFCURVE",
"136 395 QCURVE",
"149 443 OFFCURVE",
"176 541 QCURVE",
"200 623 OFFCURVE",
"205 648 QCURVE",
"212 677 OFFCURVE",
"262 717 OFFCURVE",
"320 716 OFFCURVE",
"351 675 OFFCURVE",
"338 617 OFFCURVE",
"313 531 QCURVE",
"284 427 OFFCURVE",
"276 391 QCURVE",
"256 312 OFFCURVE",
"246 213 OFFCURVE",
"253 197 QCURVE",
"273 157 OFFCURVE",
"367 131 OFFCURVE",
"420 147 QCURVE",
"473 164 OFFCURVE",
"510 205 QCURVE",
"572 273 OFFCURVE",
"602 402 QCURVE",
"613 448 OFFCURVE",
"625 523 QCURVE",
"640 623 OFFCURVE",
"644 645 QCURVE",
"650 674 OFFCURVE",
"698 716 OFFCURVE",
"756 717 OFFCURVE",
"790 678 OFFCURVE",
"784 649 QCURVE"
);
}
);
width = 708;
}
);
unicode = 0055;
},
{
glyphname = V;
lastChange = "2019-10-09 23:07:58 +0000";
layers = (
{
layerId = UUID0;
paths = (
{
closed = 1;
nodes = (
"262 238 LINE",
"224 452 LINE",
"197 651 LINE",
"194 670 OFFCURVE",
"219 708 OFFCURVE",
"260 723 OFFCURVE",
"295 706 OFFCURVE",
"299 687 QCURVE",
"332 446 LINE",
"361 274 OFFCURVE",
"381 179 QCURVE",
"495 371 LINE",
"613 572 OFFCURVE",
"688 687 QCURVE",
"701 706 OFFCURVE",
"742 721 OFFCURVE",
"776 704 OFFCURVE",
"783 666 OFFCURVE",
"771 647 QCURVE",
"700 538 OFFCURVE",
"582 336 QCURVE",
"451 117 OFFCURVE",
"396 29 QCURVE",
"384 10 OFFCURVE",
"342 -6 OFFCURVE",
"325 2 QCURVE",
"299 13 OFFCURVE",
"279 138 QCURVE"
);
}
);
width = 680;
},
{
layerId = "3644BD71-2ABE-4F7E-A414-48DBC1C300FF";
paths = (
{
closed = 1;
nodes = (
"269 126 OFFCURVE",
"256 211 QCURVE",
"224 426 LINE",
"202 569 OFFCURVE",
"193 625 QCURVE",
"190 652 OFFCURVE",
"225 705 OFFCURVE",
"283 724 OFFCURVE",
"331 700 OFFCURVE",
"336 673 QCURVE",
"368 462 LINE",
"386 327 OFFCURVE",
"398 254 QCURVE",
"552 524 OFFCURVE",
"652 678 QCURVE",
"668 704 OFFCURVE",
"727 726 OFFCURVE",
"775 703 OFFCURVE",
"785 649 OFFCURVE",
"768 622 QCURVE",
"700 520 OFFCURVE",
"646 428 QCURVE",
"526 218 LINE",
"459 99 OFFCURVE",
"424 42 QCURVE",
"410 17 OFFCURVE",
"385 5 QCURVE",
"379 1 OFFCURVE",
"373 -1 QCURVE",
"344 -13 OFFCURVE",
"294 9 OFFCURVE",
"289 35 QCURVE"
);
}
);
width = 690;
}
);
unicode = 0056;
},
{
glyphname = W;
lastChange = "2019-10-09 23:07:58 +0000";
layers = (
{
layerId = UUID0;
paths = (
{
closed = 1;
nodes = (
"633 32 OFFCURVE",
"631 42 QCURVE",
"597 288 OFFCURVE",
"574 504 QCURVE",
"510 390 LINE",
"440 265 LINE",
"381 156 LINE",
"344 89 OFFCURVE",
"317 35 QCURVE",
"307 15 OFFCURVE",
"266 -5 OFFCURVE",
"248 1 QCURVE",
"220 9 OFFCURVE",
"221 39 QCURVE",
"219 45 OFFCURVE",
"219 52 QCURVE",
"217 339 OFFCURVE",
"193 656 QCURVE",
"191 676 OFFCURVE",
"219 712 OFFCURVE",
"261 724 OFFCURVE",
"293 704 OFFCURVE",
"295 684 QCURVE",
"312 453 OFFCURVE",
"317 235 QCURVE",
"436 446 LINE",
"519 593 OFFCURVE",
"560 672 QCURVE",
"565 688 OFFCURVE",
"589 713 OFFCURVE",
"606 718 QCURVE",
"614 720 OFFCURVE",
"630 720 OFFCURVE",
"637 718 QCURVE",
"652 713 OFFCURVE",
"666 687 OFFCURVE",
"662 671 QCURVE",
"682 452 OFFCURVE",
"716 208 QCURVE",
"963 688 LINE",
"973 708 OFFCURVE",
"1014 728 OFFCURVE",
"1051 716 OFFCURVE",
"1063 679 OFFCURVE",
"1053 660 QCURVE",
"732 35 LINE",
"722 16 OFFCURVE",
"681 -4 OFFCURVE",
"662 2 QCURVE",
"645 8 OFFCURVE",
"639 24 QCURVE"
);
}
);
width = 970;
},
{
layerId = "3644BD71-2ABE-4F7E-A414-48DBC1C300FF";
paths = (
{
closed = 1;
nodes = (
"747 405 LINE",
"761 274 LINE",
"774 299 OFFCURVE",
"908 587 OFFCURVE",
"954 671 QCURVE",
"968 698 OFFCURVE",
"1025 726 OFFCURVE",
"1076 710 OFFCURVE",
"1094 659 OFFCURVE",
"1080 631 QCURVE",
"1034 548 OFFCURVE",
"927 316 OFFCURVE",
"911 285 QCURVE",
"850 166 LINE",
"793 53 LINE",
"782 32 OFFCURVE",
"742 4 OFFCURVE",
"721 2 QCURVE",
"693 -5 OFFCURVE",
"651 19 OFFCURVE",
"647 44 QCURVE",
"622 188 OFFCURVE",
"604 363 QCURVE",
"601 393 OFFCURVE",
"594 440 QCURVE",
"359 44 LINE",
"345 21 OFFCURVE",
"298 -4 OFFCURVE",
"274 -1 QCURVE",
"247 -5 OFFCURVE",
"209 27 OFFCURVE",
"210 53 QCURVE",
"209 144 OFFCURVE",
"203 331 QCURVE",
"196 505 OFFCURVE",
"191 636 QCURVE",
"191 664 OFFCURVE",
"233 712 OFFCURVE",
"291 724 OFFCURVE",
"333 692 OFFCURVE",
"333 664 QCURVE",
"339 552 OFFCURVE",
"348 281 QCURVE",
"468 483 OFFCURVE",
"587 674 QCURVE",
"599 694 OFFCURVE",
"640 717 OFFCURVE",
"661 717 QCURVE",
"685 717 OFFCURVE",
"719 688 OFFCURVE",
"719 606 QCURVE"
);
}
);
width = 1004;
}
);
unicode = 0057;
},
{
glyphname = X;
lastChange = "2019-10-09 23:07:58 +0000";
layers = (
{
layerId = UUID0;
paths = (
{
closed = 1;
nodes = (
"483 125 OFFCURVE",
"432 222 QCURVE",
"424 235 OFFCURVE",
"399 275 QCURVE",
"394 282 LINE",
"148 22 LINE",
"133 5 OFFCURVE",
"90 -2 OFFCURVE",
"61 22 OFFCURVE",
"63 63 OFFCURVE",
"79 80 QCURVE",
"349 366 LINE",
"302 467 OFFCURVE",
"233 639 QCURVE",
"227 657 OFFCURVE",
"245 697 OFFCURVE",
"285 718 OFFCURVE",
"323 709 OFFCURVE",
"330 691 QCURVE",
"399 520 OFFCURVE",
"430 451 QCURVE",
"659 693 LINE",
"674 709 OFFCURVE",
"717 716 OFFCURVE",
"744 691 OFFCURVE",
"743 650 OFFCURVE",
"726 633 QCURVE",
"473 365 LINE",
"488 341 LINE",
"514 302 OFFCURVE",
"524 282 QCURVE",
"579 177 OFFCURVE",
"617 74 QCURVE",
"624 56 OFFCURVE",
"605 16 OFFCURVE",
"564 -5 OFFCURVE",
"527 6 OFFCURVE",
"521 24 QCURVE"
);
}
);
width = 663;
},
{
layerId = "3644BD71-2ABE-4F7E-A414-48DBC1C300FF";
paths = (
{
closed = 1;
nodes = (
"183 28 LINE",
"162 5 OFFCURVE",
"103 -3 OFFCURVE",
"64 31 OFFCURVE",
"68 86 OFFCURVE",
"90 110 QCURVE",
"320 356 LINE",
"235 520 OFFCURVE",
"196 616 QCURVE",
"185 638 OFFCURVE",
"206 690 OFFCURVE",
"257 721 OFFCURVE",
"309 711 OFFCURVE",
"319 688 QCURVE",
"358 608 OFFCURVE",
"424 464 QCURVE",
"624 687 LINE",
"646 710 OFFCURVE",
"705 718 OFFCURVE",
"743 683 OFFCURVE",
"739 628 OFFCURVE",
"717 605 QCURVE",
"487 352 LINE",
"567 212 OFFCURVE",
"620 99 QCURVE",
"630 76 OFFCURVE",
"608 25 OFFCURVE",
"556 -5 OFFCURVE",
"506 6 OFFCURVE",
"496 29 QCURVE",
"445 121 OFFCURVE",
"383 243 QCURVE"
);
}
);
width = 663;
}
);
unicode = 0058;
},
{
glyphname = Y;
lastChange = "2019-10-09 23:07:58 +0000";
layers = (
{
layerId = UUID0;
paths = (
{
closed = 1;
nodes = (
"439 241 OFFCURVE",
"426 176 QCURVE",
"407 82 OFFCURVE",
"405 55 QCURVE",
"403 34 OFFCURVE",
"369 2 OFFCURVE",
"327 -2 OFFCURVE",
"301 25 OFFCURVE",
"303 45 QCURVE",
"305 74 OFFCURVE",
"326 175 QCURVE",
"338 239 OFFCURVE",
"342 261 QCURVE",
"295 379 LINE",
"238 524 LINE",
"214 586 OFFCURVE",
"195 644 QCURVE",
"189 662 OFFCURVE",
"210 702 OFFCURVE",
"250 722 OFFCURVE",
"287 710 OFFCURVE",
"294 692 QCURVE",
"321 608 OFFCURVE",
"413 375 QCURVE",
"439 406 OFFCURVE",
"538 514 OFFCURVE",
"557 537 QCURVE",
"566 548 OFFCURVE",
"619 616 QCURVE",
"659 667 OFFCURVE",
"687 698 QCURVE",
"701 715 OFFCURVE",
"744 723 OFFCURVE",
"773 700 OFFCURVE",
"773 659 OFFCURVE",
"757 642 QCURVE",
"740 622 OFFCURVE",
"696 566 QCURVE",
"632 485 LINE",
"608 457 OFFCURVE",
"477 314 OFFCURVE",
"445 268 QCURVE",
"444 265 OFFCURVE",
"442 263 QCURVE"
);
}
);
width = 680;
},
{
layerId = "3644BD71-2ABE-4F7E-A414-48DBC1C300FF";
paths = (
{
closed = 1;
nodes = (
"468 262 OFFCURVE",
"435 106 OFFCURVE",
"428 70 QCURVE",
"423 41 OFFCURVE",
"374 -1 OFFCURVE",
"316 -3 OFFCURVE",
"282 37 OFFCURVE",
"288 66 QCURVE",
"293 91 OFFCURVE",
"310 178 OFFCURVE",
"316 203 QCURVE",
"328 260 LINE",
"263 426 LINE",
"215 547 OFFCURVE",
"193 615 QCURVE",
"185 640 OFFCURVE",
"212 695 OFFCURVE",
"269 723 OFFCURVE",
"321 707 OFFCURVE",
"329 681 QCURVE",
"350 622 OFFCURVE",
"425 428 QCURVE",
"497 512 LINE",
"648 684 LINE",
"668 708 OFFCURVE",
"727 722 OFFCURVE",
"769 691 OFFCURVE",
"771 635 OFFCURVE",
"750 610 QCURVE",
"742 600 OFFCURVE",
"597 434 QCURVE",
"519 345 OFFCURVE",
"472 285 QCURVE"
);
}
);
width = 680;
}
);
unicode = 0059;
},
{
glyphname = Z;
lastChange = "2019-10-09 23:07:58 +0000";
layers = (
{
layerId = UUID0;
paths = (
{
closed = 1;
nodes = (
"331 725 OFFCURVE",
"470 725 QCURVE",
"490 725 LINE",
"535 725 LINE",
"585 725 LINE",
"657 725 LINE",
"680 725 LINE",
"688 725 LINE",
"689 725 LINE",
"691 725 LINE",
"694 725 LINE",
"696 725 OFFCURVE",
"697 724 QCURVE",
"701 723 OFFCURVE",
"704 722 QCURVE",
"715 719 OFFCURVE",
"723 708 QCURVE",
"743 678 OFFCURVE",
"719 633 QCURVE",
"708 612 OFFCURVE",
"685 586 QCURVE",
"671 569 OFFCURVE",
"651 550 QCURVE",
"641 540 LINE",
"635 534 OFFCURVE",
"634 533 QCURVE",
"545 445 LINE",
"465 368 LINE",
"370 278 LINE",
"285 199 LINE",
"208 124 LINE",
"191 107 OFFCURVE",
"182 97 QCURVE",
"189 97 OFFCURVE",
"218 100 OFFCURVE",
"227 100 QCURVE",
"418 109 OFFCURVE",
"627 96 QCURVE",
"648 95 OFFCURVE",
"668 64 OFFCURVE",
"657 22 OFFCURVE",
"620 -5 OFFCURVE",
"600 -4 QCURVE",
"395 9 OFFCURVE",
"210 0 QCURVE",
"201 -1 LINE",
"193 -2 OFFCURVE",
"176 -3 OFFCURVE",
"151 -4 OFFCURVE",
"142 -3 QCURVE",
"68 4 OFFCURVE",
"62 65 QCURVE",
"61 86 OFFCURVE",
"77 111 QCURVE",
"83 121 OFFCURVE",
"95 135 QCURVE",
"112 155 OFFCURVE",
"142 184 QCURVE",
"177 221 OFFCURVE",
"222 263 QCURVE",
"307 342 LINE",
"400 430 LINE",
"480 507 LINE",
"569 595 LINE",
"575 602 LINE",
"587 613 LINE",
"599 625 LINE",
"563 625 LINE",
"513 625 LINE",
"468 625 LINE",
"448 625 LINE",
"320 625 OFFCURVE",
"250 612 QCURVE",
"228 608 OFFCURVE",
"199 631 OFFCURVE",
"199 672 OFFCURVE",
"230 706 OFFCURVE",
"250 710 QCURVE"
);
}
);
width = 707;
},
{
layerId = "3644BD71-2ABE-4F7E-A414-48DBC1C300FF";
paths = (
{
closed = 1;
nodes = (
"350 713 OFFCURVE",
"491 711 OFFCURVE",
"674 715 OFFCURVE",
"719 715 QCURVE",
"746 715 OFFCURVE",
"777 675 OFFCURVE",
"771 647 QCURVE",
"765 621 OFFCURVE",
"746 602 QCURVE",
"744 599 OFFCURVE",
"742 596 QCURVE",
"696 527 OFFCURVE",
"597 426 OFFCURVE",
"307 162 QCURVE",
"282 137 LINE",
"315 137 OFFCURVE",
"362 135 QCURVE",
"554 139 OFFCURVE",
"593 139 QCURVE",
"620 139 OFFCURVE",
"651 99 OFFCURVE",
"639 44 OFFCURVE",
"591 4 OFFCURVE",
"564 4 QCURVE",
"527 4 OFFCURVE",
"337 0 QCURVE",
"201 0 OFFCURVE",
"114 4 QCURVE",
"87 5 OFFCURVE",
"59 47 OFFCURVE",
"66 75 QCURVE",
"73 103 OFFCURVE",
"99 123 QCURVE",
"134 155 OFFCURVE",
"218 243 QCURVE",
"522 521 OFFCURVE",
"565 577 QCURVE",
"347 573 OFFCURVE",
"248 580 QCURVE",
"220 582 OFFCURVE",
"193 624 OFFCURVE",
"209 682 OFFCURVE",
"258 719 OFFCURVE",
"285 717 QCURVE"
);
}
);
width = 684;
}
);
unicode = 005A;
},
{
glyphname = bracketleft;
lastChange = "2019-10-09 23:07:58 +0000";
layers = (
{
layerId = UUID0;
paths = (
{
closed = 1;
nodes = (
"347 609 LINE",
"304 609 LINE",
"299 609 LINE",
"294 599 OFFCURVE",
"286 581 QCURVE",
"276 555 OFFCURVE",
"268 501 QCURVE",
"253 409 OFFCURVE",
"253 405 QCURVE",
"193 127 LINE",
"156 -48 OFFCURVE",
"151 -69 QCURVE",
"150 -74 OFFCURVE",
"146 -80 QCURVE",
"189 -87 LINE",
"203 -89 LINE",
"209 -90 OFFCURVE",
"215 -91 QCURVE",
"227 -93 LINE",
"233 -94 OFFCURVE",
"242 -95 OFFCURVE",
"252 -97 OFFCURVE",
"259 -97 OFFCURVE",
"264 -98 OFFCURVE",
"265 -98 QCURVE",
"266 -99 LINE",
"287 -101 OFFCURVE",
"304 -135 OFFCURVE",
"290 -176 OFFCURVE",
"251 -200 OFFCURVE",
"232 -197 QCURVE",
"230 -197 LINE",
"229 -197 OFFCURVE",
"224 -196 OFFCURVE",
"216 -195 OFFCURVE",
"207 -194 OFFCURVE",
"196 -193 OFFCURVE",
"191 -192 QCURVE",
"179 -190 LINE",
"166 -188 LINE",
"160 -187 OFFCURVE",
"153 -186 QCURVE",
"117 -180 OFFCURVE",
"94 -175 QCURVE",
"79 -172 OFFCURVE",
"71 -169 QCURVE",
"51 -162 OFFCURVE",
"42 -151 QCURVE",
"21 -123 OFFCURVE",
"44 -79 QCURVE",
"52 -63 LINE",
"60 -35 OFFCURVE",
"73 27 OFFCURVE",
"90 109 OFFCURVE",
"93 127 QCURVE",
"153 405 LINE",
"153 406 OFFCURVE",
"167 495 QCURVE",
"177 562 OFFCURVE",
"192 599 QCURVE",
"218 667 OFFCURVE",
"259 692 QCURVE",
"287 709 OFFCURVE",
"325 709 QCURVE",
"333 709 OFFCURVE",
"347 708 OFFCURVE",
"350 708 OFFCURVE",
"356 709 QCURVE",
"365 710 OFFCURVE",
"386 712 OFFCURVE",
"399 714 QCURVE",
"418 717 LINE",
"439 719 OFFCURVE",
"467 694 OFFCURVE",
"463 653 OFFCURVE",
"431 620 OFFCURVE",
"411 617 QCURVE"
);
}
);
width = 385;
},
{
layerId = "3644BD71-2ABE-4F7E-A414-48DBC1C300FF";
paths = (
{
closed = 1;
nodes = (
"390 584 OFFCURVE",
"356 582 OFFCURVE",
"341 581 OFFCURVE",
"333 579 QCURVE",
"324 576 OFFCURVE",
"316 567 QCURVE",
"315 563 LINE",
"305 514 LINE",
"293 461 OFFCURVE",
"270 346 QCURVE",
"260 300 OFFCURVE",
"237 182 OFFCURVE",
"222 108 OFFCURVE",
"220 98 QCURVE",
"201 6 LINE",
"197 -10 OFFCURVE",
"185 -40 QCURVE",
"193 -43 OFFCURVE",
"207 -46 QCURVE",
"222 -49 OFFCURVE",
"245 -52 QCURVE",
"250 -53 OFFCURVE",
"267 -54 OFFCURVE",
"278 -55 OFFCURVE",
"282 -56 QCURVE",
"309 -60 OFFCURVE",
"334 -106 OFFCURVE",
"314 -163 OFFCURVE",
"260 -198 OFFCURVE",
"232 -194 QCURVE",
"228 -193 OFFCURVE",
"206 -191 OFFCURVE",
"201 -191 QCURVE",
"171 -187 OFFCURVE",
"149 -183 QCURVE",
"61 -164 OFFCURVE",
"43 -106 QCURVE",
"32 -72 OFFCURVE",
"49 -25 QCURVE",
"52 -17 OFFCURVE",
"58 -4 OFFCURVE",
"60 0 OFFCURVE",
"60 2 QCURVE",
"61 8 LINE",
"80 98 LINE",
"82 108 OFFCURVE",
"97 181 OFFCURVE",
"121 299 OFFCURVE",
"130 344 QCURVE",
"153 460 OFFCURVE",
"165 514 QCURVE",
"172 548 OFFCURVE",
"177 566 QCURVE",
"179 577 OFFCURVE",
"182 584 QCURVE",
"184 593 LINE",
"187 604 OFFCURVE",
"194 615 QCURVE",
"246 692 OFFCURVE",
"322 713 QCURVE",
"337 717 OFFCURVE",
"377 722 OFFCURVE",
"419 725 OFFCURVE",
"422 725 QCURVE",
"451 729 OFFCURVE",
"490 693 OFFCURVE",
"485 636 OFFCURVE",
"439 590 OFFCURVE",
"410 587 QCURVE"
);
}
);
width = 385;
}
);
unicode = 005B;
},
{
glyphname = backslash;
lastChange = "2019-10-09 23:07:58 +0000";
layers = (
{
layerId = UUID0;
paths = (
{
closed = 1;
nodes = (
"311 591 OFFCURVE",
"340 468 QCURVE",
"368 327 OFFCURVE",
"380 263 QCURVE",
"388 226 OFFCURVE",
"400 155 QCURVE",
"411 92 OFFCURVE",
"416 63 QCURVE",
"419 44 OFFCURVE",
"394 6 OFFCURVE",
"352 -8 OFFCURVE",
"317 9 OFFCURVE",
"315 29 QCURVE",
"311 52 OFFCURVE",
"291 188 OFFCURVE",
"280 225 QCURVE",
"268 289 OFFCURVE",
"207 574 OFFCURVE",
"192 651 QCURVE",
"189 670 OFFCURVE",
"213 708 OFFCURVE",
"255 723 OFFCURVE",
"290 707 OFFCURVE",
"294 687 QCURVE"
);
}
);
width = 456;
},
{
layerId = "3644BD71-2ABE-4F7E-A414-48DBC1C300FF";
paths = (
{
closed = 1;
nodes = (
"381 400 OFFCURVE",
"422 91 QCURVE",
"425 64 OFFCURVE",
"389 12 OFFCURVE",
"331 -7 OFFCURVE",
"284 18 OFFCURVE",
"280 45 QCURVE",
"239 350 OFFCURVE",
"190 620 QCURVE",
"184 646 OFFCURVE",
"217 700 OFFCURVE",
"275 723 OFFCURVE",
"325 701 OFFCURVE",
"330 674 QCURVE"
);
}
);
width = 456;
}
);
unicode = 005C;
},
{
glyphname = bracketright;
lastChange = "2019-10-09 23:07:58 +0000";
layers = (
{
layerId = UUID0;
paths = (
{
closed = 1;
nodes = (
"127 -91 OFFCURVE",
"128 -91 QCURVE",
"140 -90 OFFCURVE",
"163 -91 QCURVE",
"168 -83 OFFCURVE",
"177 -63 QCURVE",
"178 -61 LINE",
"180 -50 LINE",
"183 -37 OFFCURVE",
"186 -15 QCURVE",
"188 -1 OFFCURVE",
"196 43 OFFCURVE",
"196 47 QCURVE",
"215 149 OFFCURVE",
"271 410 QCURVE",
"272 416 OFFCURVE",
"293 507 OFFCURVE",
"300 538 QCURVE",
"309 583 OFFCURVE",
"314 610 QCURVE",
"315 614 LINE",
"309 615 OFFCURVE",
"301 616 QCURVE",
"298 616 OFFCURVE",
"244 617 QCURVE",
"223 617 OFFCURVE",
"201 647 OFFCURVE",
"210 689 OFFCURVE",
"246 717 OFFCURVE",
"267 717 QCURVE",
"325 716 OFFCURVE",
"330 716 QCURVE",
"355 714 OFFCURVE",
"371 709 QCURVE",
"402 700 OFFCURVE",
"414 680 QCURVE",
"420 670 OFFCURVE",
"420 656 QCURVE",
"421 650 OFFCURVE",
"419 642 QCURVE",
"419 631 OFFCURVE",
"415 613 QCURVE",
"410 585 OFFCURVE",
"400 537 QCURVE",
"393 506 OFFCURVE",
"372 416 OFFCURVE",
"371 410 QCURVE",
"316 151 OFFCURVE",
"297 49 QCURVE",
"296 46 OFFCURVE",
"289 4 OFFCURVE",
"287 -10 QCURVE",
"283 -34 OFFCURVE",
"280 -49 QCURVE",
"275 -73 OFFCURVE",
"271 -84 QCURVE",
"241 -149 OFFCURVE",
"205 -174 QCURVE",
"177 -193 OFFCURVE",
"142 -192 QCURVE",
"134 -191 OFFCURVE",
"123 -191 OFFCURVE",
"123 -190 OFFCURVE",
"119 -191 QCURVE",
"101 -193 LINE",
"93 -194 OFFCURVE",
"70 -198 OFFCURVE",
"64 -198 QCURVE",
"44 -201 OFFCURVE",
"16 -177 OFFCURVE",
"19 -136 OFFCURVE",
"50 -103 OFFCURVE",
"71 -100 QCURVE"
);
}
);
width = 348;
},
{
layerId = "3644BD71-2ABE-4F7E-A414-48DBC1C300FF";
paths = (
{
closed = 1;
nodes = (
"117 -46 OFFCURVE",
"146 -46 QCURVE",
"151 -30 OFFCURVE",
"158 -8 QCURVE",
"175 54 OFFCURVE",
"198 162 QCURVE",
"214 238 OFFCURVE",
"256 460 OFFCURVE",
"256 461 QCURVE",
"259 473 OFFCURVE",
"269 523 OFFCURVE",
"271 536 QCURVE",
"275 551 OFFCURVE",
"285 578 QCURVE",
"258 578 OFFCURVE",
"244 580 QCURVE",
"217 585 OFFCURVE",
"193 632 OFFCURVE",
"215 689 OFFCURVE",
"269 723 OFFCURVE",
"297 718 QCURVE",
"303 717 OFFCURVE",
"306 717 OFFCURVE",
"325 718 OFFCURVE",
"338 718 QCURVE",
"401 717 OFFCURVE",
"449 639 OFFCURVE",
"427 577 QCURVE",
"419 559 LINE",
"417 551 OFFCURVE",
"414 545 OFFCURVE",
"412 540 OFFCURVE",
"411 536 QCURVE",
"409 524 OFFCURVE",
"399 474 OFFCURVE",
"396 461 QCURVE",
"375 350 LINE",
"354 238 OFFCURVE",
"338 162 QCURVE",
"314 50 OFFCURVE",
"295 -18 QCURVE",
"283 -61 OFFCURVE",
"272 -87 QCURVE",
"264 -104 OFFCURVE",
"258 -117 QCURVE",
"243 -142 OFFCURVE",
"223 -157 QCURVE",
"184 -185 OFFCURVE",
"130 -186 QCURVE",
"109 -186 LINE",
"100 -186 OFFCURVE",
"98 -185 OFFCURVE",
"91 -186 QCURVE",
"61 -190 OFFCURVE",
"22 -156 OFFCURVE",
"27 -98 OFFCURVE",
"70 -52 OFFCURVE",
"100 -48 QCURVE"
);
}
);
width = 348;
}
);
unicode = 005D;
},
{
glyphname = asciicircum;
lastChange = "2019-10-09 23:07:58 +0000";
layers = (
{
layerId = UUID0;
paths = (
{
closed = 1;
nodes = (
"229 492 LINE",
"292 578 OFFCURVE",
"322 621 QCURVE",
"323 622 OFFCURVE",
"324 624 OFFCURVE",
"325 627 OFFCURVE",
"329 637 OFFCURVE",
"332 644 QCURVE",
"352 690 OFFCURVE",
"390 706 QCURVE",
"430 722 OFFCURVE",
"457 691 QCURVE",
"468 679 OFFCURVE",
"478 655 QCURVE",
"491 622 OFFCURVE",
"505 558 QCURVE",
"520 486 LINE",
"535 406 LINE",
"542 366 OFFCURVE",
"544 352 QCURVE",
"548 333 OFFCURVE",
"524 294 OFFCURVE",
"483 279 OFFCURVE",
"447 295 OFFCURVE",
"444 314 QCURVE",
"435 368 LINE",
"420 447 LINE",
"413 486 OFFCURVE",
"406 518 QCURVE",
"394 564 LINE",
"307 444 LINE",
"214 316 LINE",
"201 298 OFFCURVE",
"159 284 OFFCURVE",
"126 302 OFFCURVE",
"120 341 OFFCURVE",
"133 360 QCURVE"
);
}
);
width = 527;
},
{
layerId = "3644BD71-2ABE-4F7E-A414-48DBC1C300FF";
paths = (
{
closed = 1;
nodes = (
"240 528 OFFCURVE",
"355 675 QCURVE",
"359 680 OFFCURVE",
"364 685 QCURVE",
"378 709 OFFCURVE",
"403 720 QCURVE",
"429 733 OFFCURVE",
"478 717 OFFCURVE",
"486 693 QCURVE",
"521 582 OFFCURVE",
"578 365 QCURVE",
"584 341 OFFCURVE",
"555 289 OFFCURVE",
"501 266 OFFCURVE",
"453 284 OFFCURVE",
"446 309 QCURVE",
"389 522 LINE",
"315 422 OFFCURVE",
"246 313 QCURVE",
"230 288 OFFCURVE",
"174 268 OFFCURVE",
"129 289 OFFCURVE",
"120 340 OFFCURVE",
"135 365 QCURVE"
);
}
);
width = 527;
}
);
unicode = 005E;
},
{
glyphname = underscore;
lastChange = "2019-10-09 23:07:58 +0000";
layers = (
{
layerId = UUID0;
paths = (
{
closed = 1;
nodes = (
"82 -53 OFFCURVE",
"269 -53 OFFCURVE",
"497 -56 OFFCURVE",
"559 -56 QCURVE",
"580 -56 OFFCURVE",
"602 -85 OFFCURVE",
"594 -127 OFFCURVE",
"558 -156 OFFCURVE",
"537 -156 QCURVE",
"475 -156 OFFCURVE",
"229 -153 OFFCURVE",
"105 -153 OFFCURVE",
"-18 -156 QCURVE",
"-39 -157 OFFCURVE",
"-63 -129 OFFCURVE",
"-56 -87 OFFCURVE",
"-22 -57 OFFCURVE",
"0 -56 QCURVE"
);
}
);
width = 587;
},
{
layerId = "3644BD71-2ABE-4F7E-A414-48DBC1C300FF";
paths = (
{
closed = 1;
nodes = (
"512 -36 LINE",
"541 -36 OFFCURVE",
"573 -77 OFFCURVE",
"561 -135 OFFCURVE",
"511 -176 OFFCURVE",
"482 -176 QCURVE",
"-5 -176 LINE",
"-34 -176 OFFCURVE",
"-66 -135 OFFCURVE",
"-54 -77 OFFCURVE",
"-4 -36 OFFCURVE",
"24 -36 QCURVE"
);
}
);
width = 587;
}
);
unicode = 005F;
},
{
glyphname = grave;
lastChange = "2019-10-09 23:07:58 +0000";
layers = (
{
layerId = UUID0;
paths = (
{
closed = 1;
nodes = (
"321 758 LINE",
"333 744 LINE",
"334 741 OFFCURVE",
"346 726 OFFCURVE",
"348 722 OFFCURVE",
"356 707 QCURVE",
"375 678 LINE",
"385 663 OFFCURVE",
"371 623 OFFCURVE",
"334 597 OFFCURVE",
"295 600 OFFCURVE",
"285 614 QCURVE",
"267 642 LINE",
"259 656 OFFCURVE",
"257 660 OFFCURVE",
"247 674 OFFCURVE",
"245 675 QCURVE",
"235 690 LINE",
"225 702 OFFCURVE",
"214 714 QCURVE",
"204 728 OFFCURVE",
"214 768 OFFCURVE",
"249 797 OFFCURVE",
"290 797 OFFCURVE",
"301 785 QCURVE"
);
}
);
width = 294;
},
{
layerId = "3644BD71-2ABE-4F7E-A414-48DBC1C300FF";
paths = (
{
closed = 1;
nodes = (
"392 666 LINE",
"406 644 OFFCURVE",
"391 587 OFFCURVE",
"339 549 OFFCURVE",
"311 550 QCURVE",
"283 552 OFFCURVE",
"269 574 QCURVE",
"209 660 LINE",
"194 682 OFFCURVE",
"210 739 OFFCURVE",
"262 777 OFFCURVE",
"289 776 QCURVE",
"318 774 OFFCURVE",
"332 752 QCURVE"
);
}
);
width = 294;
}
);
unicode = 0060;
},
{
glyphname = a;
lastChange = "2019-10-09 23:07:58 +0000";
layers = (
{
layerId = UUID0;
paths = (
{
closed = 1;
nodes = (
"490 315 OFFCURVE",
"491 397 QCURVE",
"489 401 OFFCURVE",
"483 408 OFFCURVE",
"481 412 OFFCURVE",
"477 415 OFFCURVE",
"474 417 QCURVE",
"432 443 OFFCURVE",
"315 394 OFFCURVE",
"261 327 QCURVE",
"207 259 OFFCURVE",
"186 158 OFFCURVE",
"217 125 QCURVE",
"236 106 OFFCURVE",
"302 96 OFFCURVE",
"339 106 QCURVE",
"355 110 OFFCURVE",
"383 124 OFFCURVE",
"398 134 OFFCURVE",
"442 167 OFFCURVE",
"456 176 QCURVE",
"458 178 OFFCURVE",
"462 180 QCURVE"
);
},
{
closed = 1;
nodes = (
"594 363 OFFCURVE",
"574 231 OFFCURVE",
"546 115 OFFCURVE",
"535 50 QCURVE",
"532 30 OFFCURVE",
"498 0 OFFCURVE",
"455 -2 OFFCURVE",
"431 26 OFFCURVE",
"434 46 QCURVE",
"435 50 LINE",
"391 22 OFFCURVE",
"347 10 QCURVE",
"309 0 OFFCURVE",
"234 -2 OFFCURVE",
"161 23 OFFCURVE",
"137 49 QCURVE",
"94 92 OFFCURVE",
"91 220 OFFCURVE",
"141 322 OFFCURVE",
"219 419 OFFCURVE",
"300 486 OFFCURVE",
"398 532 OFFCURVE",
"493 531 OFFCURVE",
"541 505 QCURVE",
"548 501 OFFCURVE",
"564 485 OFFCURVE",
"569 479 QCURVE",
"580 466 LINE",
"584 460 OFFCURVE",
"584 459 QCURVE",
"597 445 OFFCURVE",
"593 423 QCURVE"
);
}
);
width = 578;
},
{
layerId = "3644BD71-2ABE-4F7E-A414-48DBC1C300FF";
paths = (
{
closed = 1;
nodes = (
"458 306 OFFCURVE",
"465 364 QCURVE",
"456 371 LINE",
"445 382 LINE",
"437 388 LINE",
"399 400 OFFCURVE",
"304 346 OFFCURVE",
"267 286 QCURVE",
"232 228 OFFCURVE",
"237 157 OFFCURVE",
"269 145 QCURVE",
"310 129 OFFCURVE",
"363 163 QCURVE",
"372 168 OFFCURVE",
"379 174 QCURVE",
"399 192 LINE",
"427 216 LINE",
"435 222 OFFCURVE",
"444 226 QCURVE"
);
},
{
closed = 1;
nodes = (
"610 406 OFFCURVE",
"601 336 OFFCURVE",
"586 246 OFFCURVE",
"581 221 QCURVE",
"568 143 LINE",
"559 90 OFFCURVE",
"556 74 QCURVE",
"551 45 OFFCURVE",
"502 2 OFFCURVE",
"474 1 QCURVE",
"451 0 OFFCURVE",
"419 25 OFFCURVE",
"415 46 QCURVE",
"296 -26 OFFCURVE",
"195 13 QCURVE",
"143 33 OFFCURVE",
"116 72 QCURVE",
"90 112 OFFCURVE",
"93 206 OFFCURVE",
"124 303 OFFCURVE",
"179 387 OFFCURVE",
"252 461 OFFCURVE",
"348 519 OFFCURVE",
"449 536 OFFCURVE",
"503 522 QCURVE",
"525 516 OFFCURVE",
"544 501 QCURVE",
"549 501 LINE",
"579 505 OFFCURVE",
"616 469 OFFCURVE",
"613 440 QCURVE"
);
}
);
width = 592;
}
);
unicode = 0061;
},
{
glyphname = b;
lastChange = "2019-10-09 23:07:58 +0000";
layers = (
{
layerId = UUID0;
paths = (
{
closed = 1;
nodes = (
"193 158 LINE",
"217 109 OFFCURVE",
"278 98 QCURVE",
"361 85 OFFCURVE",
"411 139 QCURVE",
"461 193 OFFCURVE",
"467 281 QCURVE",
"471 355 OFFCURVE",
"430 403 QCURVE",
"390 449 OFFCURVE",
"316 423 QCURVE",
"309 420 OFFCURVE",
"296 413 OFFCURVE",
"289 406 QCURVE",
"275 396 LINE",
"270 391 OFFCURVE",
"245 368 OFFCURVE",
"237 362 QCURVE",
"216 258 OFFCURVE",
"192 159 QCURVE"
);
},
{
closed = 1;
nodes = (
"149 17 OFFCURVE",
"118 -1 OFFCURVE",
"103 0 QCURVE",
"82 1 OFFCURVE",
"60 32 OFFCURVE",
"66 52 QCURVE",
"77 97 OFFCURVE",
"84 124 QCURVE",
"92 159 OFFCURVE",
"112 240 OFFCURVE",
"124 296 OFFCURVE",
"140 375 OFFCURVE",
"149 418 OFFCURVE",
"172 527 OFFCURVE",
"177 556 OFFCURVE",
"196 655 OFFCURVE",
"198 665 QCURVE",
"202 686 OFFCURVE",
"237 716 OFFCURVE",
"279 716 OFFCURVE",
"303 688 OFFCURVE",
"298 667 QCURVE",
"273 533 OFFCURVE",
"266 499 QCURVE",
"283 509 OFFCURVE",
"300 515 QCURVE",
"373 540 OFFCURVE",
"478 517 OFFCURVE",
"514 476 QCURVE",
"544 440 OFFCURVE",
"571 336 OFFCURVE",
"569 294 QCURVE",
"559 167 OFFCURVE",
"480 81 QCURVE",
"434 31 OFFCURVE",
"373 10 QCURVE",
"312 -12 OFFCURVE",
"242 0 QCURVE",
"194 8 OFFCURVE",
"158 32 QCURVE"
);
}
);
width = 563;
},
{
layerId = "3644BD71-2ABE-4F7E-A414-48DBC1C300FF";
paths = (
{
closed = 1;
nodes = (
"247 206 OFFCURVE",
"255 191 QCURVE",
"267 169 LINE",
"276 154 OFFCURVE",
"283 151 QCURVE",
"306 137 OFFCURVE",
"350 141 QCURVE",
"405 147 OFFCURVE",
"433 188 QCURVE",
"464 233 OFFCURVE",
"459 286 QCURVE",
"457 350 OFFCURVE",
"422 381 QCURVE",
"391 408 OFFCURVE",
"341 390 QCURVE",
"334 387 OFFCURVE",
"297 365 QCURVE",
"276 350 OFFCURVE",
"266 334 QCURVE",
"265 333 LINE",
"251 265 OFFCURVE",
"240 217 QCURVE"
);
},
{
closed = 1;
nodes = (
"151 0 OFFCURVE",
"119 1 QCURVE",
"90 2 OFFCURVE",
"59 45 OFFCURVE",
"66 73 QCURVE",
"110 250 OFFCURVE",
"189 648 QCURVE",
"195 677 OFFCURVE",
"244 718 OFFCURVE",
"302 719 OFFCURVE",
"335 679 OFFCURVE",
"330 650 QCURVE",
"326 634 OFFCURVE",
"306 536 OFFCURVE",
"302 514 QCURVE",
"317 520 LINE",
"386 543 OFFCURVE",
"439 535 QCURVE",
"492 527 OFFCURVE",
"530 492 QCURVE",
"597 432 OFFCURVE",
"602 321 QCURVE",
"609 218 OFFCURVE",
"547 128 QCURVE",
"511 76 OFFCURVE",
"403 10 OFFCURVE",
"335 3 QCURVE",
"248 -7 OFFCURVE",
"190 27 QCURVE",
"180 35 LINE"
);
}
);
width = 613;
}
);
unicode = 0062;
},
{
glyphname = c;
lastChange = "2019-10-09 23:07:58 +0000";
layers = (
{
layerId = UUID0;
paths = (
{
closed = 1;
nodes = (
"537 173 LINE",
"534 159 LINE",
"530 134 OFFCURVE",
"518 115 QCURVE",
"483 57 OFFCURVE",
"365 -1 OFFCURVE",
"303 -2 QCURVE",
"246 -3 OFFCURVE",
"146 39 OFFCURVE",
"119 79 QCURVE",
"92 121 OFFCURVE",
"94 238 OFFCURVE",
"138 344 OFFCURVE",
"173 393 QCURVE",
"201 430 OFFCURVE",
"269 489 OFFCURVE",
"353 530 OFFCURVE",
"439 533 OFFCURVE",
"484 513 QCURVE",
"507 501 OFFCURVE",
"528 475 QCURVE",
"543 457 LINE",
"554 443 LINE",
"567 430 OFFCURVE",
"562 388 OFFCURVE",
"528 357 OFFCURVE",
"486 353 OFFCURVE",
"474 367 QCURVE",
"466 374 OFFCURVE",
"457 386 QCURVE",
"443 403 LINE",
"432 417 OFFCURVE",
"424 421 QCURVE",
"383 441 OFFCURVE",
"293 400 OFFCURVE",
"252 346 QCURVE",
"210 290 OFFCURVE",
"187 178 OFFCURVE",
"209 145 QCURVE",
"223 124 OFFCURVE",
"285 98 OFFCURVE",
"323 98 QCURVE",
"401 100 OFFCURVE",
"434 153 QCURVE",
"434 158 LINE",
"435 162 LINE",
"436 166 LINE",
"436 169 LINE",
"440 187 LINE",
"446 208 OFFCURVE",
"482 235 OFFCURVE",
"524 233 OFFCURVE",
"544 202 OFFCURVE",
"539 181 QCURVE"
);
}
);
width = 551;
},
{
layerId = "3644BD71-2ABE-4F7E-A414-48DBC1C300FF";
paths = (
{
closed = 1;
nodes = (
"556 156 OFFCURVE",
"547 143 OFFCURVE",
"537 127 OFFCURVE",
"533 122 QCURVE",
"509 84 OFFCURVE",
"483 62 QCURVE",
"441 27 OFFCURVE",
"391 13 QCURVE",
"342 -3 OFFCURVE",
"256 5 OFFCURVE",
"218 21 QCURVE",
"159 47 OFFCURVE",
"93 156 OFFCURVE",
"102 227 QCURVE",
"110 286 OFFCURVE",
"183 409 OFFCURVE",
"236 453 QCURVE",
"274 485 OFFCURVE",
"359 524 OFFCURVE",
"459 534 OFFCURVE",
"504 512 QCURVE",
"529 501 OFFCURVE",
"554 476 QCURVE",
"555 474 OFFCURVE",
"564 464 QCURVE",
"579 449 LINE",
"598 431 OFFCURVE",
"593 376 OFFCURVE",
"548 331 OFFCURVE",
"489 324 OFFCURVE",
"470 342 QCURVE",
"468 343 OFFCURVE",
"439 374 QCURVE",
"429 384 OFFCURVE",
"424 387 QCURVE",
"374 409 OFFCURVE",
"318 360 QCURVE",
"289 335 OFFCURVE",
"247 267 OFFCURVE",
"244 237 QCURVE",
"240 209 OFFCURVE",
"269 159 OFFCURVE",
"300 146 QCURVE",
"332 133 OFFCURVE",
"382 140 OFFCURVE",
"400 155 QCURVE",
"407 160 OFFCURVE",
"417 176 QCURVE",
"448 222 OFFCURVE",
"449 224 QCURVE",
"467 249 OFFCURVE",
"526 266 OFFCURVE",
"573 241 OFFCURVE",
"578 187 OFFCURVE",
"560 162 QCURVE"
);
}
);
width = 589;
}
);
unicode = 0063;
},
{
glyphname = d;
lastChange = "2019-10-09 23:07:58 +0000";
layers = (
{
layerId = UUID0;
paths = (
{
closed = 1;
nodes = (
"455 414 OFFCURVE",
"456 415 QCURVE",
"446 422 OFFCURVE",
"412 428 QCURVE",
"335 442 OFFCURVE",
"279 390 QCURVE",
"224 341 OFFCURVE",
"209 271 QCURVE",
"190 188 OFFCURVE",
"255 87 OFFCURVE",
"331 101 QCURVE",
"351 105 OFFCURVE",
"397 125 OFFCURVE",
"417 138 OFFCURVE",
"428 148 OFFCURVE",
"443 161 OFFCURVE",
"451 175 QCURVE",
"478 302 OFFCURVE",
"492 377 QCURVE",
"491 377 OFFCURVE",
"490 378 QCURVE"
);
},
{
closed = 1;
nodes = (
"559 211 OFFCURVE",
"525 50 QCURVE",
"521 29 OFFCURVE",
"486 0 OFFCURVE",
"465 0 QCURVE",
"449 0 OFFCURVE",
"426 18 OFFCURVE",
"427 43 QCURVE",
"377 12 OFFCURVE",
"328 3 QCURVE",
"261 -9 OFFCURVE",
"161 29 OFFCURVE",
"133 73 QCURVE",
"83 151 OFFCURVE",
"109 271 QCURVE",
"133 379 OFFCURVE",
"219 457 QCURVE",
"321 550 OFFCURVE",
"451 526 QCURVE",
"496 518 OFFCURVE",
"517 505 QCURVE",
"549 665 LINE",
"553 686 OFFCURVE",
"589 716 OFFCURVE",
"630 716 OFFCURVE",
"654 687 OFFCURVE",
"649 667 QCURVE"
);
}
);
width = 570;
},
{
layerId = "3644BD71-2ABE-4F7E-A414-48DBC1C300FF";
paths = (
{
closed = 1;
nodes = (
"462 294 OFFCURVE",
"474 351 QCURVE",
"473 351 OFFCURVE",
"443 376 QCURVE",
"433 384 OFFCURVE",
"428 385 QCURVE",
"371 405 OFFCURVE",
"324 377 QCURVE",
"280 350 OFFCURVE",
"255 294 QCURVE",
"229 235 OFFCURVE",
"259 149 OFFCURVE",
"308 140 QCURVE",
"338 134 OFFCURVE",
"373 148 OFFCURVE",
"402 176 QCURVE",
"409 183 OFFCURVE",
"418 196 OFFCURVE",
"436 225 OFFCURVE",
"449 242 QCURVE",
"451 245 OFFCURVE",
"453 247 QCURVE"
);
},
{
closed = 1;
nodes = (
"574 158 OFFCURVE",
"556 74 QCURVE",
"550 45 OFFCURVE",
"500 4 OFFCURVE",
"471 4 QCURVE",
"441 4 OFFCURVE",
"427 36 QCURVE",
"405 21 OFFCURVE",
"382 12 QCURVE",
"323 -10 OFFCURVE",
"255 2 QCURVE",
"206 11 OFFCURVE",
"137 60 OFFCURVE",
"105 126 OFFCURVE",
"93 206 OFFCURVE",
"111 286 OFFCURVE",
"125 324 QCURVE",
"173 433 OFFCURVE",
"269 491 QCURVE",
"380 558 OFFCURVE",
"499 519 QCURVE",
"502 517 OFFCURVE",
"507 515 QCURVE",
"531 632 OFFCURVE",
"533 647 QCURVE",
"539 676 OFFCURVE",
"588 717 OFFCURVE",
"646 718 OFFCURVE",
"679 678 OFFCURVE",
"673 649 QCURVE"
);
}
);
width = 591;
}
);
unicode = 0064;
},
{
glyphname = e;
lastChange = "2019-10-09 23:07:58 +0000";
layers = (
{
layerId = UUID0;
paths = (
{
closed = 1;
nodes = (
"511 323 OFFCURVE",
"500 346 QCURVE",
"468 412 OFFCURVE",
"401 421 QCURVE",
"341 430 OFFCURVE",
"231 362 OFFCURVE",
"202 308 QCURVE",
"260 310 OFFCURVE",
"513 308 QCURVE"
);
},
{
closed = 1;
nodes = (
"179 165 OFFCURVE",
"248 105 OFFCURVE",
"319 99 QCURVE",
"366 95 OFFCURVE",
"384 99 QCURVE",
"414 106 OFFCURVE",
"446 117 OFFCURVE",
"467 127 QCURVE",
"488 134 OFFCURVE",
"521 115 OFFCURVE",
"527 77 OFFCURVE",
"501 41 OFFCURVE",
"481 32 QCURVE",
"463 23 OFFCURVE",
"423 7 OFFCURVE",
"354 -4 OFFCURVE",
"290 1 QCURVE",
"218 7 OFFCURVE",
"119 59 OFFCURVE",
"79 130 OFFCURVE",
"68 195 OFFCURVE",
"76 258 OFFCURVE",
"94 308 QCURVE",
"111 349 OFFCURVE",
"174 431 OFFCURVE",
"264 494 OFFCURVE",
"378 527 OFFCURVE",
"436 519 QCURVE",
"491 511 OFFCURVE",
"572 448 OFFCURVE",
"594 401 QCURVE",
"602 387 OFFCURVE",
"611 359 OFFCURVE",
"615 330 OFFCURVE",
"615 315 OFFCURVE",
"615 281 OFFCURVE",
"615 274 QCURVE",
"615 255 OFFCURVE",
"588 223 OFFCURVE",
"569 217 QCURVE",
"555 210 OFFCURVE",
"541 210 QCURVE",
"360 211 LINE",
"181 213 OFFCURVE",
"180 210 QCURVE",
"177 210 LINE"
);
}
);
width = 570;
},
{
layerId = "3644BD71-2ABE-4F7E-A414-48DBC1C300FF";
paths = (
{
closed = 1;
nodes = (
"499 335 OFFCURVE",
"484 384 OFFCURVE",
"447 405 QCURVE",
"402 428 OFFCURVE",
"339 401 QCURVE",
"278 375 OFFCURVE",
"259 314 QCURVE",
"294 313 OFFCURVE",
"370 311 OFFCURVE",
"480 312 OFFCURVE",
"496 319 QCURVE"
);
},
{
closed = 1;
nodes = (
"542 83 OFFCURVE",
"518 60 QCURVE",
"494 41 OFFCURVE",
"447 15 OFFCURVE",
"399 5 QCURVE",
"327 -4 OFFCURVE",
"225 11 OFFCURVE",
"152 61 OFFCURVE",
"108 146 OFFCURVE",
"106 227 QCURVE",
"108 274 OFFCURVE",
"126 314 QCURVE",
"215 526 OFFCURVE",
"424 530 QCURVE",
"615 529 OFFCURVE",
"619 323 QCURVE",
"621 280 OFFCURVE",
"597 253 QCURVE",
"568 219 OFFCURVE",
"512 215 QCURVE",
"486 212 OFFCURVE",
"382 209 OFFCURVE",
"240 219 QCURVE",
"230 127 OFFCURVE",
"333 112 QCURVE",
"394 108 OFFCURVE",
"423 131 QCURVE",
"470 170 OFFCURVE",
"522 173 OFFCURVE",
"552 148 OFFCURVE",
"559 115 OFFCURVE",
"549 98 QCURVE"
);
}
);
width = 612;
}
);
unicode = 0065;
},
{
glyphname = f;
lastChange = "2019-10-09 23:07:58 +0000";
layers = (
{
layerId = UUID0;
paths = (
{
closed = 1;
nodes = (
"196 427 OFFCURVE",
"192 427 QCURVE",
"171 426 OFFCURVE",
"146 454 OFFCURVE",
"153 495 OFFCURVE",
"187 526 OFFCURVE",
"208 527 QCURVE",
"217 527 OFFCURVE",
"226 528 QCURVE",
"248 603 OFFCURVE",
"273 639 QCURVE",
"310 688 OFFCURVE",
"346 703 QCURVE",
"355 707 OFFCURVE",
"380 713 OFFCURVE",
"410 718 OFFCURVE",
"411 719 QCURVE",
"432 723 OFFCURVE",
"463 701 OFFCURVE",
"463 661 OFFCURVE",
"434 626 OFFCURVE",
"412 621 QCURVE",
"400 619 OFFCURVE",
"382 615 OFFCURVE",
"376 615 OFFCURVE",
"372 614 OFFCURVE",
"370 613 QCURVE",
"345 597 OFFCURVE",
"326 530 QCURVE",
"369 530 LINE",
"390 530 OFFCURVE",
"413 501 OFFCURVE",
"404 459 OFFCURVE",
"369 430 OFFCURVE",
"348 430 QCURVE",
"325 430 LINE",
"301 430 LINE",
"295 402 OFFCURVE",
"285 349 QCURVE",
"245 143 OFFCURVE",
"238 56 QCURVE",
"237 36 OFFCURVE",
"206 2 OFFCURVE",
"164 -3 OFFCURVE",
"135 21 OFFCURVE",
"137 42 QCURVE",
"143 134 OFFCURVE",
"184 348 QCURVE",
"194 399 OFFCURVE",
"200 428 QCURVE"
);
}
);
width = 369;
},
{
layerId = "3644BD71-2ABE-4F7E-A414-48DBC1C300FF";
paths = (
{
closed = 1;
nodes = (
"442 565 OFFCURVE",
"405 571 QCURVE",
"384 575 OFFCURVE",
"374 575 QCURVE",
"365 575 OFFCURVE",
"362 572 QCURVE",
"360 566 OFFCURVE",
"358 559 QCURVE",
"356 551 OFFCURVE",
"351 521 QCURVE",
"351 519 LINE",
"401 518 LINE",
"429 517 OFFCURVE",
"460 475 OFFCURVE",
"446 417 OFFCURVE",
"396 377 OFFCURVE",
"367 378 QCURVE",
"330 379 LINE",
"301 221 OFFCURVE",
"259 65 QCURVE",
"251 37 OFFCURVE",
"199 -2 OFFCURVE",
"143 2 OFFCURVE",
"113 46 OFFCURVE",
"121 75 QCURVE",
"163 227 OFFCURVE",
"192 384 QCURVE",
"167 388 OFFCURVE",
"140 428 OFFCURVE",
"147 455 QCURVE",
"153 478 OFFCURVE",
"189 514 OFFCURVE",
"211 520 QCURVE",
"217 552 OFFCURVE",
"221 565 QCURVE",
"230 606 OFFCURVE",
"249 631 QCURVE",
"307 714 OFFCURVE",
"402 715 QCURVE",
"425 715 OFFCURVE",
"459 709 QCURVE",
"491 703 OFFCURVE",
"496 702 QCURVE",
"524 699 OFFCURVE",
"551 654 OFFCURVE",
"532 597 OFFCURVE",
"480 561 OFFCURVE",
"452 564 QCURVE"
);
}
);
width = 462;
}
);
unicode = 0066;
},
{
glyphname = g;
lastChange = "2019-10-09 23:07:58 +0000";
layers = (
{
layerId = UUID0;
paths = (
{
closed = 1;
nodes = (
"630 369 OFFCURVE",
"595 193 QCURVE",
"574 93 OFFCURVE",
"553 26 QCURVE",
"526 -64 OFFCURVE",
"493 -99 QCURVE",
"455 -141 OFFCURVE",
"343 -190 OFFCURVE",
"287 -195 QCURVE",
"228 -200 OFFCURVE",
"129 -164 OFFCURVE",
"103 -119 QCURVE",
"94 -102 OFFCURVE",
"87 -52 OFFCURVE",
"115 -15 OFFCURVE",
"157 -3 OFFCURVE",
"190 -23 OFFCURVE",
"192 -42 QCURVE",
"192 -50 OFFCURVE",
"192 -77 OFFCURVE",
"203 -85 QCURVE",
"225 -105 OFFCURVE",
"299 -96 QCURVE",
"337 -92 OFFCURVE",
"404 -62 OFFCURVE",
"424 -41 QCURVE",
"436 -28 OFFCURVE",
"456 33 QCURVE",
"406 6 OFFCURVE",
"335 4 QCURVE",
"268 2 OFFCURVE",
"173 53 OFFCURVE",
"129 134 OFFCURVE",
"124 183 QCURVE",
"121 231 OFFCURVE",
"140 302 QCURVE",
"171 413 OFFCURVE",
"264 479 QCURVE",
"370 554 OFFCURVE",
"498 527 QCURVE",
"530 520 OFFCURVE",
"546 501 QCURVE",
"562 531 OFFCURVE",
"595 535 QCURVE",
"617 537 OFFCURVE",
"643 511 OFFCURVE",
"642 491 QCURVE"
);
},
{
closed = 1;
nodes = (
"475 403 OFFCURVE",
"448 409 QCURVE",
"375 425 OFFCURVE",
"322 387 QCURVE",
"275 354 OFFCURVE",
"257 293 QCURVE",
"234 211 OFFCURVE",
"261 165 QCURVE",
"287 122 OFFCURVE",
"359 124 QCURVE",
"404 125 OFFCURVE",
"416 130 QCURVE",
"467 140 OFFCURVE",
"500 222 QCURVE",
"511 279 OFFCURVE",
"520 331 QCURVE",
"521 364 OFFCURVE",
"480 398 QCURVE"
);
}
);
width = 656;
},
{
layerId = "3644BD71-2ABE-4F7E-A414-48DBC1C300FF";
paths = (
{
closed = 1;
nodes = (
"448 380 LINE",
"413 396 OFFCURVE",
"403 397 QCURVE",
"337 404 OFFCURVE",
"296 358 QCURVE",
"253 312 OFFCURVE",
"246 240 QCURVE",
"239 172 OFFCURVE",
"270 143 QCURVE",
"299 116 OFFCURVE",
"364 147 QCURVE",
"368 149 OFFCURVE",
"372 151 QCURVE",
"380 156 LINE",
"383 158 OFFCURVE",
"392 165 OFFCURVE",
"397 169 OFFCURVE",
"409 179 OFFCURVE",
"413 183 OFFCURVE",
"426 196 OFFCURVE",
"431 200 OFFCURVE",
"446 215 OFFCURVE",
"449 218 QCURVE",
"468 305 OFFCURVE",
"479 365 QCURVE"
);
},
{
closed = 1;
nodes = (
"612 357 OFFCURVE",
"557 97 OFFCURVE",
"544 39 OFFCURVE",
"535 17 QCURVE",
"492 -77 OFFCURVE",
"411 -146 QCURVE",
"379 -173 OFFCURVE",
"313 -204 OFFCURVE",
"235 -211 OFFCURVE",
"187 -200 QCURVE",
"136 -180 OFFCURVE",
"96 -132 QCURVE",
"74 -112 OFFCURVE",
"79 -46 OFFCURVE",
"134 4 OFFCURVE",
"195 -8 OFFCURVE",
"204 -27 QCURVE",
"218 -54 OFFCURVE",
"243 -74 OFFCURVE",
"247 -76 QCURVE",
"293 -90 OFFCURVE",
"336 -54 QCURVE",
"380 -17 OFFCURVE",
"407 33 QCURVE",
"401 31 LINE",
"328 -4 OFFCURVE",
"209 1 OFFCURVE",
"168 38 QCURVE",
"132 70 OFFCURVE",
"106 170 OFFCURVE",
"111 225 QCURVE",
"123 347 OFFCURVE",
"204 435 QCURVE",
"251 485 OFFCURVE",
"373 536 OFFCURVE",
"443 529 QCURVE",
"471 526 OFFCURVE",
"520 504 QCURVE",
"542 526 OFFCURVE",
"572 529 QCURVE",
"599 530 OFFCURVE",
"633 494 OFFCURVE",
"629 466 QCURVE"
);
}
);
width = 587;
}
);
unicode = 0067;
},
{
glyphname = h;
lastChange = "2019-10-09 23:07:58 +0000";
layers = (
{
layerId = UUID0;
paths = (
{
closed = 1;
nodes = (
"285 637 OFFCURVE",
"253 487 QCURVE",
"328 537 OFFCURVE",
"397 530 QCURVE",
"540 516 OFFCURVE",
"512 307 QCURVE",
"502 249 OFFCURVE",
"481 163 OFFCURVE",
"451 59 OFFCURVE",
"449 48 QCURVE",
"443 27 OFFCURVE",
"407 -1 OFFCURVE",
"367 0 OFFCURVE",
"345 30 OFFCURVE",
"349 50 QCURVE",
"349 51 OFFCURVE",
"375 144 QCURVE",
"403 246 OFFCURVE",
"410 299 QCURVE",
"428 424 OFFCURVE",
"366 430 QCURVE",
"338 433 OFFCURVE",
"279 396 OFFCURVE",
"233 354 QCURVE",
"230 351 OFFCURVE",
"228 349 QCURVE",
"188 129 OFFCURVE",
"171 49 QCURVE",
"166 28 OFFCURVE",
"131 -1 OFFCURVE",
"89 -1 OFFCURVE",
"66 28 OFFCURVE",
"71 49 QCURVE",
"81 95 OFFCURVE",
"129 360 QCURVE",
"164 551 OFFCURVE",
"192 668 QCURVE",
"198 688 OFFCURVE",
"234 717 OFFCURVE",
"274 715 OFFCURVE",
"297 685 OFFCURVE",
"292 664 QCURVE"
);
}
);
width = 498;
},
{
layerId = "3644BD71-2ABE-4F7E-A414-48DBC1C300FF";
paths = (
{
closed = 1;
nodes = (
"231 158 OFFCURVE",
"211 65 QCURVE",
"205 36 OFFCURVE",
"155 -5 OFFCURVE",
"97 -5 OFFCURVE",
"65 36 OFFCURVE",
"71 65 QCURVE",
"91 158 OFFCURVE",
"163 532 OFFCURVE",
"187 649 QCURVE",
"194 678 OFFCURVE",
"243 719 OFFCURVE",
"301 719 OFFCURVE",
"334 678 OFFCURVE",
"327 649 QCURVE",
"309 564 OFFCURVE",
"298 504 QCURVE",
"302 506 LINE",
"387 541 OFFCURVE",
"459 526 QCURVE",
"502 517 OFFCURVE",
"561 459 OFFCURVE",
"567 410 QCURVE",
"569 384 OFFCURVE",
"560 330 QCURVE",
"553 291 OFFCURVE",
"539 228 QCURVE",
"531 195 OFFCURVE",
"497 61 QCURVE",
"491 34 OFFCURVE",
"442 -3 OFFCURVE",
"388 -1 OFFCURVE",
"360 40 OFFCURVE",
"367 67 QCURVE",
"407 228 OFFCURVE",
"407 230 QCURVE",
"421 290 OFFCURVE",
"428 325 QCURVE",
"433 360 OFFCURVE",
"432 368 QCURVE",
"430 391 OFFCURVE",
"406 396 QCURVE",
"373 403 OFFCURVE",
"331 386 QCURVE",
"316 380 OFFCURVE",
"268 351 QCURVE"
);
}
);
width = 542;
}
);
unicode = 0068;
},
{
glyphname = i;
lastChange = "2019-10-09 23:07:58 +0000";
layers = (
{
layerId = UUID0;
paths = (
{
closed = 1;
nodes = (
"255 433 OFFCURVE",
"184 125 OFFCURVE",
"170 50 QCURVE",
"166 29 OFFCURVE",
"131 -1 OFFCURVE",
"89 -1 OFFCURVE",
"65 27 OFFCURVE",
"70 48 QCURVE",
"84 123 OFFCURVE",
"155 433 OFFCURVE",
"165 481 QCURVE",
"169 502 OFFCURVE",
"204 531 OFFCURVE",
"246 531 OFFCURVE",
"269 502 OFFCURVE",
"265 481 QCURVE"
);
},
{
closed = 1;
nodes = (
"305 686 OFFCURVE",
"296 644 OFFCURVE",
"261 615 OFFCURVE",
"219 615 OFFCURVE",
"196 644 OFFCURVE",
"205 686 OFFCURVE",
"240 715 OFFCURVE",
"282 715 OFFCURVE",
"293 700 QCURVE"
);
}
);
width = 211;
},
{
layerId = "3644BD71-2ABE-4F7E-A414-48DBC1C300FF";
paths = (
{
closed = 1;
nodes = (
"247 272 OFFCURVE",
"207 70 QCURVE",
"201 41 OFFCURVE",
"153 0 OFFCURVE",
"94 -1 OFFCURVE",
"62 39 OFFCURVE",
"67 68 QCURVE",
"109 280 OFFCURVE",
"154 465 QCURVE",
"162 494 OFFCURVE",
"213 533 OFFCURVE",
"270 531 OFFCURVE",
"300 488 OFFCURVE",
"293 459 QCURVE"
);
},
{
closed = 1;
nodes = (
"335 679 OFFCURVE",
"322 621 OFFCURVE",
"273 580 OFFCURVE",
"215 580 OFFCURVE",
"182 621 OFFCURVE",
"195 679 OFFCURVE",
"245 720 OFFCURVE",
"303 720 OFFCURVE",
"318 699 QCURVE"
);
}
);
width = 247;
}
);
unicode = 0069;
},
{
glyphname = j;
lastChange = "2019-10-09 23:07:58 +0000";
layers = (
{
layerId = UUID0;
paths = (
{
closed = 1;
nodes = (
"272 251 OFFCURVE",
"257 178 QCURVE",
"235 69 OFFCURVE",
"213 -3 QCURVE",
"200 -46 OFFCURVE",
"187 -73 QCURVE",
"169 -114 OFFCURVE",
"145 -133 QCURVE",
"126 -149 OFFCURVE",
"95 -162 QCURVE",
"94 -163 OFFCURVE",
"69 -174 OFFCURVE",
"61 -178 QCURVE",
"40 -189 OFFCURVE",
"3 -178 OFFCURVE",
"-10 -142 OFFCURVE",
"9 -102 OFFCURVE",
"29 -92 QCURVE",
"30 -91 OFFCURVE",
"69 -73 QCURVE",
"82 -67 OFFCURVE",
"88 -63 QCURVE",
"91 -58 OFFCURVE",
"95 -49 QCURVE",
"105 -29 OFFCURVE",
"116 7 QCURVE",
"136 71 OFFCURVE",
"157 177 QCURVE",
"171 248 OFFCURVE",
"210 482 QCURVE",
"213 502 OFFCURVE",
"248 533 OFFCURVE",
"289 535 OFFCURVE",
"314 507 OFFCURVE",
"311 486 QCURVE"
);
},
{
closed = 1;
nodes = (
"346 686 OFFCURVE",
"337 644 OFFCURVE",
"302 615 OFFCURVE",
"260 615 OFFCURVE",
"237 644 OFFCURVE",
"246 686 OFFCURVE",
"281 715 OFFCURVE",
"323 715 OFFCURVE",
"334 700 QCURVE"
);
}
);
width = 270;
},
{
layerId = "3644BD71-2ABE-4F7E-A414-48DBC1C300FF";
paths = (
{
closed = 1;
nodes = (
"405 458 OFFCURVE",
"384 337 OFFCURVE",
"359 193 OFFCURVE",
"347 138 QCURVE",
"321 17 OFFCURVE",
"303 -40 QCURVE",
"290 -84 OFFCURVE",
"276 -112 QCURVE",
"251 -161 OFFCURVE",
"216 -182 QCURVE",
"178 -204 OFFCURVE",
"128 -204 QCURVE",
"116 -204 OFFCURVE",
"87 -203 OFFCURVE",
"87 -204 QCURVE",
"57 -208 OFFCURVE",
"20 -172 OFFCURVE",
"25 -114 OFFCURVE",
"71 -69 OFFCURVE",
"100 -66 QCURVE",
"118 -64 OFFCURVE",
"154 -65 QCURVE",
"160 -49 OFFCURVE",
"167 -26 QCURVE",
"186 34 OFFCURVE",
"208 137 QCURVE",
"218 192 OFFCURVE",
"244 334 OFFCURVE",
"265 453 OFFCURVE",
"265 460 QCURVE",
"270 488 OFFCURVE",
"319 531 OFFCURVE",
"377 533 OFFCURVE",
"411 493 OFFCURVE",
"406 464 QCURVE"
);
},
{
closed = 1;
nodes = (
"440 680 OFFCURVE",
"428 622 OFFCURVE",
"378 581 OFFCURVE",
"320 581 OFFCURVE",
"288 622 OFFCURVE",
"300 680 OFFCURVE",
"350 721 OFFCURVE",
"408 721 OFFCURVE",
"423 700 QCURVE"
);
}
);
width = 368;
}
);
unicode = 006A;
},
{
glyphname = k;
lastChange = "2019-10-09 23:07:58 +0000";
layers = (
{
layerId = UUID0;
paths = (
{
closed = 1;
nodes = (
"207 209 LINE",
"204 207 OFFCURVE",
"202 206 QCURVE",
"184 128 OFFCURVE",
"162 47 QCURVE",
"157 26 OFFCURVE",
"120 -2 OFFCURVE",
"80 0 OFFCURVE",
"58 31 OFFCURVE",
"63 51 QCURVE",
"123 281 OFFCURVE",
"205 666 QCURVE",
"210 687 OFFCURVE",
"245 716 OFFCURVE",
"287 716 OFFCURVE",
"310 687 OFFCURVE",
"305 666 QCURVE",
"263 470 OFFCURVE",
"233 338 QCURVE",
"405 460 OFFCURVE",
"473 514 QCURVE",
"489 530 OFFCURVE",
"532 532 OFFCURVE",
"557 505 OFFCURVE",
"550 463 OFFCURVE",
"533 448 QCURVE",
"472 399 OFFCURVE",
"362 319 QCURVE",
"399 209 OFFCURVE",
"486 82 QCURVE",
"497 67 OFFCURVE",
"486 26 OFFCURVE",
"449 -2 OFFCURVE",
"409 0 OFFCURVE",
"398 16 QCURVE",
"310 143 OFFCURVE",
"270 254 QCURVE"
);
}
);
width = 532;
},
{
layerId = "3644BD71-2ABE-4F7E-A414-48DBC1C300FF";
paths = (
{
closed = 1;
nodes = (
"239 151 LINE",
"236 150 OFFCURVE",
"234 148 QCURVE",
"217 67 LINE",
"210 38 OFFCURVE",
"160 -2 OFFCURVE",
"102 -1 OFFCURVE",
"71 40 OFFCURVE",
"77 69 QCURVE",
"118 249 OFFCURVE",
"190 645 QCURVE",
"195 674 OFFCURVE",
"243 716 OFFCURVE",
"301 719 OFFCURVE",
"335 680 OFFCURVE",
"331 651 QCURVE",
"300 476 OFFCURVE",
"274 339 QCURVE",
"368 415 OFFCURVE",
"473 507 QCURVE",
"498 528 OFFCURVE",
"555 530 OFFCURVE",
"590 490 OFFCURVE",
"580 433 OFFCURVE",
"555 411 QCURVE",
"410 289 LINE",
"447 200 OFFCURVE",
"511 116 QCURVE",
"527 96 OFFCURVE",
"514 38 OFFCURVE",
"464 -2 OFFCURVE",
"406 -1 OFFCURVE",
"391 20 QCURVE",
"326 105 OFFCURVE",
"287 189 QCURVE"
);
}
);
width = 532;
}
);
unicode = 006B;
},
{
glyphname = l;
lastChange = "2019-10-09 23:07:58 +0000";
layers = (
{
layerId = UUID0;
paths = (
{
closed = 1;
nodes = (
"279 597 OFFCURVE",
"229 343 OFFCURVE",
"184 136 OFFCURVE",
"163 48 QCURVE",
"157 27 OFFCURVE",
"121 -1 OFFCURVE",
"80 1 OFFCURVE",
"58 31 OFFCURVE",
"64 52 QCURVE",
"96 185 OFFCURVE",
"125 323 OFFCURVE",
"179 597 OFFCURVE",
"194 666 QCURVE",
"199 687 OFFCURVE",
"234 716 OFFCURVE",
"276 716 OFFCURVE",
"299 687 OFFCURVE",
"294 666 QCURVE"
);
}
);
width = 212;
},
{
layerId = "3644BD71-2ABE-4F7E-A414-48DBC1C300FF";
paths = (
{
closed = 1;
nodes = (
"310 566 OFFCURVE",
"262 338 OFFCURVE",
"223 152 OFFCURVE",
"204 67 QCURVE",
"197 38 OFFCURVE",
"147 -2 OFFCURVE",
"89 -1 OFFCURVE",
"58 40 OFFCURVE",
"64 69 QCURVE",
"66 69 OFFCURVE",
"125 350 QCURVE",
"187 646 LINE",
"193 675 OFFCURVE",
"243 716 OFFCURVE",
"301 716 OFFCURVE",
"333 675 OFFCURVE",
"327 646 QCURVE"
);
}
);
width = 241;
}
);
unicode = 006C;
},
{
glyphname = m;
lastChange = "2019-10-09 23:07:58 +0000";
layers = (
{
layerId = UUID0;
paths = (
{
closed = 1;
nodes = (
"514 313 OFFCURVE",
"496 227 QCURVE",
"482 164 OFFCURVE",
"461 51 QCURVE",
"458 31 OFFCURVE",
"423 1 OFFCURVE",
"381 -1 OFFCURVE",
"357 28 OFFCURVE",
"361 49 QCURVE",
"382 162 OFFCURVE",
"396 227 QCURVE",
"401 253 LINE",
"406 277 LINE",
"407 282 OFFCURVE",
"413 314 OFFCURVE",
"415 329 OFFCURVE",
"418 354 OFFCURVE",
"419 373 OFFCURVE",
"418 382 QCURVE",
"416 410 OFFCURVE",
"404 421 QCURVE",
"392 433 OFFCURVE",
"361 430 QCURVE",
"327 427 OFFCURVE",
"300 412 QCURVE",
"274 397 OFFCURVE",
"243 364 QCURVE",
"237 358 OFFCURVE",
"230 353 QCURVE",
"191 153 OFFCURVE",
"165 48 QCURVE",
"159 27 OFFCURVE",
"123 -1 OFFCURVE",
"82 1 OFFCURVE",
"60 31 OFFCURVE",
"66 52 QCURVE",
"91 163 OFFCURVE",
"105 226 OFFCURVE",
"148 453 OFFCURVE",
"155 485 QCURVE",
"158 500 OFFCURVE",
"193 530 OFFCURVE",
"233 530 OFFCURVE",
"257 504 OFFCURVE",
"256 491 QCURVE",
"310 524 OFFCURVE",
"374 530 QCURVE",
"444 536 OFFCURVE",
"483 499 QCURVE",
"501 481 OFFCURVE",
"510 455 QCURVE",
"603 529 OFFCURVE",
"695 530 QCURVE",
"769 531 OFFCURVE",
"804 484 QCURVE",
"831 443 OFFCURVE",
"829 379 QCURVE",
"828 349 OFFCURVE",
"815 278 OFFCURVE",
"793 189 OFFCURVE",
"791 183 QCURVE",
"786 156 LINE",
"782 138 LINE",
"780 128 LINE",
"779 123 OFFCURVE",
"778 113 OFFCURVE",
"776 100 OFFCURVE",
"771 70 OFFCURVE",
"770 52 QCURVE",
"766 31 OFFCURVE",
"733 0 OFFCURVE",
"691 -3 OFFCURVE",
"666 24 OFFCURVE",
"668 44 QCURVE",
"671 62 OFFCURVE",
"674 93 OFFCURVE",
"676 108 OFFCURVE",
"678 119 OFFCURVE",
"679 126 QCURVE",
"681 136 LINE",
"686 156 LINE",
"691 183 LINE",
"695 199 OFFCURVE",
"715 280 OFFCURVE",
"726 336 OFFCURVE",
"726 361 QCURVE",
"728 396 OFFCURVE",
"704 427 OFFCURVE",
"673 427 QCURVE",
"604 426 OFFCURVE",
"517 343 QCURVE"
);
}
);
width = 813;
},
{
layerId = "3644BD71-2ABE-4F7E-A414-48DBC1C300FF";
paths = (
{
closed = 1;
nodes = (
"270 363 OFFCURVE",
"266 355 QCURVE",
"265 351 LINE",
"228 169 OFFCURVE",
"207 70 QCURVE",
"201 41 OFFCURVE",
"152 0 OFFCURVE",
"94 0 OFFCURVE",
"61 41 OFFCURVE",
"67 70 QCURVE",
"88 165 OFFCURVE",
"147 458 QCURVE",
"153 487 OFFCURVE",
"202 528 OFFCURVE",
"231 529 QCURVE",
"259 529 OFFCURVE",
"276 510 QCURVE",
"340 537 OFFCURVE",
"403 531 QCURVE",
"479 524 OFFCURVE",
"522 476 QCURVE",
"564 507 OFFCURVE",
"662 533 OFFCURVE",
"706 529 QCURVE",
"767 523 OFFCURVE",
"854 453 OFFCURVE",
"861 391 QCURVE",
"864 357 OFFCURVE",
"849 244 OFFCURVE",
"835 181 OFFCURVE",
"805 65 OFFCURVE",
"805 64 QCURVE",
"798 37 OFFCURVE",
"750 -1 OFFCURVE",
"697 1 OFFCURVE",
"667 41 OFFCURVE",
"674 68 QCURVE",
"677 80 OFFCURVE",
"704 187 OFFCURVE",
"716 239 OFFCURVE",
"729 327 OFFCURVE",
"726 351 QCURVE",
"724 370 OFFCURVE",
"693 395 OFFCURVE",
"667 397 QCURVE",
"640 400 OFFCURVE",
"588 381 OFFCURVE",
"574 364 QCURVE",
"572 361 OFFCURVE",
"569 353 QCURVE",
"568 350 OFFCURVE",
"567 347 QCURVE",
"564 339 LINE",
"563 336 OFFCURVE",
"562 333 QCURVE",
"559 324 OFFCURVE",
"557 317 QCURVE",
"553 286 OFFCURVE",
"537 198 OFFCURVE",
"523 144 OFFCURVE",
"504 73 OFFCURVE",
"502 63 QCURVE",
"495 36 OFFCURVE",
"447 -2 OFFCURVE",
"394 0 OFFCURVE",
"364 40 OFFCURVE",
"371 67 QCURVE",
"375 84 OFFCURVE",
"386 126 QCURVE",
"401 184 LINE",
"407 209 OFFCURVE",
"421 284 OFFCURVE",
"423 308 QCURVE",
"423 312 OFFCURVE",
"424 316 QCURVE",
"425 337 OFFCURVE",
"424 353 QCURVE",
"422 372 OFFCURVE",
"391 397 OFFCURVE",
"364 399 QCURVE",
"337 402 OFFCURVE",
"286 383 OFFCURVE",
"271 366 QCURVE"
);
}
);
width = 848;
}
);
unicode = 006D;
},
{
glyphname = n;
lastChange = "2019-10-09 23:07:58 +0000";
layers = (
{
layerId = UUID0;
paths = (
{
closed = 1;
nodes = (
"217 311 OFFCURVE",
"176 107 OFFCURVE",
"164 50 QCURVE",
"160 29 OFFCURVE",
"125 0 OFFCURVE",
"83 0 OFFCURVE",
"60 29 OFFCURVE",
"64 50 QCURVE",
"75 103 OFFCURVE",
"134 397 OFFCURVE",
"153 481 QCURVE",
"157 502 OFFCURVE",
"193 530 OFFCURVE",
"235 530 OFFCURVE",
"257 500 OFFCURVE",
"252 479 QCURVE",
"250 468 LINE",
"354 534 OFFCURVE",
"441 529 QCURVE",
"478 527 OFFCURVE",
"530 495 OFFCURVE",
"555 451 OFFCURVE",
"565 389 OFFCURVE",
"564 335 OFFCURVE",
"558 304 QCURVE",
"550 248 OFFCURVE",
"523 154 QCURVE",
"497 62 OFFCURVE",
"494 50 QCURVE",
"490 29 OFFCURVE",
"455 0 OFFCURVE",
"413 0 OFFCURVE",
"390 29 OFFCURVE",
"394 50 QCURVE",
"398 66 OFFCURVE",
"425 161 QCURVE",
"450 245 OFFCURVE",
"458 298 QCURVE",
"468 367 OFFCURVE",
"445 427 OFFCURVE",
"414 429 QCURVE",
"403 430 OFFCURVE",
"379 427 OFFCURVE",
"360 423 OFFCURVE",
"347 417 QCURVE",
"326 408 LINE",
"318 404 OFFCURVE",
"286 383 OFFCURVE",
"272 375 OFFCURVE",
"231 347 OFFCURVE",
"223 342 QCURVE"
);
}
);
width = 548;
},
{
layerId = "3644BD71-2ABE-4F7E-A414-48DBC1C300FF";
paths = (
{
closed = 1;
nodes = (
"279 361 OFFCURVE",
"276 353 QCURVE",
"275 350 OFFCURVE",
"273 347 QCURVE",
"272 339 LINE",
"270 336 OFFCURVE",
"269 333 QCURVE",
"269 330 LINE",
"262 299 OFFCURVE",
"225 117 OFFCURVE",
"215 70 QCURVE",
"209 41 OFFCURVE",
"160 0 OFFCURVE",
"102 0 OFFCURVE",
"69 41 OFFCURVE",
"75 70 QCURVE",
"84 112 OFFCURVE",
"137 372 OFFCURVE",
"147 456 QCURVE",
"153 486 OFFCURVE",
"183 515 OFFCURVE",
"214 518 QCURVE",
"266 518 OFFCURVE",
"273 499 QCURVE",
"339 536 OFFCURVE",
"413 529 QCURVE",
"474 523 OFFCURVE",
"561 453 OFFCURVE",
"568 391 QCURVE",
"571 357 OFFCURVE",
"558 253 OFFCURVE",
"542 182 OFFCURVE",
"512 64 OFFCURVE",
"512 63 QCURVE",
"505 36 OFFCURVE",
"457 -2 OFFCURVE",
"404 0 OFFCURVE",
"374 40 OFFCURVE",
"381 67 QCURVE",
"383 78 OFFCURVE",
"411 188 OFFCURVE",
"425 248 OFFCURVE",
"436 327 OFFCURVE",
"433 351 QCURVE",
"431 370 OFFCURVE",
"400 395 OFFCURVE",
"374 397 QCURVE",
"347 400 OFFCURVE",
"295 381 OFFCURVE",
"281 364 QCURVE"
);
}
);
width = 555;
}
);
unicode = 006E;
},
{
glyphname = o;
lastChange = "2019-10-09 23:07:58 +0000";
layers = (
{
layerId = UUID0;
paths = (
{
closed = 1;
nodes = (
"307 429 OFFCURVE",
"306 429 QCURVE",
"298 427 LINE",
"249 403 OFFCURVE",
"180 298 OFFCURVE",
"178 242 QCURVE",
"174 174 OFFCURVE",
"205 139 QCURVE",
"238 101 OFFCURVE",
"308 111 QCURVE",
"352 117 OFFCURVE",
"430 194 OFFCURVE",
"467 280 OFFCURVE",
"456 383 OFFCURVE",
"425 406 QCURVE",
"415 414 OFFCURVE",
"403 421 OFFCURVE",
"385 426 OFFCURVE",
"374 426 OFFCURVE",
"338 428 OFFCURVE",
"325 429 QCURVE",
"322 429 OFFCURVE",
"318 430 QCURVE"
);
},
{
closed = 1;
nodes = (
"368 528 OFFCURVE",
"398 527 OFFCURVE",
"407 526 OFFCURVE",
"432 523 OFFCURVE",
"439 521 QCURVE",
"457 514 LINE",
"468 510 OFFCURVE",
"487 498 OFFCURVE",
"499 490 QCURVE",
"554 446 OFFCURVE",
"571 287 OFFCURVE",
"548 238 QCURVE",
"528 184 OFFCURVE",
"462 91 OFFCURVE",
"366 19 OFFCURVE",
"317 7 QCURVE",
"178 -25 OFFCURVE",
"117 60 QCURVE",
"70 125 OFFCURVE",
"77 227 QCURVE",
"83 307 OFFCURVE",
"128 379 QCURVE",
"182 471 OFFCURVE",
"269 515 QCURVE",
"287 524 OFFCURVE",
"312 528 QCURVE",
"313 528 OFFCURVE",
"326 529 QCURVE",
"331 530 OFFCURVE",
"334 531 QCURVE",
"350 534 OFFCURVE",
"364 528 QCURVE"
);
}
);
width = 528;
},
{
layerId = "3644BD71-2ABE-4F7E-A414-48DBC1C300FF";
paths = (
{
closed = 1;
nodes = (
"325 392 OFFCURVE",
"324 392 QCURVE",
"313 388 LINE",
"280 365 OFFCURVE",
"234 283 OFFCURVE",
"230 239 QCURVE",
"225 197 OFFCURVE",
"257 145 OFFCURVE",
"291 138 QCURVE",
"331 130 OFFCURVE",
"355 138 QCURVE",
"375 145 OFFCURVE",
"427 208 OFFCURVE",
"458 305 OFFCURVE",
"449 369 OFFCURVE",
"433 376 QCURVE",
"422 382 OFFCURVE",
"401 387 OFFCURVE",
"362 392 OFFCURVE",
"343 397 QCURVE"
);
},
{
closed = 1;
nodes = (
"491 514 OFFCURVE",
"520 500 QCURVE",
"553 482 OFFCURVE",
"591 420 OFFCURVE",
"597 350 OFFCURVE",
"591 273 OFFCURVE",
"578 242 QCURVE",
"563 194 OFFCURVE",
"510 106 OFFCURVE",
"424 26 OFFCURVE",
"374 10 QCURVE",
"312 -10 OFFCURVE",
"237 6 QCURVE",
"153 23 OFFCURVE",
"117 84 QCURVE",
"81 145 OFFCURVE",
"88 224 QCURVE",
"95 297 OFFCURVE",
"177 443 OFFCURVE",
"245 492 QCURVE",
"273 510 OFFCURVE",
"310 521 QCURVE",
"311 521 OFFCURVE",
"333 527 QCURVE",
"341 529 OFFCURVE",
"345 531 QCURVE",
"376 542 OFFCURVE",
"400 529 QCURVE"
);
}
);
width = 567;
}
);
unicode = 006F;
},
{
glyphname = p;
lastChange = "2019-10-09 23:07:58 +0000";
layers = (
{
layerId = UUID0;
paths = (
{
closed = 1;
nodes = (
"194 182 LINE",
"198 177 OFFCURVE",
"200 171 QCURVE",
"218 127 OFFCURVE",
"273 93 OFFCURVE",
"319 101 QCURVE",
"398 115 OFFCURVE",
"484 232 OFFCURVE",
"480 311 QCURVE",
"475 389 OFFCURVE",
"429 418 QCURVE",
"383 449 OFFCURVE",
"304 406 QCURVE",
"268 387 OFFCURVE",
"261 381 QCURVE",
"258 378 OFFCURVE",
"253 373 OFFCURVE",
"246 364 QCURVE",
"229 346 LINE"
);
},
{
closed = 1;
nodes = (
"270 492 LINE",
"338 528 OFFCURVE",
"457 534 OFFCURVE",
"498 505 QCURVE",
"537 480 OFFCURVE",
"578 390 OFFCURVE",
"581 337 QCURVE",
"584 299 OFFCURVE",
"568 213 OFFCURVE",
"528 139 OFFCURVE",
"467 67 OFFCURVE",
"372 13 OFFCURVE",
"316 3 QCURVE",
"220 -14 OFFCURVE",
"162 35 QCURVE",
"141 -58 OFFCURVE",
"119 -151 QCURVE",
"115 -172 OFFCURVE",
"79 -200 OFFCURVE",
"37 -200 OFFCURVE",
"15 -170 OFFCURVE",
"20 -149 QCURVE",
"66 48 OFFCURVE",
"158 480 QCURVE",
"162 501 OFFCURVE",
"197 530 OFFCURVE",
"218 530 QCURVE",
"233 530 OFFCURVE",
"252 503 OFFCURVE",
"254 483 QCURVE"
);
}
);
width = 571;
},
{
layerId = "3644BD71-2ABE-4F7E-A414-48DBC1C300FF";
paths = (
{
closed = 1;
nodes = (
"249 172 OFFCURVE",
"292 139 OFFCURVE",
"316 139 QCURVE",
"330 134 OFFCURVE",
"371 152 QCURVE",
"414 172 OFFCURVE",
"460 264 OFFCURVE",
"453 319 QCURVE",
"442 368 OFFCURVE",
"411 384 QCURVE",
"380 400 OFFCURVE",
"308 374 OFFCURVE",
"260 319 QCURVE",
"237 209 LINE"
);
},
{
closed = 1;
nodes = (
"407 555 OFFCURVE",
"496 511 QCURVE",
"574 471 OFFCURVE",
"592 369 QCURVE",
"599 327 OFFCURVE",
"587 236 OFFCURVE",
"545 139 OFFCURVE",
"463 53 OFFCURVE",
"406 28 QCURVE",
"311 -15 OFFCURVE",
"248 5 QCURVE",
"221 13 OFFCURVE",
"198 31 QCURVE",
"181 -46 OFFCURVE",
"161 -132 QCURVE",
"154 -161 OFFCURVE",
"105 -201 OFFCURVE",
"47 -200 OFFCURVE",
"16 -159 OFFCURVE",
"22 -130 QCURVE",
"62 43 OFFCURVE",
"150 458 QCURVE",
"156 487 OFFCURVE",
"206 528 OFFCURVE",
"235 528 QCURVE",
"273 528 OFFCURVE",
"287 495 QCURVE"
);
}
);
width = 587;
}
);
unicode = 0070;
},
{
glyphname = q;
lastChange = "2019-10-09 23:07:58 +0000";
layers = (
{
layerId = UUID0;
paths = (
{
closed = 1;
nodes = (
"501 351 LINE",
"496 360 OFFCURVE",
"493 364 QCURVE",
"487 372 OFFCURVE",
"463 390 QCURVE",
"392 440 OFFCURVE",
"327 410 QCURVE",
"267 382 OFFCURVE",
"224 301 QCURVE",
"189 239 OFFCURVE",
"221 115 OFFCURVE",
"289 102 QCURVE",
"330 94 OFFCURVE",
"360 106 QCURVE",
"374 112 OFFCURVE",
"406 135 OFFCURVE",
"425 151 OFFCURVE",
"447 173 QCURVE",
"480 203 LINE",
"509 340 LINE"
);
},
{
closed = 1;
nodes = (
"546 503 OFFCURVE",
"578 526 OFFCURVE",
"595 526 QCURVE",
"616 526 OFFCURVE",
"640 498 OFFCURVE",
"636 477 QCURVE",
"623 414 OFFCURVE",
"613 365 QCURVE",
"613 357 OFFCURVE",
"610 350 QCURVE",
"565 125 OFFCURVE",
"498 -146 QCURVE",
"493 -166 OFFCURVE",
"457 -195 OFFCURVE",
"416 -193 OFFCURVE",
"394 -163 OFFCURVE",
"399 -142 QCURVE",
"421 -55 OFFCURVE",
"446 52 QCURVE",
"412 28 OFFCURVE",
"383 16 QCURVE",
"321 -10 OFFCURVE",
"250 4 QCURVE",
"199 14 OFFCURVE",
"131 70 OFFCURVE",
"103 145 OFFCURVE",
"99 222 OFFCURVE",
"116 290 OFFCURVE",
"133 328 QCURVE",
"163 385 OFFCURVE",
"247 475 OFFCURVE",
"290 500 QCURVE",
"426 575 OFFCURVE",
"533 474 QCURVE",
"536 473 LINE"
);
}
);
width = 585;
},
{
layerId = "3644BD71-2ABE-4F7E-A414-48DBC1C300FF";
paths = (
{
closed = 1;
nodes = (
"581 201 OFFCURVE",
"503 -134 QCURVE",
"496 -163 OFFCURVE",
"446 -202 OFFCURVE",
"388 -201 OFFCURVE",
"358 -159 OFFCURVE",
"364 -130 QCURVE",
"387 -30 OFFCURVE",
"404 44 QCURVE",
"329 2 OFFCURVE",
"201 -3 OFFCURVE",
"156 39 QCURVE",
"119 76 OFFCURVE",
"98 194 OFFCURVE",
"109 257 QCURVE",
"119 318 OFFCURVE",
"182 441 OFFCURVE",
"234 481 QCURVE",
"296 531 OFFCURVE",
"439 534 OFFCURVE",
"506 489 QCURVE",
"518 507 OFFCURVE",
"557 529 OFFCURVE",
"577 530 QCURVE",
"606 530 OFFCURVE",
"639 490 OFFCURVE",
"633 461 QCURVE"
);
},
{
closed = 1;
nodes = (
"359 411 OFFCURVE",
"305 375 QCURVE",
"289 365 OFFCURVE",
"246 297 OFFCURVE",
"236 184 OFFCURVE",
"279 147 QCURVE",
"329 130 OFFCURVE",
"408 164 OFFCURVE",
"447 232 QCURVE",
"469 333 LINE",
"469 333 OFFCURVE",
"464 366 OFFCURVE",
"422 387 CURVE",
"422 387 LINE"
);
}
);
width = 585;
}
);
unicode = 0071;
},
{
glyphname = r;
lastChange = "2019-10-09 23:07:58 +0000";
layers = (
{
layerId = UUID0;
paths = (
{
closed = 1;
nodes = (
"217 312 OFFCURVE",
"175 102 OFFCURVE",
"164 50 QCURVE",
"160 29 OFFCURVE",
"125 0 OFFCURVE",
"83 0 OFFCURVE",
"60 29 OFFCURVE",
"64 50 QCURVE",
"74 97 OFFCURVE",
"137 410 OFFCURVE",
"154 485 QCURVE",
"158 506 OFFCURVE",
"194 534 OFFCURVE",
"236 534 OFFCURVE",
"258 504 OFFCURVE",
"253 483 QCURVE",
"252 477 LINE",
"258 482 OFFCURVE",
"264 485 QCURVE",
"324 520 OFFCURVE",
"421 517 QCURVE",
"441 516 OFFCURVE",
"464 486 OFFCURVE",
"453 445 OFFCURVE",
"417 416 OFFCURVE",
"396 417 QCURVE",
"331 419 OFFCURVE",
"302 402 QCURVE",
"295 398 OFFCURVE",
"283 390 OFFCURVE",
"275 383 QCURVE",
"263 372 LINE",
"257 367 OFFCURVE",
"230 343 OFFCURVE",
"222 336 QCURVE"
);
}
);
width = 411;
},
{
layerId = "3644BD71-2ABE-4F7E-A414-48DBC1C300FF";
paths = (
{
closed = 1;
nodes = (
"331 499 OFFCURVE",
"417 527 QCURVE",
"444 536 OFFCURVE",
"489 513 OFFCURVE",
"495 461 OFFCURVE",
"462 412 OFFCURVE",
"434 403 QCURVE",
"335 371 OFFCURVE",
"264 340 QCURVE",
"253 308 OFFCURVE",
"243 249 QCURVE",
"231 186 OFFCURVE",
"208 71 QCURVE",
"201 42 OFFCURVE",
"152 0 OFFCURVE",
"95 0 OFFCURVE",
"78 21 QCURVE",
"61 41 OFFCURVE",
"67 69 QCURVE",
"87 168 OFFCURVE",
"99 225 QCURVE",
"100 237 OFFCURVE",
"104 248 QCURVE",
"127 359 OFFCURVE",
"146 449 QCURVE",
"154 488 OFFCURVE",
"204 529 OFFCURVE",
"233 529 QCURVE",
"254 529 OFFCURVE",
"284 506 OFFCURVE",
"286 477 QCURVE"
);
}
);
width = 448;
}
);
unicode = 0072;
},
{
glyphname = s;
lastChange = "2019-10-09 23:07:58 +0000";
layers = (
{
layerId = UUID0;
paths = (
{
closed = 1;
nodes = (
"461 371 OFFCURVE",
"453 381 QCURVE",
"443 398 LINE",
"438 403 OFFCURVE",
"431 408 QCURVE",
"415 420 OFFCURVE",
"358 437 OFFCURVE",
"329 436 QCURVE",
"276 433 OFFCURVE",
"260 399 QCURVE",
"244 363 OFFCURVE",
"256 352 QCURVE",
"272 339 OFFCURVE",
"332 326 QCURVE",
"421 310 OFFCURVE",
"452 295 QCURVE",
"526 258 OFFCURVE",
"520 176 QCURVE",
"515 109 OFFCURVE",
"445 60 QCURVE",
"392 23 OFFCURVE",
"320 9 QCURVE",
"251 -6 OFFCURVE",
"194 6 QCURVE",
"123 19 OFFCURVE",
"100 66 QCURVE",
"88 87 OFFCURVE",
"88 122 QCURVE",
"89 144 LINE",
"89 154 OFFCURVE",
"89 160 QCURVE",
"87 179 OFFCURVE",
"114 215 OFFCURVE",
"156 225 OFFCURVE",
"188 207 OFFCURVE",
"190 187 QCURVE",
"191 176 OFFCURVE",
"191 162 QCURVE",
"191 161 OFFCURVE",
"190 145 OFFCURVE",
"190 141 QCURVE",
"190 126 OFFCURVE",
"193 120 QCURVE",
"200 107 OFFCURVE",
"233 101 QCURVE",
"271 93 OFFCURVE",
"319 103 QCURVE",
"367 113 OFFCURVE",
"396 132 QCURVE",
"417 148 OFFCURVE",
"418 165 QCURVE",
"421 193 OFFCURVE",
"391 207 QCURVE",
"373 216 OFFCURVE",
"293 231 QCURVE",
"209 248 OFFCURVE",
"179 275 QCURVE",
"123 324 OFFCURVE",
"167 421 QCURVE",
"193 477 OFFCURVE",
"291 530 OFFCURVE",
"345 533 QCURVE",
"390 535 OFFCURVE",
"478 510 OFFCURVE",
"506 488 QCURVE",
"516 480 OFFCURVE",
"535 458 OFFCURVE",
"552 432 OFFCURVE",
"554 431 QCURVE",
"566 416 OFFCURVE",
"558 377 OFFCURVE",
"522 348 OFFCURVE",
"481 348 OFFCURVE",
"469 362 QCURVE"
);
}
);
width = 537;
},
{
layerId = "3644BD71-2ABE-4F7E-A414-48DBC1C300FF";
paths = (
{
closed = 1;
nodes = (
"428 366 OFFCURVE",
"412 383 OFFCURVE",
"404 390 OFFCURVE",
"401 394 QCURVE",
"392 400 OFFCURVE",
"364 405 QCURVE",
"352 406 OFFCURVE",
"313 400 OFFCURVE",
"298 392 QCURVE",
"291 388 LINE",
"292 384 LINE",
"293 383 LINE",
"294 382 OFFCURVE",
"307 372 OFFCURVE",
"318 367 QCURVE",
"332 360 OFFCURVE",
"393 336 OFFCURVE",
"401 333 QCURVE",
"422 323 OFFCURVE",
"456 306 OFFCURVE",
"498 272 OFFCURVE",
"520 234 OFFCURVE",
"527 175 OFFCURVE",
"516 142 QCURVE",
"503 108 OFFCURVE",
"457 55 OFFCURVE",
"401 24 OFFCURVE",
"344 6 OFFCURVE",
"316 2 QCURVE",
"262 -5 OFFCURVE",
"154 14 OFFCURVE",
"123 41 QCURVE",
"106 57 OFFCURVE",
"95 86 QCURVE",
"90 102 LINE",
"88 108 OFFCURVE",
"87 111 QCURVE",
"77 133 OFFCURVE",
"99 184 OFFCURVE",
"151 213 OFFCURVE",
"203 202 OFFCURVE",
"214 180 QCURVE",
"218 171 OFFCURVE",
"222 160 QCURVE",
"226 147 LINE",
"228 143 OFFCURVE",
"228 140 QCURVE",
"239 132 OFFCURVE",
"292 122 OFFCURVE",
"323 127 QCURVE",
"378 135 OFFCURVE",
"385 157 QCURVE",
"390 171 OFFCURVE",
"369 196 OFFCURVE",
"326 215 QCURVE",
"320 218 OFFCURVE",
"252 245 OFFCURVE",
"237 253 QCURVE",
"172 285 OFFCURVE",
"159 331 QCURVE",
"143 385 OFFCURVE",
"176 435 QCURVE",
"202 477 OFFCURVE",
"253 501 QCURVE",
"292 519 OFFCURVE",
"334 526 QCURVE",
"376 534 OFFCURVE",
"408 529 QCURVE",
"466 521 OFFCURVE",
"499 500 QCURVE",
"506 494 OFFCURVE",
"514 485 QCURVE",
"533 465 LINE",
"544 454 OFFCURVE",
"547 450 QCURVE",
"565 433 OFFCURVE",
"557 380 OFFCURVE",
"513 341 OFFCURVE",
"457 337 OFFCURVE",
"439 355 QCURVE"
);
}
);
width = 537;
}
);
unicode = 0073;
},
{
glyphname = t;
lastChange = "2019-10-09 23:07:58 +0000";
layers = (
{
layerId = UUID0;
paths = (
{
closed = 1;
nodes = (
"195 420 LINE",
"173 418 OFFCURVE",
"147 444 OFFCURVE",
"151 485 OFFCURVE",
"183 517 OFFCURVE",
"204 520 QCURVE",
"227 522 LINE",
"240 575 OFFCURVE",
"253 629 QCURVE",
"259 650 OFFCURVE",
"295 678 OFFCURVE",
"336 676 OFFCURVE",
"358 646 OFFCURVE",
"352 625 QCURVE",
"329 530 LINE",
"363 532 LINE",
"384 533 OFFCURVE",
"409 507 OFFCURVE",
"403 465 OFFCURVE",
"371 434 OFFCURVE",
"349 432 QCURVE",
"305 430 LINE",
"294 382 OFFCURVE",
"289 360 QCURVE",
"267 266 OFFCURVE",
"257 207 QCURVE",
"247 147 OFFCURVE",
"251 129 OFFCURVE",
"253 122 OFFCURVE",
"263 115 OFFCURVE",
"275 113 OFFCURVE",
"306 104 OFFCURVE",
"323 97 QCURVE",
"341 91 OFFCURVE",
"352 54 OFFCURVE",
"331 15 OFFCURVE",
"290 -4 OFFCURVE",
"271 3 QCURVE",
"266 5 OFFCURVE",
"230 13 OFFCURVE",
"205 23 OFFCURVE",
"174 42 OFFCURVE",
"153 75 OFFCURVE",
"148 98 QCURVE",
"143 125 OFFCURVE",
"157 204 QCURVE",
"167 265 OFFCURVE",
"189 361 QCURVE",
"193 379 OFFCURVE",
"203 421 QCURVE"
);
}
);
width = 357;
},
{
layerId = "3644BD71-2ABE-4F7E-A414-48DBC1C300FF";
paths = (
{
closed = 1;
nodes = (
"248 565 OFFCURVE",
"256 602 OFFCURVE",
"258 607 QCURVE",
"265 636 OFFCURVE",
"315 675 OFFCURVE",
"373 674 OFFCURVE",
"403 632 OFFCURVE",
"397 603 QCURVE",
"396 599 OFFCURVE",
"387 564 OFFCURVE",
"384 551 QCURVE",
"425 549 OFFCURVE",
"454 509 OFFCURVE",
"448 481 QCURVE",
"442 454 OFFCURVE",
"394 414 OFFCURVE",
"351 412 QCURVE",
"344 381 OFFCURVE",
"338 353 QCURVE",
"317 260 OFFCURVE",
"301 169 QCURVE",
"302 169 LINE",
"301 169 LINE",
"302 167 OFFCURVE",
"308 162 OFFCURVE",
"314 158 QCURVE",
"321 154 LINE",
"329 149 LINE",
"334 147 OFFCURVE",
"336 145 QCURVE",
"353 136 OFFCURVE",
"363 127 QCURVE",
"384 111 OFFCURVE",
"384 55 OFFCURVE",
"342 7 OFFCURVE",
"283 -5 OFFCURVE",
"263 11 QCURVE",
"257 15 OFFCURVE",
"246 21 QCURVE",
"221 36 LINE",
"182 60 OFFCURVE",
"166 90 QCURVE",
"158 104 OFFCURVE",
"158 126 QCURVE",
"158 136 OFFCURVE",
"159 150 QCURVE",
"161 169 OFFCURVE",
"168 206 QCURVE",
"178 263 OFFCURVE",
"199 354 QCURVE",
"205 384 OFFCURVE",
"213 417 QCURVE",
"167 424 OFFCURVE",
"147 461 OFFCURVE",
"157 507 OFFCURVE",
"194 544 OFFCURVE",
"244 550 QCURVE"
);
}
);
width = 423;
}
);
unicode = 0074;
},
{
glyphname = u;
lastChange = "2019-10-09 23:07:58 +0000";
layers = (
{
layerId = UUID0;
paths = (
{
closed = 1;
nodes = (
"549 246 OFFCURVE",
"497 47 QCURVE",
"492 27 OFFCURVE",
"455 -1 OFFCURVE",
"435 0 QCURVE",
"417 1 OFFCURVE",
"395 27 OFFCURVE",
"400 58 QCURVE",
"345 18 OFFCURVE",
"294 6 QCURVE",
"220 -12 OFFCURVE",
"171 29 QCURVE",
"123 69 OFFCURVE",
"111 161 QCURVE",
"107 193 OFFCURVE",
"108 227 QCURVE",
"109 262 OFFCURVE",
"127 341 OFFCURVE",
"139 390 OFFCURVE",
"165 475 OFFCURVE",
"169 486 QCURVE",
"175 506 OFFCURVE",
"212 533 OFFCURVE",
"252 530 OFFCURVE",
"273 499 OFFCURVE",
"267 478 QCURVE",
"263 463 OFFCURVE",
"236 379 OFFCURVE",
"226 338 OFFCURVE",
"211 271 OFFCURVE",
"209 218 OFFCURVE",
"212 193 QCURVE",
"221 132 OFFCURVE",
"250 110 QCURVE",
"262 101 OFFCURVE",
"294 101 QCURVE",
"338 108 OFFCURVE",
"399 144 OFFCURVE",
"436 208 QCURVE",
"466 341 OFFCURVE",
"490 478 QCURVE",
"494 499 OFFCURVE",
"529 529 OFFCURVE",
"570 531 OFFCURVE",
"594 502 OFFCURVE",
"591 482 QCURVE"
);
}
);
width = 545;
},
{
layerId = "3644BD71-2ABE-4F7E-A414-48DBC1C300FF";
paths = (
{
closed = 1;
nodes = (
"281 403 LINE",
"269 367 OFFCURVE",
"257 330 OFFCURVE",
"236 256 OFFCURVE",
"236 240 QCURVE",
"229 191 OFFCURVE",
"249 141 OFFCURVE",
"280 133 QCURVE",
"300 127 OFFCURVE",
"345 154 OFFCURVE",
"396 201 QCURVE",
"403 207 OFFCURVE",
"410 211 QCURVE",
"440 344 OFFCURVE",
"462 459 QCURVE",
"468 488 OFFCURVE",
"517 529 OFFCURVE",
"575 530 OFFCURVE",
"608 490 OFFCURVE",
"602 461 QCURVE",
"573 314 OFFCURVE",
"521 77 QCURVE",
"515 49 OFFCURVE",
"489 28 QCURVE",
"464 8 OFFCURVE",
"435 8 QCURVE",
"399 9 OFFCURVE",
"386 38 QCURVE",
"299 -17 OFFCURVE",
"219 5 QCURVE",
"177 17 OFFCURVE",
"123 65 OFFCURVE",
"101 130 OFFCURVE",
"97 194 OFFCURVE",
"102 231 QCURVE",
"103 251 OFFCURVE",
"128 342 OFFCURVE",
"141 385 OFFCURVE",
"168 462 OFFCURVE",
"171 471 QCURVE",
"180 498 OFFCURVE",
"231 532 OFFCURVE",
"283 525 OFFCURVE",
"308 482 OFFCURVE",
"299 455 QCURVE"
);
}
);
width = 557;
}
);
unicode = 0075;
},
{
glyphname = v;
lastChange = "2019-10-09 23:07:58 +0000";
layers = (
{
layerId = UUID0;
paths = (
{
closed = 1;
nodes = (
"260 477 OFFCURVE",
"309 193 OFFCURVE",
"315 158 QCURVE",
"317 149 LINE",
"323 156 OFFCURVE",
"332 171 OFFCURVE",
"338 180 OFFCURVE",
"340 184 QCURVE",
"342 188 LINE",
"353 204 OFFCURVE",
"497 444 OFFCURVE",
"543 504 QCURVE",
"556 522 OFFCURVE",
"599 534 OFFCURVE",
"631 514 OFFCURVE",
"634 474 OFFCURVE",
"620 456 QCURVE",
"576 398 OFFCURVE",
"447 182 OFFCURVE",
"426 148 QCURVE",
"385 87 LINE",
"365 59 OFFCURVE",
"349 41 QCURVE",
"337 28 OFFCURVE",
"327 20 QCURVE",
"305 2 OFFCURVE",
"283 0 QCURVE",
"263 -1 OFFCURVE",
"251 10 QCURVE",
"246 14 OFFCURVE",
"244 19 QCURVE",
"240 23 OFFCURVE",
"238 28 QCURVE",
"233 42 LINE",
"230 54 OFFCURVE",
"225 75 QCURVE",
"215 120 LINE",
"207 159 OFFCURVE",
"160 438 OFFCURVE",
"155 463 QCURVE",
"152 482 OFFCURVE",
"177 520 OFFCURVE",
"218 535 OFFCURVE",
"253 518 OFFCURVE",
"257 499 QCURVE"
);
}
);
width = 584;
},
{
layerId = "3644BD71-2ABE-4F7E-A414-48DBC1C300FF";
paths = (
{
closed = 1;
nodes = (
"565 382 LINE",
"462 234 LINE",
"439 199 LINE",
"413 159 LINE",
"395 131 OFFCURVE",
"384 112 OFFCURVE",
"364 79 QCURVE",
"340 40 LINE",
"324 15 OFFCURVE",
"270 -6 OFFCURVE",
"246 4 QCURVE",
"218 18 OFFCURVE",
"218 52 QCURVE",
"218 55 OFFCURVE",
"218 57 QCURVE",
"198 268 OFFCURVE",
"154 431 QCURVE",
"146 455 OFFCURVE",
"172 508 OFFCURVE",
"226 535 OFFCURVE",
"275 520 OFFCURVE",
"283 495 QCURVE",
"313 381 OFFCURVE",
"333 257 QCURVE",
"420 392 OFFCURVE",
"499 498 QCURVE",
"518 521 OFFCURVE",
"574 533 OFFCURVE",
"614 504 OFFCURVE",
"616 452 OFFCURVE",
"595 427 QCURVE"
);
}
);
width = 570;
}
);
unicode = 0076;
},
{
glyphname = w;
lastChange = "2019-10-09 23:07:58 +0000";
layers = (
{
layerId = UUID0;
paths = (
{
closed = 1;
nodes = (
"188 89 OFFCURVE",
"170 245 QCURVE",
"153 379 OFFCURVE",
"151 466 QCURVE",
"149 486 OFFCURVE",
"177 522 OFFCURVE",
"220 533 OFFCURVE",
"251 512 OFFCURVE",
"252 492 QCURVE",
"254 414 OFFCURVE",
"271 277 QCURVE",
"278 220 LINE",
"297 257 OFFCURVE",
"320 298 QCURVE",
"370 390 LINE",
"412 465 LINE",
"422 484 OFFCURVE",
"463 503 OFFCURVE",
"482 501 QCURVE",
"502 501 OFFCURVE",
"525 477 OFFCURVE",
"526 452 QCURVE",
"563 181 LINE",
"590 232 OFFCURVE",
"685 446 OFFCURVE",
"709 493 QCURVE",
"720 513 OFFCURVE",
"760 533 OFFCURVE",
"797 521 OFFCURVE",
"810 485 OFFCURVE",
"799 465 QCURVE",
"780 425 OFFCURVE",
"694 233 OFFCURVE",
"620 89 OFFCURVE",
"583 31 QCURVE",
"571 12 OFFCURVE",
"530 -4 OFFCURVE",
"512 4 QCURVE",
"509 5 OFFCURVE",
"506 7 QCURVE",
"479 13 OFFCURVE",
"476 40 QCURVE",
"463 144 OFFCURVE",
"436 318 QCURVE",
"345 155 OFFCURVE",
"307 58 QCURVE",
"300 40 OFFCURVE",
"284 29 QCURVE",
"270 8 OFFCURVE",
"247 2 QCURVE",
"226 -4 OFFCURVE",
"194 16 OFFCURVE",
"192 36 QCURVE"
);
}
);
width = 754;
},
{
layerId = "3644BD71-2ABE-4F7E-A414-48DBC1C300FF";
paths = (
{
closed = 1;
nodes = (
"151 270 OFFCURVE",
"145 437 QCURVE",
"145 466 OFFCURVE",
"185 517 OFFCURVE",
"245 532 OFFCURVE",
"288 501 OFFCURVE",
"289 472 QCURVE",
"290 355 OFFCURVE",
"298 285 QCURVE",
"349 375 OFFCURVE",
"402 471 QCURVE",
"416 497 OFFCURVE",
"466 522 OFFCURVE",
"490 516 QCURVE",
"510 514 OFFCURVE",
"535 489 OFFCURVE",
"538 470 QCURVE",
"560 296 LINE",
"643 473 LINE",
"656 502 OFFCURVE",
"713 532 OFFCURVE",
"765 516 OFFCURVE",
"783 465 OFFCURVE",
"769 436 QCURVE",
"610 97 OFFCURVE",
"586 48 QCURVE",
"572 23 OFFCURVE",
"521 -6 OFFCURVE",
"495 -2 QCURVE",
"476 0 OFFCURVE",
"447 26 OFFCURVE",
"444 47 QCURVE",
"420 237 LINE",
"321 49 LINE",
"309 27 OFFCURVE",
"268 0 OFFCURVE",
"245 -1 QCURVE",
"217 -7 OFFCURVE",
"175 21 OFFCURVE",
"172 47 QCURVE"
);
}
);
width = 754;
}
);
unicode = 0077;
},
{
glyphname = x;
lastChange = "2019-10-09 23:07:58 +0000";
layers = (
{
layerId = UUID0;
paths = (
{
closed = 1;
nodes = (
"486 78 LINE",
"494 61 OFFCURVE",
"478 21 OFFCURVE",
"439 -3 OFFCURVE",
"401 5 OFFCURVE",
"392 22 QCURVE",
"297 200 LINE",
"224 121 OFFCURVE",
"149 25 QCURVE",
"135 7 OFFCURVE",
"93 -4 OFFCURVE",
"61 17 OFFCURVE",
"59 57 OFFCURVE",
"73 75 QCURVE",
"161 182 OFFCURVE",
"251 285 QCURVE",
"162 450 LINE",
"153 467 OFFCURVE",
"168 508 OFFCURVE",
"207 533 OFFCURVE",
"246 526 OFFCURVE",
"255 510 QCURVE",
"330 373 LINE",
"399 443 OFFCURVE",
"469 512 QCURVE",
"486 528 OFFCURVE",
"528 533 OFFCURVE",
"554 507 OFFCURVE",
"552 487 QCURVE",
"551 466 OFFCURVE",
"534 450 QCURVE",
"455 374 OFFCURVE",
"375 288 QCURVE"
);
}
);
width = 528;
},
{
layerId = "3644BD71-2ABE-4F7E-A414-48DBC1C300FF";
paths = (
{
closed = 1;
nodes = (
"489 111 LINE",
"501 87 OFFCURVE",
"478 27 OFFCURVE",
"423 -6 OFFCURVE",
"367 4 OFFCURVE",
"356 28 QCURVE",
"300 142 LINE",
"250 87 OFFCURVE",
"208 33 QCURVE",
"187 8 OFFCURVE",
"127 -7 OFFCURVE",
"83 23 OFFCURVE",
"81 82 OFFCURVE",
"101 107 QCURVE",
"162 183 OFFCURVE",
"234 266 QCURVE",
"152 410 LINE",
"139 433 OFFCURVE",
"157 493 OFFCURVE",
"210 530 OFFCURVE",
"267 524 OFFCURVE",
"281 501 QCURVE",
"346 388 LINE",
"447 500 LINE",
"469 523 OFFCURVE",
"528 531 OFFCURVE",
"567 495 OFFCURVE",
"562 435 OFFCURVE",
"539 411 QCURVE",
"411 269 LINE"
);
}
);
width = 528;
}
);
unicode = 0078;
},
{
glyphname = y;
lastChange = "2019-10-09 23:07:58 +0000";
layers = (
{
layerId = UUID0;
paths = (
{
closed = 1;
nodes = (
"81 -100 OFFCURVE",
"110 -98 OFFCURVE",
"119 -97 OFFCURVE",
"134 -94 OFFCURVE",
"138 -91 QCURVE",
"149 -85 LINE",
"176 -73 OFFCURVE",
"207 -18 QCURVE",
"216 -1 OFFCURVE",
"224 6 QCURVE",
"218 14 OFFCURVE",
"217 25 QCURVE",
"215 102 OFFCURVE",
"191 253 QCURVE",
"170 386 OFFCURVE",
"163 466 QCURVE",
"161 486 OFFCURVE",
"188 522 OFFCURVE",
"231 534 OFFCURVE",
"263 514 OFFCURVE",
"265 494 QCURVE",
"270 430 OFFCURVE",
"293 288 QCURVE",
"309 184 LINE",
"424 398 OFFCURVE",
"505 505 QCURVE",
"519 523 OFFCURVE",
"561 535 OFFCURVE",
"593 515 OFFCURVE",
"596 475 OFFCURVE",
"583 457 QCURVE",
"546 409 OFFCURVE",
"461 271 OFFCURVE",
"409 177 OFFCURVE",
"365 93 QCURVE",
"355 73 OFFCURVE",
"351 65 QCURVE",
"344 52 OFFCURVE",
"326 13 QCURVE",
"307 -24 OFFCURVE",
"296 -47 QCURVE",
"251 -125 OFFCURVE",
"195 -163 QCURVE",
"179 -174 OFFCURVE",
"147 -189 OFFCURVE",
"115 -196 OFFCURVE",
"96 -199 OFFCURVE",
"63 -200 OFFCURVE",
"60 -201 QCURVE",
"38 -203 OFFCURVE",
"12 -176 OFFCURVE",
"17 -135 OFFCURVE",
"51 -103 OFFCURVE",
"71 -101 QCURVE"
);
}
);
width = 542;
},
{
layerId = "3644BD71-2ABE-4F7E-A414-48DBC1C300FF";
paths = (
{
closed = 1;
nodes = (
"79 -71 OFFCURVE",
"123 -40 OFFCURVE",
"151 -18 OFFCURVE",
"163 -5 QCURVE",
"187 18 OFFCURVE",
"210 45 QCURVE",
"208 49 OFFCURVE",
"208 54 QCURVE",
"148 436 LINE",
"144 463 OFFCURVE",
"178 516 OFFCURVE",
"236 536 OFFCURVE",
"285 513 OFFCURVE",
"289 486 QCURVE",
"328 215 LINE",
"364 276 OFFCURVE",
"463 481 QCURVE",
"475 507 OFFCURVE",
"529 533 OFFCURVE",
"579 518 OFFCURVE",
"594 470 OFFCURVE",
"581 443 QCURVE",
"576 434 OFFCURVE",
"528 325 OFFCURVE",
"511 295 OFFCURVE",
"469 213 OFFCURVE",
"457 193 QCURVE",
"422 135 LINE",
"401 99 OFFCURVE",
"383 75 QCURVE",
"344 21 LINE",
"321 -10 OFFCURVE",
"274 -63 OFFCURVE",
"250 -87 QCURVE",
"233 -104 OFFCURVE",
"211 -121 QCURVE",
"163 -157 LINE",
"139 -175 OFFCURVE",
"133 -181 QCURVE",
"109 -200 OFFCURVE",
"54 -198 OFFCURVE",
"25 -159 OFFCURVE",
"38 -104 OFFCURVE",
"61 -85 QCURVE"
);
}
);
width = 544;
}
);
unicode = 0079;
},
{
glyphname = z;
lastChange = "2019-10-09 23:07:58 +0000";
layers = (
{
layerId = UUID0;
paths = (
{
closed = 1;
nodes = (
"264 528 OFFCURVE",
"429 531 OFFCURVE",
"476 530 QCURVE",
"486 530 LINE",
"496 530 LINE",
"503 530 LINE",
"511 530 LINE",
"513 530 LINE",
"515 530 LINE",
"516 530 LINE",
"519 530 LINE",
"521 529 OFFCURVE",
"523 529 QCURVE",
"529 527 LINE",
"539 524 OFFCURVE",
"545 516 QCURVE",
"567 490 OFFCURVE",
"553 447 QCURVE",
"544 422 OFFCURVE",
"522 390 QCURVE",
"491 344 OFFCURVE",
"427 288 QCURVE",
"353 212 OFFCURVE",
"248 123 QCURVE",
"220 100 LINE",
"249 99 OFFCURVE",
"294 100 QCURVE",
"346 101 OFFCURVE",
"417 104 QCURVE",
"489 107 OFFCURVE",
"497 107 QCURVE",
"518 107 OFFCURVE",
"541 78 OFFCURVE",
"532 36 OFFCURVE",
"497 7 OFFCURVE",
"476 7 QCURVE",
"468 7 OFFCURVE",
"324 1 OFFCURVE",
"274 0 QCURVE",
"196 -1 OFFCURVE",
"152 2 QCURVE",
"123 4 OFFCURVE",
"106 8 QCURVE",
"94 11 OFFCURVE",
"85 15 QCURVE",
"65 26 OFFCURVE",
"60 47 QCURVE",
"58 64 OFFCURVE",
"68 82 QCURVE",
"71 88 OFFCURVE",
"75 92 QCURVE",
"78 96 OFFCURVE",
"83 101 QCURVE",
"97 115 LINE",
"135 147 LINE",
"191 193 LINE",
"291 278 OFFCURVE",
"359 340 QCURVE",
"413 394 OFFCURVE",
"439 430 QCURVE",
"401 431 OFFCURVE",
"368 431 QCURVE",
"235 428 OFFCURVE",
"199 432 QCURVE",
"180 435 OFFCURVE",
"161 467 OFFCURVE",
"174 508 OFFCURVE",
"212 534 OFFCURVE",
"233 532 QCURVE"
);
}
);
width = 574;
},
{
layerId = "3644BD71-2ABE-4F7E-A414-48DBC1C300FF";
paths = (
{
closed = 1;
nodes = (
"164 188 OFFCURVE",
"374 395 QCURVE",
"293 394 OFFCURVE",
"206 399 QCURVE",
"179 397 OFFCURVE",
"146 433 OFFCURVE",
"153 488 OFFCURVE",
"198 529 OFFCURVE",
"226 531 QCURVE",
"380 531 OFFCURVE",
"538 526 QCURVE",
"565 525 OFFCURVE",
"594 486 OFFCURVE",
"588 459 QCURVE",
"587 429 OFFCURVE",
"562 405 QCURVE",
"363 208 LINE",
"282 132 LINE",
"371 132 OFFCURVE",
"471 137 QCURVE",
"498 139 OFFCURVE",
"531 103 OFFCURVE",
"524 48 OFFCURVE",
"479 7 OFFCURVE",
"451 5 QCURVE",
"306 -3 OFFCURVE",
"130 2 QCURVE",
"126 2 LINE",
"102 0 OFFCURVE",
"85 14 QCURVE",
"67 30 OFFCURVE",
"68 84 OFFCURVE",
"89 106 QCURVE"
);
}
);
width = 564;
}
);
unicode = 007A;
},
{
glyphname = braceleft;
lastChange = "2019-10-09 23:07:58 +0000";
layers = (
{
layerId = UUID0;
paths = (
{
closed = 1;
nodes = (
"436 606 OFFCURVE",
"429 601 QCURVE",
"421 606 OFFCURVE",
"397 564 QCURVE",
"376 529 OFFCURVE",
"357 451 QCURVE",
"356 449 OFFCURVE",
"351 425 OFFCURVE",
"348 416 OFFCURVE",
"342 394 OFFCURVE",
"339 382 OFFCURVE",
"331 362 OFFCURVE",
"326 349 OFFCURVE",
"317 332 OFFCURVE",
"313 326 QCURVE",
"287 287 OFFCURVE",
"245 256 QCURVE",
"246 256 LINE",
"267 220 OFFCURVE",
"268 179 QCURVE",
"267 158 OFFCURVE",
"250 108 QCURVE",
"244 88 LINE",
"237 68 LINE",
"234 60 OFFCURVE",
"233 55 QCURVE",
"216 -8 OFFCURVE",
"207 -60 OFFCURVE",
"210 -72 QCURVE",
"219 -94 OFFCURVE",
"311 -106 QCURVE",
"329 -112 OFFCURVE",
"340 -149 OFFCURVE",
"319 -188 OFFCURVE",
"278 -207 OFFCURVE",
"259 -200 QCURVE",
"193 -199 OFFCURVE",
"125 -156 OFFCURVE",
"113 -121 QCURVE",
"102 -89 OFFCURVE",
"119 13 OFFCURVE",
"134 61 QCURVE",
"135 63 OFFCURVE",
"154 120 QCURVE",
"157 131 OFFCURVE",
"163 150 OFFCURVE",
"164 154 QCURVE",
"165 157 LINE",
"164 174 OFFCURVE",
"156 190 QCURVE",
"141 198 LINE",
"96 222 OFFCURVE",
"106 267 QCURVE",
"115 302 OFFCURVE",
"150 320 QCURVE",
"163 327 OFFCURVE",
"183 330 QCURVE",
"185 330 OFFCURVE",
"194 332 OFFCURVE",
"196 332 QCURVE",
"217 348 OFFCURVE",
"229 366 QCURVE",
"239 381 OFFCURVE",
"258 455 QCURVE",
"283 551 OFFCURVE",
"311 600 QCURVE",
"332 635 OFFCURVE",
"368 680 OFFCURVE",
"393 694 QCURVE",
"400 698 OFFCURVE",
"413 705 OFFCURVE",
"422 708 QCURVE",
"437 712 LINE",
"442 713 OFFCURVE",
"495 713 OFFCURVE",
"497 713 QCURVE",
"518 717 OFFCURVE",
"547 693 OFFCURVE",
"545 652 OFFCURVE",
"514 618 OFFCURVE",
"492 615 QCURVE"
);
}
);
width = 448;
},
{
layerId = "3644BD71-2ABE-4F7E-A414-48DBC1C300FF";
paths = (
{
closed = 1;
nodes = (
"500 570 OFFCURVE",
"488 576 QCURVE",
"487 576 OFFCURVE",
"478 581 OFFCURVE",
"475 582 QCURVE",
"472 584 LINE",
"455 582 OFFCURVE",
"428 549 OFFCURVE",
"411 503 QCURVE",
"394 450 LINE",
"378 400 LINE",
"351 327 OFFCURVE",
"315 289 QCURVE",
"308 282 OFFCURVE",
"302 276 QCURVE",
"313 254 OFFCURVE",
"312 222 QCURVE",
"312 212 OFFCURVE",
"308 184 OFFCURVE",
"308 182 QCURVE",
"305 152 OFFCURVE",
"288 97 QCURVE",
"275 55 OFFCURVE",
"274 38 QCURVE",
"269 -20 OFFCURVE",
"299 -42 QCURVE",
"326 -63 OFFCURVE",
"406 -70 QCURVE",
"432 -73 OFFCURVE",
"458 -115 OFFCURVE",
"442 -169 OFFCURVE",
"392 -204 OFFCURVE",
"366 -202 QCURVE",
"255 -191 OFFCURVE",
"203 -153 QCURVE",
"130 -98 OFFCURVE",
"140 22 QCURVE",
"143 53 OFFCURVE",
"158 108 QCURVE",
"172 151 OFFCURVE",
"173 168 QCURVE",
"174 171 OFFCURVE",
"176 187 QCURVE",
"177 194 LINE",
"153 199 OFFCURVE",
"141 204 QCURVE",
"118 213 OFFCURVE",
"105 263 OFFCURVE",
"120 289 QCURVE",
"134 312 OFFCURVE",
"158 324 QCURVE",
"162 328 OFFCURVE",
"167 331 QCURVE",
"169 332 OFFCURVE",
"210 356 QCURVE",
"222 363 OFFCURVE",
"226 367 QCURVE",
"236 378 OFFCURVE",
"251 419 QCURVE",
"257 435 OFFCURVE",
"279 505 OFFCURVE",
"286 523 QCURVE",
"351 703 OFFCURVE",
"491 716 QCURVE",
"521 719 OFFCURVE",
"553 703 QCURVE",
"554 703 OFFCURVE",
"569 695 QCURVE",
"575 693 OFFCURVE",
"577 692 QCURVE",
"601 683 OFFCURVE",
"615 635 OFFCURVE",
"587 583 OFFCURVE",
"534 558 OFFCURVE",
"510 566 QCURVE"
);
}
);
width = 533;
}
);
unicode = 007B;
},
{
glyphname = bar;
lastChange = "2019-10-09 23:07:58 +0000";
layers = (
{
layerId = UUID0;
paths = (
{
closed = 1;
nodes = (
"196 197 OFFCURVE",
"158 41 QCURVE",
"153 21 OFFCURVE",
"117 -8 OFFCURVE",
"76 -6 OFFCURVE",
"54 24 OFFCURVE",
"59 45 QCURVE",
"97 199 OFFCURVE",
"196 668 QCURVE",
"201 689 OFFCURVE",
"236 718 OFFCURVE",
"278 718 OFFCURVE",
"301 689 OFFCURVE",
"296 668 QCURVE"
);
}
);
width = 203;
},
{
layerId = "3644BD71-2ABE-4F7E-A414-48DBC1C300FF";
paths = (
{
closed = 1;
nodes = (
"307 518 LINE",
"281 398 LINE",
"272 356 OFFCURVE",
"244 226 OFFCURVE",
"217 115 OFFCURVE",
"203 61 QCURVE",
"195 32 OFFCURVE",
"145 -7 OFFCURVE",
"88 -4 OFFCURVE",
"58 38 OFFCURVE",
"65 67 QCURVE",
"82 133 OFFCURVE",
"120 298 OFFCURVE",
"138 381 OFFCURVE",
"192 639 OFFCURVE",
"196 658 QCURVE",
"203 687 OFFCURVE",
"252 728 OFFCURVE",
"310 728 OFFCURVE",
"343 687 OFFCURVE",
"336 658 QCURVE"
);
}
);
width = 247;
}
);
unicode = 007C;
},
{
glyphname = braceright;
lastChange = "2019-10-09 23:07:58 +0000";
layers = (
{
layerId = UUID0;
paths = (
{
closed = 1;
nodes = (
"324 715 OFFCURVE",
"369 683 QCURVE",
"409 653 OFFCURVE",
"415 592 QCURVE",
"417 564 OFFCURVE",
"408 497 OFFCURVE",
"385 391 OFFCURVE",
"383 385 QCURVE",
"382 377 OFFCURVE",
"375 355 OFFCURVE",
"375 354 QCURVE",
"374 352 LINE",
"377 347 OFFCURVE",
"393 336 QCURVE",
"394 336 OFFCURVE",
"407 334 QCURVE",
"426 331 OFFCURVE",
"438 325 QCURVE",
"465 308 OFFCURVE",
"458 272 QCURVE",
"450 230 OFFCURVE",
"400 203 QCURVE",
"383 194 OFFCURVE",
"382 194 QCURVE",
"376 186 OFFCURVE",
"363 157 QCURVE",
"346 118 OFFCURVE",
"333 53 QCURVE",
"315 -36 OFFCURVE",
"309 -56 QCURVE",
"284 -127 OFFCURVE",
"225 -163 QCURVE",
"166 -200 OFFCURVE",
"64 -202 QCURVE",
"43 -202 OFFCURVE",
"19 -174 OFFCURVE",
"27 -132 OFFCURVE",
"62 -102 OFFCURVE",
"83 -102 QCURVE",
"153 -101 OFFCURVE",
"184 -82 QCURVE",
"203 -70 OFFCURVE",
"213 -42 QCURVE",
"218 -25 OFFCURVE",
"232 51 QCURVE",
"247 129 OFFCURVE",
"292 229 OFFCURVE",
"313 252 QCURVE",
"314 254 OFFCURVE",
"316 255 QCURVE",
"283 280 OFFCURVE",
"274 309 QCURVE",
"269 331 OFFCURVE",
"276 360 QCURVE",
"277 363 OFFCURVE",
"281 375 QCURVE",
"283 383 LINE",
"288 405 OFFCURVE",
"308 495 OFFCURVE",
"315 543 OFFCURVE",
"313 563 QCURVE",
"310 588 OFFCURVE",
"297 598 QCURVE",
"277 613 OFFCURVE",
"227 610 QCURVE",
"206 609 OFFCURVE",
"181 636 OFFCURVE",
"188 678 OFFCURVE",
"221 709 OFFCURVE",
"242 710 QCURVE"
);
}
);
width = 448;
},
{
layerId = "3644BD71-2ABE-4F7E-A414-48DBC1C300FF";
paths = (
{
closed = 1;
nodes = (
"342 711 LINE",
"358 705 OFFCURVE",
"359 705 QCURVE",
"392 695 OFFCURVE",
"409 676 QCURVE",
"429 655 OFFCURVE",
"448 603 OFFCURVE",
"446 537 OFFCURVE",
"441 502 OFFCURVE",
"434 470 QCURVE",
"424 410 OFFCURVE",
"419 357 OFFCURVE",
"427 342 QCURVE",
"429 340 OFFCURVE",
"436 336 QCURVE",
"448 327 LINE",
"459 320 OFFCURVE",
"464 314 QCURVE",
"470 309 OFFCURVE",
"475 302 QCURVE",
"480 297 OFFCURVE",
"483 291 QCURVE",
"496 269 OFFCURVE",
"477 215 OFFCURVE",
"428 181 OFFCURVE",
"395 153 OFFCURVE",
"379 127 OFFCURVE",
"373 112 OFFCURVE",
"371 99 QCURVE",
"365 74 LINE",
"360 50 OFFCURVE",
"352 26 OFFCURVE",
"335 -22 OFFCURVE",
"320 -46 QCURVE",
"305 -69 OFFCURVE",
"285 -92 QCURVE",
"256 -126 OFFCURVE",
"204 -156 QCURVE",
"171 -174 LINE",
"155 -183 OFFCURVE",
"145 -189 QCURVE",
"101 -206 OFFCURVE",
"48 -199 OFFCURVE",
"23 -156 OFFCURVE",
"42 -102 OFFCURVE",
"67 -85 QCURVE",
"83 -75 OFFCURVE",
"104 -62 QCURVE",
"136 -45 LINE",
"180 -32 OFFCURVE",
"188 -22 QCURVE",
"200 -8 OFFCURVE",
"214 14 OFFCURVE",
"219 28 QCURVE",
"227 48 LINE",
"229 55 OFFCURVE",
"233 74 QCURVE",
"239 102 LINE",
"258 183 OFFCURVE",
"319 243 QCURVE",
"311 252 OFFCURVE",
"306 262 QCURVE",
"300 273 OFFCURVE",
"291 301 OFFCURVE",
"286 324 OFFCURVE",
"286 341 QCURVE",
"287 368 LINE",
"287 378 OFFCURVE",
"293 415 OFFCURVE",
"294 427 OFFCURVE",
"301 465 OFFCURVE",
"302 467 QCURVE",
"319 557 OFFCURVE",
"302 576 QCURVE",
"294 579 LINE",
"292 580 OFFCURVE",
"246 581 OFFCURVE",
"240 583 OFFCURVE",
"239 584 QCURVE",
"225 588 OFFCURVE",
"216 592 QCURVE",
"192 602 OFFCURVE",
"182 652 OFFCURVE",
"213 703 OFFCURVE",
"267 724 OFFCURVE",
"330 714 QCURVE"
);
}
);
width = 448;
}
);
unicode = 007D;
},
